<svg width="1138" height="135" viewBox="0 0 1138 135" fill="none" xmlns="http://www.w3.org/2000/svg">
<rect width="1138" height="135" rx="12" fill="#D9814B" fill-opacity="0.8"/>
<g filter="url(#filter0_i_78_2465)">
<path d="M71.8016 86.7592C71.3408 86.7592 70.9376 86.7016 70.592 86.5864C70.2464 86.4712 70.0736 86.212 70.0736 85.8088C70.0736 85.4056 70.2464 85.1176 70.592 84.9448C70.9952 84.772 71.4848 84.5992 72.0608 84.4264C72.8672 84.1384 73.6736 83.8216 74.48 83.476C75.344 83.0728 75.776 82.2952 75.776 81.1432V62.5672C75.776 61.012 75.6032 59.6584 75.2576 58.5064C74.912 57.2968 73.9904 56.5768 72.4928 56.3464C72.2624 56.2888 72.0608 56.1736 71.888 56.0008C71.7728 55.828 71.7152 55.5688 71.7152 55.2232C71.7152 54.6472 71.9456 54.3016 72.4064 54.1864C73.9616 53.7832 75.2 53.38 76.1216 52.9768C77.0432 52.516 77.8496 52.0264 78.5408 51.508C79.2896 50.932 80.1824 50.3272 81.2192 49.6936C81.3344 49.636 81.4496 49.5784 81.5648 49.5208C81.68 49.4056 81.824 49.348 81.9968 49.348C82.3424 49.348 82.5152 49.5496 82.5152 49.9528C82.5152 50.356 82.4288 51.1912 82.256 52.4584C82.1408 53.668 82.0832 54.676 82.0832 55.4824C82.0832 56.0584 82.1408 56.404 82.256 56.5192H82.4288C83.7536 55.252 85.4816 53.9848 87.6128 52.7176C89.8016 51.3928 92.5664 50.7304 95.9072 50.7304C97.9808 50.7304 99.7088 51.1912 101.091 52.1128C102.474 52.9768 103.626 54.5032 104.547 56.692H104.806C106.65 55.0216 108.752 53.6104 111.114 52.4584C113.475 51.3064 116.067 50.7304 118.89 50.7304C120.79 50.7304 122.374 51.3064 123.642 52.4584C124.909 53.6104 125.859 55.108 126.493 56.9512C127.184 58.7944 127.53 60.724 127.53 62.74V81.1432C127.53 82.2952 127.933 83.0728 128.739 83.476C129.546 83.8216 130.381 84.1384 131.245 84.4264C131.821 84.5992 132.282 84.772 132.627 84.9448C133.03 85.1176 133.232 85.4056 133.232 85.8088C133.232 86.1544 133.088 86.3848 132.8 86.5C132.57 86.6728 132.138 86.7592 131.504 86.7592C130.352 86.7592 129.459 86.7016 128.826 86.5864C128.192 86.5288 127.587 86.4712 127.011 86.4136C126.493 86.356 125.715 86.3272 124.678 86.3272C123.699 86.3272 122.893 86.356 122.259 86.4136C121.626 86.4712 120.963 86.5288 120.272 86.5864C119.581 86.7016 118.659 86.7592 117.507 86.7592C116.989 86.7592 116.557 86.6728 116.211 86.5C115.923 86.3848 115.779 86.1544 115.779 85.8088C115.779 85.348 115.952 85.0312 116.298 84.8584C116.701 84.6856 117.19 84.5416 117.766 84.4264C118.688 84.196 119.523 83.8792 120.272 83.476C121.078 83.0728 121.482 82.2952 121.482 81.1432V62.9992C121.482 61.6168 121.165 60.3208 120.531 59.1112C119.898 57.844 119.062 56.8072 118.026 56.0008C116.989 55.1944 115.837 54.7912 114.57 54.7912C113.13 54.7912 111.776 54.964 110.509 55.3096C109.299 55.6552 108.147 56.26 107.053 57.124C105.44 58.3912 104.634 60.4648 104.634 63.3448V81.1432C104.634 82.2952 105.066 83.0728 105.93 83.476C106.794 83.8792 107.658 84.196 108.522 84.4264C109.098 84.5416 109.558 84.7144 109.904 84.9448C110.307 85.1176 110.509 85.4056 110.509 85.8088C110.509 86.1544 110.365 86.3848 110.077 86.5C109.789 86.6728 109.357 86.7592 108.781 86.7592C107.629 86.7592 106.707 86.7016 106.016 86.5864C105.382 86.5288 104.749 86.4712 104.115 86.4136C103.539 86.356 102.733 86.3272 101.696 86.3272C100.717 86.3272 99.9104 86.356 99.2768 86.4136C98.6432 86.4712 97.9808 86.5288 97.2896 86.5864C96.5984 86.7016 95.6768 86.7592 94.5248 86.7592C94.064 86.7592 93.6608 86.6728 93.3152 86.5C92.9696 86.3848 92.7968 86.1544 92.7968 85.8088C92.7968 85.348 92.9984 85.06 93.4016 84.9448C93.8624 84.772 94.3232 84.5992 94.784 84.4264C95.648 84.1384 96.4832 83.8216 97.2896 83.476C98.1536 83.0728 98.5856 82.2952 98.5856 81.1432V62.9992C98.5856 61.6168 98.2688 60.3208 97.6352 59.1112C97.0016 57.844 96.1664 56.8072 95.1296 56.0008C94.0928 55.1944 92.9408 54.7912 91.6736 54.7912C90.2336 54.7912 88.88 54.964 87.6128 55.3096C86.4032 55.6552 85.2512 56.26 84.1568 57.124C82.6016 58.276 81.824 60.3496 81.824 63.3448V81.1432C81.824 82.2952 82.2272 83.0728 83.0336 83.476C83.84 83.8216 84.6752 84.1384 85.5392 84.4264C86 84.5992 86.432 84.772 86.8352 84.9448C87.296 85.06 87.5264 85.348 87.5264 85.8088C87.5264 86.1544 87.3536 86.3848 87.008 86.5C86.72 86.6728 86.3168 86.7592 85.7984 86.7592C84.6464 86.7592 83.7248 86.7016 83.0336 86.5864C82.4 86.5288 81.7952 86.4712 81.2192 86.4136C80.6432 86.356 79.8368 86.3272 78.8 86.3272C77.8208 86.3272 77.0144 86.356 76.3808 86.4136C75.8048 86.4712 75.1712 86.5288 74.48 86.5864C73.8464 86.7016 72.9536 86.7592 71.8016 86.7592ZM141.036 87.7096C139.999 87.7096 138.933 87.3064 137.839 86.5C136.802 85.6936 135.909 84.7144 135.16 83.5624C134.469 82.4104 134.124 81.316 134.124 80.2792C134.124 78.436 134.613 76.996 135.592 75.9592C136.572 74.9224 138.127 73.972 140.258 73.108L149.071 69.4792C150.223 69.0184 150.885 68.6152 151.058 68.2696C151.288 67.924 151.432 67.1752 151.49 66.0232L151.663 60.4936C151.72 58.996 151.288 57.7 150.367 56.6056C149.503 55.5112 148.236 54.964 146.565 54.964C145.701 54.964 144.837 55.108 143.973 55.396C143.109 55.684 142.389 56.0584 141.813 56.5192C141.468 56.7496 141.237 57.0952 141.122 57.556C141.007 58.0168 140.949 58.5064 140.949 59.0248C140.949 59.2552 140.949 59.5144 140.949 59.8024C141.007 60.0904 141.036 60.3496 141.036 60.58C141.036 60.868 140.661 61.2712 139.912 61.7896C139.221 62.2504 138.415 62.6824 137.493 63.0856C136.629 63.4312 135.909 63.604 135.333 63.604C135.045 63.604 134.815 63.5464 134.642 63.4312C134.469 63.2584 134.383 63.0568 134.383 62.8264C134.383 61.9048 134.671 60.9256 135.247 59.8888C135.88 58.7944 136.744 57.7864 137.839 56.8648C139.164 55.6552 140.604 54.5896 142.159 53.668C143.714 52.7464 145.24 52.0264 146.738 51.508C148.236 50.9896 149.56 50.7304 150.712 50.7304C152.786 50.7304 154.485 51.4792 155.81 52.9768C157.192 54.4168 157.855 56.2312 157.797 58.42L157.365 79.156C157.308 80.3656 157.567 81.3448 158.143 82.0936C158.776 82.8424 159.554 83.2168 160.476 83.2168C161.916 83.2168 162.981 82.9 163.672 82.2664C163.96 81.9784 164.191 81.8344 164.364 81.8344C164.652 81.8344 164.882 81.9208 165.055 82.0936C165.228 82.2664 165.314 82.4968 165.314 82.7848C165.314 83.4184 164.997 84.052 164.364 84.6856C163.442 85.6072 162.434 86.3272 161.34 86.8456C160.303 87.4216 159.324 87.7096 158.402 87.7096C155.752 87.7096 153.65 86.212 152.095 83.2168H151.836C149.935 84.772 148.12 85.8952 146.392 86.5864C144.664 87.3352 142.879 87.7096 141.036 87.7096ZM145.096 83.5624C146.248 83.5624 147.228 83.3896 148.034 83.044C148.84 82.6408 149.56 82.1224 150.194 81.4888C150.482 81.2008 150.712 80.8264 150.885 80.3656C151.116 79.8472 151.26 79.0408 151.317 77.9464L151.49 73.7128C151.548 73.0792 151.519 72.6184 151.404 72.3304C151.288 72.0424 151.058 71.8984 150.712 71.8984C150.597 71.8984 150.396 71.9272 150.108 71.9848C149.82 72.0424 149.445 72.1576 148.984 72.3304C145.932 73.4248 143.8 74.5768 142.591 75.7864C141.439 76.9384 140.863 78.004 140.863 78.9832C140.863 80.4808 141.295 81.6328 142.159 82.4392C143.08 83.188 144.06 83.5624 145.096 83.5624ZM164.918 86.7592C164.399 86.7592 163.967 86.6728 163.622 86.5C163.334 86.3848 163.19 86.1544 163.19 85.8088C163.19 85.348 163.363 85.06 163.708 84.9448C164.054 84.772 164.543 84.5992 165.177 84.4264C166.041 84.196 166.876 83.8792 167.683 83.476C168.489 83.0728 168.892 82.2952 168.892 81.1432V62.5672C168.892 61.012 168.719 59.6872 168.374 58.5928C168.086 57.4984 167.193 56.7496 165.695 56.3464C165.465 56.2312 165.263 56.116 165.091 56.0008C164.918 55.828 164.831 55.5688 164.831 55.2232C164.831 54.5896 165.091 54.244 165.609 54.1864C167.625 53.668 169.267 53.0344 170.534 52.2856C171.801 51.5368 173.039 50.7016 174.249 49.78C174.422 49.6648 174.566 49.5784 174.681 49.5208C174.854 49.4056 175.027 49.348 175.199 49.348C175.315 49.348 175.401 49.4056 175.459 49.5208C175.574 49.636 175.631 49.78 175.631 49.9528C175.631 50.356 175.545 51.1912 175.372 52.4584C175.257 53.668 175.199 54.676 175.199 55.4824C175.199 55.7128 175.199 55.9432 175.199 56.1736C175.257 56.3464 175.315 56.4616 175.372 56.5192C177.388 54.6184 179.519 53.1784 181.766 52.1992C184.07 51.22 186.575 50.7304 189.283 50.7304C192.105 50.7304 194.438 51.8824 196.281 54.1864C198.124 56.4904 199.046 59.3416 199.046 62.74V81.1432C199.046 82.2952 199.449 83.0728 200.255 83.476C201.062 83.8216 201.897 84.1384 202.761 84.4264C203.222 84.5992 203.654 84.8008 204.057 85.0312C204.518 85.204 204.748 85.5208 204.748 85.9816C204.748 86.3272 204.547 86.5288 204.143 86.5864C203.74 86.7016 203.366 86.7592 203.02 86.7592C201.868 86.7592 200.975 86.7016 200.342 86.5864C199.708 86.5288 199.103 86.4712 198.527 86.4136C197.951 86.356 197.145 86.3272 196.108 86.3272C195.129 86.3272 194.323 86.356 193.689 86.4136C193.055 86.4712 192.393 86.5288 191.702 86.5864C191.068 86.7016 190.175 86.7592 189.023 86.7592C188.735 86.7592 188.361 86.7016 187.9 86.5864C187.497 86.5288 187.295 86.3272 187.295 85.9816C187.295 85.5208 187.497 85.204 187.9 85.0312C188.361 84.8008 188.822 84.5992 189.283 84.4264C190.147 84.1384 190.982 83.8216 191.788 83.476C192.595 83.0728 192.998 82.2952 192.998 81.1432V62.9992C192.998 60.4648 192.278 58.5064 190.838 57.124C189.455 55.684 187.583 54.9352 185.222 54.8776C183.148 54.8776 181.334 55.2232 179.779 55.9144C178.223 56.548 176.841 57.3544 175.631 58.3336C175.401 58.564 175.228 58.8808 175.113 59.284C174.998 59.6296 174.94 59.9752 174.94 60.3208V81.1432C174.94 82.2952 175.343 83.0728 176.15 83.476C176.956 83.8792 177.791 84.196 178.655 84.4264C179.98 84.772 180.643 85.2328 180.643 85.8088C180.643 86.1544 180.499 86.3848 180.211 86.5C179.923 86.6728 179.491 86.7592 178.915 86.7592C177.763 86.7592 176.841 86.7016 176.15 86.5864C175.516 86.5288 174.911 86.4712 174.335 86.4136C173.759 86.356 172.953 86.3272 171.916 86.3272C170.937 86.3272 170.131 86.356 169.497 86.4136C168.921 86.4712 168.287 86.5288 167.596 86.5864C166.963 86.7016 166.07 86.7592 164.918 86.7592ZM212.552 87.7096C211.515 87.7096 210.45 87.3064 209.355 86.5C208.318 85.6936 207.426 84.7144 206.677 83.5624C205.986 82.4104 205.64 81.316 205.64 80.2792C205.64 78.436 206.13 76.996 207.109 75.9592C208.088 74.9224 209.643 73.972 211.774 73.108L220.587 69.4792C221.739 69.0184 222.402 68.6152 222.574 68.2696C222.805 67.924 222.949 67.1752 223.006 66.0232L223.179 60.4936C223.237 58.996 222.805 57.7 221.883 56.6056C221.019 55.5112 219.752 54.964 218.082 54.964C217.218 54.964 216.354 55.108 215.49 55.396C214.626 55.684 213.906 56.0584 213.33 56.5192C212.984 56.7496 212.754 57.0952 212.638 57.556C212.523 58.0168 212.466 58.5064 212.466 59.0248C212.466 59.2552 212.466 59.5144 212.466 59.8024C212.523 60.0904 212.552 60.3496 212.552 60.58C212.552 60.868 212.178 61.2712 211.429 61.7896C210.738 62.2504 209.931 62.6824 209.01 63.0856C208.146 63.4312 207.426 63.604 206.85 63.604C206.562 63.604 206.331 63.5464 206.158 63.4312C205.986 63.2584 205.899 63.0568 205.899 62.8264C205.899 61.9048 206.187 60.9256 206.763 59.8888C207.397 58.7944 208.261 57.7864 209.355 56.8648C210.68 55.6552 212.12 54.5896 213.675 53.668C215.23 52.7464 216.757 52.0264 218.254 51.508C219.752 50.9896 221.077 50.7304 222.229 50.7304C224.302 50.7304 226.002 51.4792 227.326 52.9768C228.709 54.4168 229.371 56.2312 229.314 58.42L228.882 79.156C228.824 80.3656 229.083 81.3448 229.659 82.0936C230.293 82.8424 231.07 83.2168 231.992 83.2168C233.432 83.2168 234.498 82.9 235.189 82.2664C235.477 81.9784 235.707 81.8344 235.88 81.8344C236.168 81.8344 236.398 81.9208 236.571 82.0936C236.744 82.2664 236.83 82.4968 236.83 82.7848C236.83 83.4184 236.514 84.052 235.88 84.6856C234.958 85.6072 233.95 86.3272 232.856 86.8456C231.819 87.4216 230.84 87.7096 229.918 87.7096C227.269 87.7096 225.166 86.212 223.611 83.2168H223.352C221.451 84.772 219.637 85.8952 217.909 86.5864C216.181 87.3352 214.395 87.7096 212.552 87.7096ZM216.613 83.5624C217.765 83.5624 218.744 83.3896 219.55 83.044C220.357 82.6408 221.077 82.1224 221.71 81.4888C221.998 81.2008 222.229 80.8264 222.402 80.3656C222.632 79.8472 222.776 79.0408 222.834 77.9464L223.006 73.7128C223.064 73.0792 223.035 72.6184 222.92 72.3304C222.805 72.0424 222.574 71.8984 222.229 71.8984C222.114 71.8984 221.912 71.9272 221.624 71.9848C221.336 72.0424 220.962 72.1576 220.501 72.3304C217.448 73.4248 215.317 74.5768 214.107 75.7864C212.955 76.9384 212.379 78.004 212.379 78.9832C212.379 80.4808 212.811 81.6328 213.675 82.4392C214.597 83.188 215.576 83.5624 216.613 83.5624ZM249.481 111.556C244.585 111.556 240.697 110.606 237.817 108.705C234.994 106.862 233.583 104.356 233.583 101.188C233.583 99.6904 233.813 98.4232 234.274 97.3864C234.735 96.3496 235.455 95.4568 236.434 94.708C237.241 94.0168 238.306 93.124 239.631 92.0296C241.013 90.9928 242.425 89.8984 243.865 88.7464L247.493 88.9192C244.729 90.7048 242.799 92.404 241.705 94.0168C240.61 95.6296 240.063 97.588 240.063 99.892C240.063 102.196 241.071 104.126 243.087 105.681C245.161 107.294 247.695 108.1 250.69 108.1C254.089 108.1 256.825 107.322 258.898 105.767C260.338 104.673 261.461 103.233 262.268 101.447C263.074 99.7192 263.477 97.876 263.477 95.9176C263.477 94.6504 263.017 93.5848 262.095 92.7208C261.231 91.9144 259.849 91.252 257.948 90.7336C256.047 90.2152 253.57 89.8696 250.517 89.6968C245.103 89.2936 241.33 88.5736 239.199 87.5368C237.125 86.5 236.089 84.8872 236.089 82.6984C236.089 82.1224 236.233 81.604 236.521 81.1432C236.866 80.6248 237.385 80.0776 238.076 79.5016C239.401 78.4648 240.38 77.716 241.013 77.2552C241.647 76.7368 242.108 76.3048 242.396 75.9592C242.741 75.6136 243.058 75.1816 243.346 74.6632L246.284 76.132C245.017 76.5928 243.951 77.2264 243.087 78.0328C242.223 78.7816 241.791 79.4728 241.791 80.1064C241.791 80.9128 242.223 81.6328 243.087 82.2664C243.951 82.8424 245.218 83.3032 246.889 83.6488C248.559 83.9944 250.604 84.2536 253.023 84.4264C258.322 84.7144 262.268 85.5784 264.86 87.0184C267.452 88.4584 268.748 90.5032 268.748 93.1528C268.748 95.3992 268.172 97.588 267.02 99.7192C265.925 101.908 264.457 103.895 262.613 105.681C260.77 107.466 258.697 108.878 256.393 109.914C254.146 111.009 251.842 111.556 249.481 111.556ZM250.517 74.3176C252.706 74.3176 254.521 73.2232 255.961 71.0344C257.401 68.788 258.121 66.0232 258.121 62.74C258.121 61.0696 257.717 59.5144 256.911 58.0744C256.162 56.5768 255.154 55.396 253.887 54.532C252.677 53.6104 251.353 53.1496 249.913 53.1496C248.588 53.1496 247.321 53.6392 246.111 54.6184C244.959 55.54 244.009 56.7496 243.26 58.2472C242.569 59.7448 242.223 61.3864 242.223 63.172C242.223 65.188 242.597 67.06 243.346 68.788C244.095 70.4584 245.103 71.812 246.37 72.8488C247.637 73.828 249.02 74.3176 250.517 74.3176ZM249.999 77.3416C247.637 77.3416 245.391 76.7368 243.26 75.5272C241.129 74.3176 239.372 72.7336 237.989 70.7752C236.665 68.7592 236.002 66.5704 236.002 64.2088C236.002 61.5016 236.693 59.14 238.076 57.124C239.516 55.0504 241.388 53.4376 243.692 52.2856C245.996 51.1336 248.444 50.5576 251.036 50.5576C252.706 50.5576 254.146 50.788 255.356 51.2488C256.623 51.652 257.861 52.0264 259.071 52.372C260.453 52.7752 261.548 53.0344 262.354 53.1496C263.161 53.2072 263.996 53.236 264.86 53.236C265.551 53.236 266.415 53.2072 267.452 53.1496C268.489 53.0344 269.209 52.9768 269.612 52.9768C270.361 52.9768 270.735 53.4088 270.735 54.2728C270.735 54.7912 270.447 55.3384 269.871 55.9144C269.583 56.2024 269.353 56.3464 269.18 56.3464H266.847C265.292 56.3464 264.428 56.5768 264.255 57.0376C264.197 57.268 264.111 57.6136 263.996 58.0744C263.938 58.4776 263.881 58.9384 263.823 59.4568C263.765 59.9752 263.737 60.4936 263.737 61.012C263.737 63.9496 263.103 66.6568 261.836 69.1336C260.569 71.6104 258.898 73.5976 256.825 75.0952C254.751 76.5928 252.476 77.3416 249.999 77.3416ZM284.263 87.796C281.095 87.796 278.33 87.0184 275.968 85.4632C273.607 83.908 271.763 81.7192 270.439 78.8968C269.114 76.0168 268.451 72.7048 268.451 68.9608C268.451 65.62 269.2 62.596 270.698 59.8888C272.253 57.124 274.298 54.9064 276.832 53.236C279.367 51.5656 282.131 50.7304 285.127 50.7304C287.431 50.7304 289.475 51.1912 291.261 52.1128C293.047 53.0344 294.429 54.3304 295.408 56.0008C296.445 57.6136 296.963 59.4856 296.963 61.6168C296.963 63.4024 296.099 64.2952 294.371 64.2952H276.141C275.335 64.2952 274.759 64.5256 274.413 64.9864C274.125 65.3896 273.981 66.2248 273.981 67.492C273.981 70.2568 274.586 72.7912 275.795 75.0952C277.005 77.3416 278.618 79.156 280.634 80.5384C282.65 81.8632 284.867 82.5256 287.287 82.5256C289.015 82.5256 290.57 82.2088 291.952 81.5752C293.392 80.884 294.659 79.9048 295.754 78.6376C295.984 78.3496 296.157 78.1768 296.272 78.1192C296.387 78.004 296.531 77.9464 296.704 77.9464C297.165 77.9464 297.395 78.2344 297.395 78.8104C297.395 79.9048 296.877 81.1144 295.84 82.4392C294.976 83.5336 293.939 84.484 292.73 85.2904C291.52 86.0968 290.195 86.7016 288.755 87.1048C287.315 87.5656 285.818 87.796 284.263 87.796ZM276.314 61.6168H284.176C285.559 61.6168 286.739 61.588 287.719 61.5304C288.698 61.4728 289.648 61.3576 290.57 61.1848C290.858 61.1272 291.031 60.9544 291.088 60.6664C291.203 60.3208 291.261 59.86 291.261 59.284C291.261 57.6136 290.512 56.2024 289.015 55.0504C287.575 53.8408 285.847 53.236 283.831 53.236C282.506 53.236 281.181 53.6392 279.856 54.4456C278.531 55.1944 277.437 56.1448 276.573 57.2968C275.709 58.4488 275.277 59.6008 275.277 60.7528C275.277 61.3288 275.623 61.6168 276.314 61.6168ZM313.711 111.124C312.617 111.124 311.609 110.836 310.687 110.26C309.766 109.742 309.305 108.849 309.305 107.582C309.305 106.545 309.535 105.623 309.996 104.817C310.515 104.068 311.235 103.694 312.156 103.694C312.79 103.694 313.395 103.78 313.971 103.953C314.604 104.126 315.151 104.212 315.612 104.212C315.958 104.212 316.246 104.126 316.476 103.953C316.764 103.838 317.023 103.607 317.254 103.262C317.887 102.225 318.607 100.929 319.414 99.3736C320.278 97.8184 321.142 96.0616 322.006 94.1032C322.927 92.1448 323.791 90.0712 324.598 87.8824C324.771 87.364 324.857 86.7016 324.857 85.8952C324.857 85.4344 324.828 85.0024 324.771 84.5992C324.713 84.1384 324.627 83.7352 324.511 83.3896L314.489 58.0744C314.086 57.0376 313.539 56.1448 312.847 55.396C312.214 54.5896 311.465 54.0712 310.601 53.8408C310.14 53.668 309.679 53.4664 309.219 53.236C308.815 53.0056 308.614 52.6888 308.614 52.2856C308.614 51.94 308.815 51.7384 309.219 51.6808C309.679 51.5656 310.054 51.508 310.342 51.508C311.494 51.508 312.329 51.5368 312.847 51.5944C313.423 51.652 313.942 51.7384 314.403 51.8536C314.921 51.9112 315.67 51.94 316.649 51.94C317.686 51.94 318.463 51.9112 318.982 51.8536C319.5 51.7384 320.047 51.652 320.623 51.5944C321.199 51.5368 322.063 51.508 323.215 51.508C323.561 51.508 323.935 51.5944 324.339 51.7672C324.742 51.8824 324.943 52.1128 324.943 52.4584C324.943 52.8616 324.627 53.2648 323.993 53.668C323.417 54.0136 322.899 54.244 322.438 54.3592C321.862 54.532 321.43 54.8488 321.142 55.3096C320.854 55.7128 320.71 56.3176 320.71 57.124C320.71 57.4696 320.796 57.9016 320.969 58.42C321.142 58.8808 321.286 59.2552 321.401 59.5432L328.399 76.8232C328.515 77.1688 328.687 77.3416 328.918 77.3416C329.091 77.3416 329.235 77.1688 329.35 76.8232L335.311 61.012C335.484 60.6088 335.628 60.0904 335.743 59.4568C335.916 58.7656 336.003 58.2184 336.003 57.8152C336.003 56.7208 335.83 55.972 335.484 55.5688C335.196 55.108 334.793 54.7624 334.275 54.532C333.814 54.3016 333.267 54.0136 332.633 53.668C332.057 53.2648 331.769 52.8616 331.769 52.4584C331.769 52.1128 331.971 51.8824 332.374 51.7672C332.835 51.5944 333.209 51.508 333.497 51.508C334.303 51.508 335.11 51.5944 335.916 51.7672C336.78 51.8824 338.019 51.94 339.631 51.94C340.726 51.94 341.503 51.9112 341.964 51.8536C342.483 51.7384 342.915 51.652 343.26 51.5944C343.606 51.5368 344.095 51.508 344.729 51.508C345.017 51.508 345.363 51.5656 345.766 51.6808C346.227 51.7384 346.457 51.94 346.457 52.2856C346.457 52.6888 346.227 53.0056 345.766 53.236C345.363 53.4664 344.931 53.668 344.47 53.8408C343.606 54.0712 342.684 54.7624 341.705 55.9144C340.726 57.0088 339.948 58.2472 339.372 59.6296L327.622 87.6232C327.564 87.796 327.247 88.5448 326.671 89.8696C326.153 91.1944 325.491 92.836 324.684 94.7944C323.878 96.7528 322.985 98.8552 322.006 101.102C321.084 103.348 320.191 105.508 319.327 107.582C318.809 108.734 318.06 109.598 317.081 110.174C316.102 110.807 314.979 111.124 313.711 111.124ZM359.77 87.7096C356.545 87.7096 353.636 86.9608 351.044 85.4632C348.452 83.9656 346.378 81.9208 344.823 79.3288C343.325 76.6792 342.577 73.684 342.577 70.3432C342.577 67.924 343.037 65.5624 343.959 63.2584C344.938 60.9544 346.292 58.852 348.02 56.9512C349.748 55.0504 351.764 53.5528 354.068 52.4584C356.372 51.3064 358.849 50.7304 361.498 50.7304C364.839 50.7304 367.834 51.5368 370.484 53.1496C373.191 54.7624 375.322 56.8936 376.877 59.5432C378.49 62.1352 379.297 64.9864 379.297 68.0968C379.297 71.4376 378.548 74.6056 377.05 77.6008C375.61 80.596 373.45 83.044 370.57 84.9448C367.69 86.788 364.09 87.7096 359.77 87.7096ZM361.585 85.1176C363.543 85.1176 365.3 84.7432 366.855 83.9944C368.41 83.2456 369.62 82.036 370.484 80.3656C371.175 79.0408 371.636 77.428 371.866 75.5272C372.097 73.6264 372.212 71.8408 372.212 70.1704C372.212 67.4056 371.693 64.756 370.657 62.2216C369.677 59.6296 368.266 57.5272 366.423 55.9144C364.637 54.244 362.506 53.4088 360.029 53.4088C358.474 53.4088 357.063 53.668 355.796 54.1864C354.586 54.6472 353.463 55.54 352.426 56.8648C351.274 58.3048 350.525 60.0616 350.18 62.1352C349.834 64.2088 349.661 66.2824 349.661 68.356C349.661 71.1784 350.18 73.8856 351.217 76.4776C352.253 79.012 353.665 81.0856 355.45 82.6984C357.236 84.3112 359.281 85.1176 361.585 85.1176ZM409.633 88.1416C409.23 88.1416 409.028 87.9112 409.028 87.4504C409.028 86.8744 409.086 86.0392 409.201 84.9448C409.374 83.7928 409.46 82.8424 409.46 82.0936C409.46 81.9784 409.46 81.892 409.46 81.8344C409.46 81.7192 409.46 81.6328 409.46 81.5752C407.214 83.764 404.939 85.348 402.635 86.3272C400.388 87.2488 397.911 87.7096 395.204 87.7096C393.361 87.7096 391.691 87.3064 390.193 86.5C388.695 85.7512 387.515 84.628 386.651 83.1304C385.787 81.5752 385.355 79.6744 385.355 77.428V59.8888C385.355 58.6216 385.067 57.6136 384.491 56.8648C383.915 56.116 382.964 55.4824 381.639 54.964C381.351 54.8488 381.092 54.7048 380.862 54.532C380.631 54.3592 380.516 54.0424 380.516 53.5816C380.516 53.0632 380.631 52.7176 380.862 52.5448C381.15 52.372 381.467 52.2568 381.812 52.1992C383.771 52.084 385.268 51.94 386.305 51.7672C387.399 51.5368 388.753 51.22 390.366 50.8168C390.539 50.7592 390.654 50.7304 390.711 50.7304C390.827 50.7304 390.942 50.7304 391.057 50.7304C391.691 50.7304 391.979 51.1336 391.921 51.94C391.748 53.2648 391.604 54.388 391.489 55.3096C391.431 56.1736 391.403 57.268 391.403 58.5928V75.4408C391.403 76.8232 391.748 78.1192 392.439 79.3288C393.131 80.4808 394.023 81.4312 395.118 82.18C396.27 82.9288 397.451 83.3032 398.66 83.3032C400.158 83.3032 401.454 83.2168 402.548 83.044C403.7 82.8712 404.823 82.3816 405.918 81.5752C406.551 81.1144 407.358 80.3656 408.337 79.3288C409.316 78.292 409.806 76.8808 409.806 75.0952V59.284C409.806 58.0744 409.431 57.1816 408.683 56.6056C407.991 55.972 407.185 55.54 406.263 55.3096C405.342 55.0792 404.593 54.964 404.017 54.964C403.499 54.964 403.067 54.8776 402.721 54.7048C402.375 54.4744 402.203 54.0712 402.203 53.4952C402.203 52.9768 402.375 52.6312 402.721 52.4584C403.124 52.2856 403.556 52.1992 404.017 52.1992C405.803 52.1416 407.271 52.084 408.423 52.0264C409.633 51.9112 410.699 51.7672 411.62 51.5944C412.599 51.364 413.607 51.1048 414.644 50.8168C414.759 50.7592 414.903 50.7304 415.076 50.7304C415.249 50.6728 415.393 50.644 415.508 50.644C416.257 50.644 416.631 50.9608 416.631 51.5944C416.631 51.652 416.603 51.7672 416.545 51.94C416.545 52.0552 416.516 52.1992 416.459 52.372C416.401 52.5448 416.315 53.0344 416.199 53.8408C416.142 54.6472 416.055 55.4824 415.94 56.3464C415.883 57.2104 415.854 57.8728 415.854 58.3336V78.292C415.854 79.8472 415.998 80.9704 416.286 81.6616C416.631 82.2952 417.006 82.612 417.409 82.612C417.87 82.612 418.532 82.5832 419.396 82.5256C420.318 82.4104 420.98 82.3528 421.383 82.3528C421.671 82.3528 421.959 82.4104 422.247 82.5256C422.535 82.6408 422.679 82.9576 422.679 83.476C422.679 83.9368 422.564 84.2536 422.334 84.4264C422.103 84.5416 421.815 84.628 421.47 84.6856C419.223 84.9736 417.294 85.4056 415.681 85.9816C414.068 86.5576 412.628 87.1048 411.361 87.6232C411.188 87.6808 410.929 87.7672 410.583 87.8824C410.238 88.0552 409.921 88.1416 409.633 88.1416ZM423.487 86.7592C422.911 86.7592 422.479 86.6728 422.191 86.5C421.903 86.3848 421.759 86.1544 421.759 85.8088C421.759 85.348 421.932 85.06 422.277 84.9448C422.623 84.772 423.112 84.5992 423.746 84.4264C424.84 84.1384 425.647 83.7352 426.165 83.2168C426.741 82.6408 427.029 81.9496 427.029 81.1432V62.5672C427.029 61.012 426.799 59.6584 426.338 58.5064C425.877 57.3544 424.927 56.6344 423.487 56.3464C423.256 56.2888 423.055 56.1448 422.882 55.9144C422.709 55.684 422.623 55.4536 422.623 55.2232C422.623 54.6472 422.882 54.3016 423.4 54.1864C424.898 53.7256 426.453 53.0632 428.066 52.1992C429.736 51.2776 431.032 50.5288 431.954 49.9528C432.3 49.7224 432.559 49.5784 432.732 49.5208C432.962 49.4056 433.135 49.348 433.25 49.348C433.538 49.348 433.682 49.5496 433.682 49.9528C433.682 50.1256 433.653 50.5576 433.596 51.2488C433.596 51.94 433.567 52.7464 433.509 53.668C433.509 54.5896 433.48 55.5112 433.423 56.4328C433.423 56.548 433.48 56.6056 433.596 56.6056C434.517 55.4536 435.525 54.4456 436.62 53.5816C437.772 52.7176 438.924 52.0264 440.076 51.508C441.285 50.9896 442.437 50.7304 443.532 50.7304C444.741 50.7304 445.72 50.9896 446.469 51.508C447.276 52.0264 447.679 52.6888 447.679 53.4952C447.679 54.0712 447.506 54.7048 447.16 55.396C446.872 56.0872 446.469 56.692 445.951 57.2104C445.432 57.7288 444.885 57.988 444.309 57.988C443.964 57.988 443.589 57.9304 443.186 57.8152C442.783 57.6424 442.351 57.4408 441.89 57.2104C441.429 57.0376 440.968 56.8648 440.508 56.692C440.047 56.5192 439.586 56.4328 439.125 56.4328C437.743 56.4328 436.389 56.9224 435.064 57.9016C433.797 58.8808 433.164 60.8104 433.164 63.6904V81.1432C433.164 81.892 433.567 82.5256 434.373 83.044C435.18 83.5048 436.303 83.9656 437.743 84.4264C438.376 84.5992 438.866 84.772 439.212 84.9448C439.557 85.1176 439.73 85.4056 439.73 85.8088C439.73 86.4424 439.154 86.7592 438.002 86.7592C436.274 86.7592 434.949 86.6728 434.028 86.5C433.164 86.3848 431.983 86.3272 430.485 86.3272C429.506 86.3272 428.7 86.356 428.066 86.4136C427.49 86.4712 426.856 86.5288 426.165 86.5864C425.532 86.7016 424.639 86.7592 423.487 86.7592ZM475.169 87.796C472.289 87.796 469.669 87.076 467.307 85.636C465.003 84.1384 463.16 82.1224 461.777 79.588C460.453 76.996 459.79 74.116 459.79 70.948C459.79 67.204 460.597 63.8056 462.209 60.7528C463.88 57.7 466.097 55.2808 468.862 53.4952C471.627 51.652 474.68 50.7304 478.021 50.7304C481.765 50.7304 485.048 51.7384 487.87 53.7544C488.561 54.2728 488.907 54.82 488.907 55.396C488.907 55.8568 488.705 56.3752 488.302 56.9512C487.899 57.5272 487.409 58.0168 486.833 58.42C486.257 58.7656 485.71 58.9384 485.192 58.9384C484.904 58.9384 484.616 58.852 484.328 58.6792C484.04 58.4488 483.723 58.2184 483.377 57.988C482.11 57.0088 480.699 56.0872 479.144 55.2232C477.589 54.3592 476.293 53.9272 475.256 53.9272C472.433 53.9272 470.129 55.252 468.344 57.9016C466.616 60.4936 465.752 63.9208 465.752 68.1832C465.752 70.8904 466.328 73.3384 467.48 75.5272C468.689 77.716 470.273 79.444 472.232 80.7112C474.248 81.9784 476.465 82.612 478.885 82.612C480.555 82.612 481.995 82.3528 483.205 81.8344C484.414 81.2584 485.71 80.2792 487.093 78.8968C487.208 78.7816 487.352 78.6952 487.525 78.6376C487.697 78.5224 487.841 78.4648 487.957 78.4648C488.59 78.4648 488.907 78.868 488.907 79.6744C488.907 80.02 488.792 80.4232 488.561 80.884C488.389 81.2872 488.072 81.7768 487.611 82.3528C486.689 83.5048 485.595 84.5128 484.328 85.3768C483.061 86.1832 481.649 86.788 480.094 87.1912C478.597 87.5944 476.955 87.796 475.169 87.796ZM506.161 87.7096C502.935 87.7096 500.026 86.9608 497.434 85.4632C494.842 83.9656 492.769 81.9208 491.214 79.3288C489.716 76.6792 488.967 73.684 488.967 70.3432C488.967 67.924 489.428 65.5624 490.35 63.2584C491.329 60.9544 492.682 58.852 494.41 56.9512C496.138 55.0504 498.154 53.5528 500.458 52.4584C502.762 51.3064 505.239 50.7304 507.889 50.7304C511.23 50.7304 514.225 51.5368 516.874 53.1496C519.582 54.7624 521.713 56.8936 523.268 59.5432C524.881 62.1352 525.687 64.9864 525.687 68.0968C525.687 71.4376 524.938 74.6056 523.441 77.6008C522.001 80.596 519.841 83.044 516.961 84.9448C514.081 86.788 510.481 87.7096 506.161 87.7096ZM507.975 85.1176C509.934 85.1176 511.69 84.7432 513.246 83.9944C514.801 83.2456 516.01 82.036 516.874 80.3656C517.566 79.0408 518.026 77.428 518.257 75.5272C518.487 73.6264 518.602 71.8408 518.602 70.1704C518.602 67.4056 518.084 64.756 517.047 62.2216C516.068 59.6296 514.657 57.5272 512.814 55.9144C511.028 54.244 508.897 53.4088 506.42 53.4088C504.865 53.4088 503.454 53.668 502.186 54.1864C500.977 54.6472 499.854 55.54 498.817 56.8648C497.665 58.3048 496.916 60.0616 496.57 62.1352C496.225 64.2088 496.052 66.2824 496.052 68.356C496.052 71.1784 496.57 73.8856 497.607 76.4776C498.644 79.012 500.055 81.0856 501.841 82.6984C503.626 84.3112 505.671 85.1176 507.975 85.1176ZM528.203 86.7592C527.684 86.7592 527.252 86.6728 526.907 86.5C526.619 86.3848 526.475 86.1544 526.475 85.8088C526.475 85.348 526.648 85.06 526.993 84.9448C527.339 84.772 527.828 84.5992 528.462 84.4264C529.326 84.196 530.161 83.8792 530.968 83.476C531.774 83.0728 532.177 82.2952 532.177 81.1432V62.5672C532.177 61.012 532.004 59.6872 531.659 58.5928C531.371 57.4984 530.478 56.7496 528.98 56.3464C528.75 56.2312 528.548 56.116 528.376 56.0008C528.203 55.828 528.116 55.5688 528.116 55.2232C528.116 54.5896 528.376 54.244 528.894 54.1864C530.91 53.668 532.552 53.0344 533.819 52.2856C535.086 51.5368 536.324 50.7016 537.534 49.78C537.707 49.6648 537.851 49.5784 537.966 49.5208C538.139 49.4056 538.312 49.348 538.484 49.348C538.6 49.348 538.686 49.4056 538.744 49.5208C538.859 49.636 538.916 49.78 538.916 49.9528C538.916 50.356 538.83 51.1912 538.657 52.4584C538.542 53.668 538.484 54.676 538.484 55.4824C538.484 55.7128 538.484 55.9432 538.484 56.1736C538.542 56.3464 538.6 56.4616 538.657 56.5192C540.673 54.6184 542.804 53.1784 545.051 52.1992C547.355 51.22 549.86 50.7304 552.568 50.7304C555.39 50.7304 557.723 51.8824 559.566 54.1864C561.409 56.4904 562.331 59.3416 562.331 62.74V81.1432C562.331 82.2952 562.734 83.0728 563.54 83.476C564.347 83.8216 565.182 84.1384 566.046 84.4264C566.507 84.5992 566.939 84.8008 567.342 85.0312C567.803 85.204 568.033 85.5208 568.033 85.9816C568.033 86.3272 567.832 86.5288 567.428 86.5864C567.025 86.7016 566.651 86.7592 566.305 86.7592C565.153 86.7592 564.26 86.7016 563.627 86.5864C562.993 86.5288 562.388 86.4712 561.812 86.4136C561.236 86.356 560.43 86.3272 559.393 86.3272C558.414 86.3272 557.608 86.356 556.974 86.4136C556.34 86.4712 555.678 86.5288 554.987 86.5864C554.353 86.7016 553.46 86.7592 552.308 86.7592C552.02 86.7592 551.646 86.7016 551.185 86.5864C550.782 86.5288 550.58 86.3272 550.58 85.9816C550.58 85.5208 550.782 85.204 551.185 85.0312C551.646 84.8008 552.107 84.5992 552.568 84.4264C553.432 84.1384 554.267 83.8216 555.073 83.476C555.88 83.0728 556.283 82.2952 556.283 81.1432V62.9992C556.283 60.4648 555.563 58.5064 554.123 57.124C552.74 55.684 550.868 54.9352 548.507 54.8776C546.433 54.8776 544.619 55.2232 543.064 55.9144C541.508 56.548 540.126 57.3544 538.916 58.3336C538.686 58.564 538.513 58.8808 538.398 59.284C538.283 59.6296 538.225 59.9752 538.225 60.3208V81.1432C538.225 82.2952 538.628 83.0728 539.435 83.476C540.241 83.8792 541.076 84.196 541.94 84.4264C543.265 84.772 543.928 85.2328 543.928 85.8088C543.928 86.1544 543.784 86.3848 543.496 86.5C543.208 86.6728 542.776 86.7592 542.2 86.7592C541.048 86.7592 540.126 86.7016 539.435 86.5864C538.801 86.5288 538.196 86.4712 537.62 86.4136C537.044 86.356 536.238 86.3272 535.201 86.3272C534.222 86.3272 533.416 86.356 532.782 86.4136C532.206 86.4712 531.572 86.5288 530.881 86.5864C530.248 86.7016 529.355 86.7592 528.203 86.7592ZM582.058 87.7096C579.235 87.7096 577.018 86.8456 575.405 85.1176C573.85 83.3896 573.072 80.8264 573.072 77.428V57.3832C573.072 56.9224 572.899 56.6056 572.554 56.4328C572.208 56.2024 571.459 56.0872 570.307 56.0872H569.789C569.501 56.0872 569.242 55.9144 569.011 55.5688C568.839 55.1656 568.752 54.7624 568.752 54.3592C568.752 54.244 568.839 54.0712 569.011 53.8408C569.184 53.6104 569.299 53.4664 569.357 53.4088C570.509 52.6024 571.546 51.796 572.467 50.9896C573.447 50.1832 574.311 49.4056 575.059 48.6568C575.866 47.8504 576.528 47.1304 577.047 46.4968C577.335 46.2088 577.565 45.9784 577.738 45.8056C577.968 45.5752 578.227 45.46 578.515 45.46C578.803 45.46 579.063 45.5176 579.293 45.6328C579.581 45.748 579.696 46.0072 579.639 46.4104L579.207 50.2984C579.149 50.932 579.293 51.364 579.639 51.5944C579.984 51.8248 580.531 51.94 581.28 51.94H591.13C591.36 51.94 591.562 52.1416 591.735 52.5448C591.907 52.8904 591.994 53.3224 591.994 53.8408C591.994 54.3592 591.907 54.8776 591.735 55.396C591.562 55.8568 591.36 56.0872 591.13 56.0872H582.576C581.136 56.0872 580.186 56.2024 579.725 56.4328C579.322 56.6632 579.12 57.3544 579.12 58.5064V75.5272C579.12 77.8312 579.61 79.6456 580.589 80.9704C581.568 82.2952 582.979 82.9576 584.823 82.9576C586.493 82.9576 587.789 82.8424 588.711 82.612C589.632 82.324 590.467 81.9208 591.216 81.4024C591.331 81.2872 591.447 81.2296 591.562 81.2296C591.792 81.2296 591.936 81.3736 591.994 81.6616C592.109 81.892 592.167 82.1512 592.167 82.4392C592.167 82.7272 591.677 83.3032 590.698 84.1672C589.776 85.0312 588.538 85.8376 586.983 86.5864C585.485 87.3352 583.843 87.7096 582.058 87.7096ZM598.686 87.7096C597.649 87.7096 596.583 87.3064 595.489 86.5C594.452 85.6936 593.559 84.7144 592.811 83.5624C592.119 82.4104 591.774 81.316 591.774 80.2792C591.774 78.436 592.263 76.996 593.243 75.9592C594.222 74.9224 595.777 73.972 597.908 73.108L606.721 69.4792C607.873 69.0184 608.535 68.6152 608.708 68.2696C608.939 67.924 609.083 67.1752 609.14 66.0232L609.313 60.4936C609.371 58.996 608.939 57.7 608.017 56.6056C607.153 55.5112 605.886 54.964 604.215 54.964C603.351 54.964 602.487 55.108 601.623 55.396C600.759 55.684 600.039 56.0584 599.463 56.5192C599.118 56.7496 598.887 57.0952 598.772 57.556C598.657 58.0168 598.599 58.5064 598.599 59.0248C598.599 59.2552 598.599 59.5144 598.599 59.8024C598.657 60.0904 598.686 60.3496 598.686 60.58C598.686 60.868 598.311 61.2712 597.563 61.7896C596.871 62.2504 596.065 62.6824 595.143 63.0856C594.279 63.4312 593.559 63.604 592.983 63.604C592.695 63.604 592.465 63.5464 592.292 63.4312C592.119 63.2584 592.033 63.0568 592.033 62.8264C592.033 61.9048 592.321 60.9256 592.897 59.8888C593.531 58.7944 594.395 57.7864 595.489 56.8648C596.814 55.6552 598.254 54.5896 599.809 53.668C601.364 52.7464 602.891 52.0264 604.388 51.508C605.886 50.9896 607.211 50.7304 608.363 50.7304C610.436 50.7304 612.135 51.4792 613.46 52.9768C614.843 54.4168 615.505 56.2312 615.447 58.42L615.015 79.156C614.958 80.3656 615.217 81.3448 615.793 82.0936C616.427 82.8424 617.204 83.2168 618.126 83.2168C619.566 83.2168 620.631 82.9 621.323 82.2664C621.611 81.9784 621.841 81.8344 622.014 81.8344C622.302 81.8344 622.532 81.9208 622.705 82.0936C622.878 82.2664 622.964 82.4968 622.964 82.7848C622.964 83.4184 622.647 84.052 622.014 84.6856C621.092 85.6072 620.084 86.3272 618.99 86.8456C617.953 87.4216 616.974 87.7096 616.052 87.7096C613.403 87.7096 611.3 86.212 609.745 83.2168H609.486C607.585 84.772 605.771 85.8952 604.043 86.5864C602.315 87.3352 600.529 87.7096 598.686 87.7096ZM602.747 83.5624C603.899 83.5624 604.878 83.3896 605.684 83.044C606.491 82.6408 607.211 82.1224 607.844 81.4888C608.132 81.2008 608.363 80.8264 608.535 80.3656C608.766 79.8472 608.91 79.0408 608.967 77.9464L609.14 73.7128C609.198 73.0792 609.169 72.6184 609.054 72.3304C608.939 72.0424 608.708 71.8984 608.363 71.8984C608.247 71.8984 608.046 71.9272 607.758 71.9848C607.47 72.0424 607.095 72.1576 606.635 72.3304C603.582 73.4248 601.451 74.5768 600.241 75.7864C599.089 76.9384 598.513 78.004 598.513 78.9832C598.513 80.4808 598.945 81.6328 599.809 82.4392C600.731 83.188 601.71 83.5624 602.747 83.5624ZM637.169 87.796C634.289 87.796 631.669 87.076 629.307 85.636C627.003 84.1384 625.16 82.1224 623.777 79.588C622.453 76.996 621.79 74.116 621.79 70.948C621.79 67.204 622.597 63.8056 624.209 60.7528C625.88 57.7 628.097 55.2808 630.862 53.4952C633.627 51.652 636.68 50.7304 640.021 50.7304C643.765 50.7304 647.048 51.7384 649.87 53.7544C650.561 54.2728 650.907 54.82 650.907 55.396C650.907 55.8568 650.705 56.3752 650.302 56.9512C649.899 57.5272 649.409 58.0168 648.833 58.42C648.257 58.7656 647.71 58.9384 647.192 58.9384C646.904 58.9384 646.616 58.852 646.328 58.6792C646.04 58.4488 645.723 58.2184 645.377 57.988C644.11 57.0088 642.699 56.0872 641.144 55.2232C639.589 54.3592 638.293 53.9272 637.256 53.9272C634.433 53.9272 632.129 55.252 630.344 57.9016C628.616 60.4936 627.752 63.9208 627.752 68.1832C627.752 70.8904 628.328 73.3384 629.48 75.5272C630.689 77.716 632.273 79.444 634.232 80.7112C636.248 81.9784 638.465 82.612 640.885 82.612C642.555 82.612 643.995 82.3528 645.205 81.8344C646.414 81.2584 647.71 80.2792 649.093 78.8968C649.208 78.7816 649.352 78.6952 649.525 78.6376C649.697 78.5224 649.841 78.4648 649.957 78.4648C650.59 78.4648 650.907 78.868 650.907 79.6744C650.907 80.02 650.792 80.4232 650.561 80.884C650.389 81.2872 650.072 81.7768 649.611 82.3528C648.689 83.5048 647.595 84.5128 646.328 85.3768C645.061 86.1832 643.649 86.788 642.094 87.1912C640.597 87.5944 638.955 87.796 637.169 87.796ZM665.96 87.7096C663.138 87.7096 660.92 86.8456 659.307 85.1176C657.752 83.3896 656.975 80.8264 656.975 77.428V57.3832C656.975 56.9224 656.802 56.6056 656.456 56.4328C656.111 56.2024 655.362 56.0872 654.21 56.0872H653.691C653.403 56.0872 653.144 55.9144 652.914 55.5688C652.741 55.1656 652.655 54.7624 652.655 54.3592C652.655 54.244 652.741 54.0712 652.914 53.8408C653.087 53.6104 653.202 53.4664 653.259 53.4088C654.411 52.6024 655.448 51.796 656.37 50.9896C657.349 50.1832 658.213 49.4056 658.962 48.6568C659.768 47.8504 660.431 47.1304 660.949 46.4968C661.237 46.2088 661.467 45.9784 661.64 45.8056C661.871 45.5752 662.13 45.46 662.418 45.46C662.706 45.46 662.965 45.5176 663.195 45.6328C663.483 45.748 663.599 46.0072 663.541 46.4104L663.109 50.2984C663.051 50.932 663.195 51.364 663.541 51.5944C663.887 51.8248 664.434 51.94 665.183 51.94H675.032C675.263 51.94 675.464 52.1416 675.637 52.5448C675.81 52.8904 675.896 53.3224 675.896 53.8408C675.896 54.3592 675.81 54.8776 675.637 55.396C675.464 55.8568 675.263 56.0872 675.032 56.0872H666.479C665.039 56.0872 664.088 56.2024 663.627 56.4328C663.224 56.6632 663.023 57.3544 663.023 58.5064V75.5272C663.023 77.8312 663.512 79.6456 664.491 80.9704C665.471 82.2952 666.882 82.9576 668.725 82.9576C670.395 82.9576 671.691 82.8424 672.613 82.612C673.535 82.324 674.37 81.9208 675.119 81.4024C675.234 81.2872 675.349 81.2296 675.464 81.2296C675.695 81.2296 675.839 81.3736 675.896 81.6616C676.011 81.892 676.069 82.1512 676.069 82.4392C676.069 82.7272 675.579 83.3032 674.6 84.1672C673.679 85.0312 672.44 85.8376 670.885 86.5864C669.387 87.3352 667.746 87.7096 665.96 87.7096ZM684.921 87.7096C683.135 87.7096 681.465 87.4216 679.91 86.8456C678.355 86.3272 677.03 85.5784 675.935 84.5992C675.647 83.9656 675.417 82.9 675.244 81.4024C675.129 79.9048 675.043 78.6664 674.985 77.6872C674.985 77.1688 675.359 76.9096 676.108 76.9096C676.339 76.9096 676.54 76.9672 676.713 77.0824C676.943 77.14 677.087 77.284 677.145 77.5144C677.894 80.3368 679.075 82.3528 680.687 83.5624C682.358 84.772 684.028 85.3768 685.699 85.3768C687.369 85.3768 688.78 84.8296 689.932 83.7352C691.142 82.5832 691.747 81.172 691.747 79.5016C691.747 77.9464 691.228 76.6216 690.191 75.5272C689.155 74.3752 687.34 72.9928 684.748 71.38C682.79 70.1704 681.206 69.0184 679.996 67.924C678.787 66.8296 677.894 65.7064 677.318 64.5544C676.799 63.4024 676.54 62.1064 676.54 60.6664C676.54 58.8232 676.972 57.1528 677.836 55.6552C678.7 54.1576 679.996 52.9768 681.724 52.1128C683.452 51.1912 685.612 50.7304 688.204 50.7304C689.932 50.7304 691.372 50.9032 692.524 51.2488C693.676 51.5944 694.54 51.9688 695.116 52.372C695.577 53.0056 695.951 54.0136 696.239 55.396C696.585 56.7208 696.758 57.988 696.758 59.1976C696.758 59.6008 696.47 59.8024 695.894 59.8024C695.548 59.8024 695.203 59.7448 694.857 59.6296C694.569 59.4568 694.367 59.2552 694.252 59.0248C693.503 57.124 692.553 55.684 691.401 54.7048C690.307 53.668 688.924 53.1496 687.254 53.1496C685.814 53.1496 684.518 53.5816 683.366 54.4456C682.271 55.3096 681.724 56.5768 681.724 58.2472C681.724 59.572 682.127 60.7528 682.934 61.7896C683.798 62.8264 685.382 64.0072 687.686 65.332C691.027 67.2328 693.503 69.0184 695.116 70.6888C696.787 72.3016 697.622 74.4616 697.622 77.1688C697.622 80.2792 696.441 82.8136 694.079 84.772C691.718 86.7304 688.665 87.7096 684.921 87.7096ZM728.591 88.4872C728.476 88.4872 728.36 88.4296 728.245 88.3144C728.13 88.1992 728.044 88.0552 727.986 87.8824L715.976 58.0744C715.573 56.9224 714.94 56.0008 714.076 55.3096C713.212 54.5608 712.348 54.0712 711.484 53.8408C711.023 53.668 710.562 53.4664 710.101 53.236C709.698 53.0056 709.496 52.6888 709.496 52.2856C709.496 51.94 709.698 51.7384 710.101 51.6808C710.562 51.5656 710.936 51.508 711.224 51.508C711.973 51.508 712.664 51.5368 713.298 51.5944C713.989 51.652 714.68 51.7384 715.372 51.8536C716.063 51.9112 716.783 51.94 717.532 51.94C718.338 51.94 719.144 51.9112 719.951 51.8536C720.757 51.7384 721.535 51.652 722.284 51.5944C723.09 51.5368 723.896 51.508 724.703 51.508C724.933 51.508 725.279 51.5656 725.74 51.6808C726.2 51.7384 726.431 51.94 726.431 52.2856C726.431 52.6888 726.2 53.0056 725.74 53.236C725.336 53.4664 724.904 53.668 724.444 53.8408C723.868 54.0136 723.407 54.4456 723.061 55.1368C722.773 55.7704 722.629 56.4904 722.629 57.2968C722.629 58.0456 722.773 58.7944 723.061 59.5432L729.8 76.9096C729.858 77.14 730.002 77.2552 730.232 77.2552C730.463 77.2552 730.607 77.14 730.664 76.9096L736.54 62.9128C736.828 62.164 737 61.444 737.058 60.7528C737.173 60.0616 737.231 59.3992 737.231 58.7656C737.231 57.4984 736.741 56.4616 735.762 55.6552C734.783 54.8488 733.804 54.244 732.824 53.8408C732.364 53.668 731.903 53.4664 731.442 53.236C731.039 53.0056 730.837 52.6888 730.837 52.2856C730.837 51.94 731.039 51.7384 731.442 51.6808C731.845 51.5656 732.22 51.508 732.565 51.508C733.372 51.508 734.236 51.5944 735.157 51.7672C736.136 51.8824 737.432 51.94 739.045 51.94C740.658 51.94 742.04 51.8824 743.192 51.7672C744.344 51.5944 745.381 51.508 746.303 51.508C746.591 51.508 746.936 51.5656 747.34 51.6808C747.8 51.7384 748.031 51.94 748.031 52.2856C748.031 52.6888 747.8 53.0056 747.34 53.236C746.936 53.4664 746.504 53.668 746.044 53.8408C745.41 54.0712 744.748 54.388 744.056 54.7912C743.423 55.1944 743.106 55.9144 743.106 56.9512C743.106 57.2968 743.135 57.7 743.192 58.1608C743.308 58.564 743.48 59.0248 743.711 59.5432L750.191 76.2184C750.479 76.852 750.709 77.1688 750.882 77.1688C751.112 77.1688 751.343 76.8808 751.573 76.3048L758.14 61.012C758.37 60.5512 758.514 59.9752 758.572 59.284C758.687 58.5928 758.744 58.0456 758.744 57.6424C758.744 56.6056 758.399 55.7704 757.708 55.1368C757.016 54.5032 756.354 54.0712 755.72 53.8408C755.26 53.668 754.799 53.4664 754.338 53.236C753.935 53.0056 753.733 52.6888 753.733 52.2856C753.733 51.94 753.935 51.7384 754.338 51.6808C754.799 51.5656 755.173 51.508 755.461 51.508C756.728 51.508 757.736 51.5944 758.485 51.7672C759.234 51.8824 760.386 51.94 761.941 51.94C763.036 51.94 763.813 51.9112 764.274 51.8536C764.735 51.7384 765.138 51.652 765.484 51.5944C765.829 51.5368 766.319 51.508 766.952 51.508C767.298 51.508 767.672 51.5656 768.076 51.6808C768.479 51.7384 768.68 51.94 768.68 52.2856C768.68 52.6888 768.45 53.0056 767.989 53.236C767.586 53.4664 767.154 53.668 766.693 53.8408C765.829 54.0712 764.994 54.7624 764.188 55.9144C763.381 57.0088 762.69 58.2184 762.114 59.5432L750.277 87.8824C750.104 88.2856 749.845 88.4872 749.5 88.4872C749.269 88.4872 749.039 88.2856 748.808 87.8824L739.823 65.5912C739.65 65.1304 739.477 64.8712 739.304 64.8136C739.132 64.8136 738.93 65.1016 738.7 65.6776L729.282 87.8824C729.109 88.2856 728.879 88.4872 728.591 88.4872ZM767.693 86.7592C767.174 86.7592 766.742 86.6728 766.397 86.5C766.109 86.3848 765.965 86.1544 765.965 85.8088C765.965 85.348 766.166 85.0312 766.57 84.8584C767.03 84.6856 767.491 84.5416 767.952 84.4264C769.162 84.1384 770.083 83.7928 770.717 83.3896C771.35 82.9288 771.667 82.18 771.667 81.1432V62.3944C771.667 60.8392 771.379 59.4568 770.803 58.2472C770.285 57.0376 769.277 56.3176 767.779 56.0872C767.491 56.0296 767.261 55.9144 767.088 55.7416C766.973 55.5688 766.915 55.3096 766.915 54.964C766.915 54.3304 767.174 53.9848 767.693 53.9272C769.997 53.4088 771.898 52.7176 773.395 51.8536C774.893 50.932 776.016 50.1832 776.765 49.6072C777.283 49.204 777.686 49.0024 777.974 49.0024C778.32 49.0024 778.493 49.1464 778.493 49.4344C778.493 49.8952 778.406 50.8168 778.234 52.1992C778.118 53.524 778.003 55.0216 777.888 56.692C777.773 58.3048 777.715 59.7736 777.715 61.0984V81.1432C777.715 82.1224 778.032 82.8424 778.666 83.3032C779.357 83.764 780.278 84.1384 781.43 84.4264C781.891 84.5416 782.323 84.6856 782.726 84.8584C783.187 85.0312 783.418 85.348 783.418 85.8088C783.418 86.4424 782.842 86.7592 781.69 86.7592C780.595 86.7592 779.702 86.7016 779.011 86.5864C778.378 86.5288 777.744 86.4712 777.11 86.4136C776.534 86.356 775.728 86.3272 774.691 86.3272C773.712 86.3272 772.906 86.356 772.272 86.4136C771.638 86.4712 771.005 86.5288 770.371 86.5864C769.738 86.7016 768.845 86.7592 767.693 86.7592ZM774.605 41.9176C773.395 41.9176 772.358 41.5144 771.494 40.708C770.688 39.844 770.285 38.8072 770.285 37.5976C770.285 36.3304 770.688 35.2936 771.494 34.4872C772.358 33.6232 773.395 33.1912 774.605 33.1912C775.872 33.1912 776.909 33.6232 777.715 34.4872C778.579 35.2936 779.011 36.3304 779.011 37.5976C779.011 38.8072 778.579 39.844 777.715 40.708C776.909 41.5144 775.872 41.9176 774.605 41.9176ZM797.079 87.7096C794.257 87.7096 792.039 86.8456 790.426 85.1176C788.871 83.3896 788.093 80.8264 788.093 77.428V57.3832C788.093 56.9224 787.921 56.6056 787.575 56.4328C787.229 56.2024 786.481 56.0872 785.329 56.0872H784.81C784.522 56.0872 784.263 55.9144 784.033 55.5688C783.86 55.1656 783.773 54.7624 783.773 54.3592C783.773 54.244 783.86 54.0712 784.033 53.8408C784.205 53.6104 784.321 53.4664 784.378 53.4088C785.53 52.6024 786.567 51.796 787.489 50.9896C788.468 50.1832 789.332 49.4056 790.081 48.6568C790.887 47.8504 791.549 47.1304 792.068 46.4968C792.356 46.2088 792.586 45.9784 792.759 45.8056C792.989 45.5752 793.249 45.46 793.537 45.46C793.825 45.46 794.084 45.5176 794.314 45.6328C794.602 45.748 794.717 46.0072 794.66 46.4104L794.228 50.2984C794.17 50.932 794.314 51.364 794.66 51.5944C795.005 51.8248 795.553 51.94 796.301 51.94H806.151C806.381 51.94 806.583 52.1416 806.756 52.5448C806.929 52.8904 807.015 53.3224 807.015 53.8408C807.015 54.3592 806.929 54.8776 806.756 55.396C806.583 55.8568 806.381 56.0872 806.151 56.0872H797.597C796.157 56.0872 795.207 56.2024 794.746 56.4328C794.343 56.6632 794.141 57.3544 794.141 58.5064V75.5272C794.141 77.8312 794.631 79.6456 795.61 80.9704C796.589 82.2952 798.001 82.9576 799.844 82.9576C801.514 82.9576 802.81 82.8424 803.732 82.612C804.653 82.324 805.489 81.9208 806.237 81.4024C806.353 81.2872 806.468 81.2296 806.583 81.2296C806.813 81.2296 806.957 81.3736 807.015 81.6616C807.13 81.892 807.188 82.1512 807.188 82.4392C807.188 82.7272 806.698 83.3032 805.719 84.1672C804.797 85.0312 803.559 85.8376 802.004 86.5864C800.506 87.3352 798.865 87.7096 797.079 87.7096ZM806.968 86.7592C805.816 86.7592 805.24 86.4424 805.24 85.8088C805.24 85.2904 805.902 84.8296 807.227 84.4264C808.091 84.1384 808.897 83.764 809.646 83.3032C810.453 82.8424 810.885 82.036 810.942 80.884V37.5976C810.942 36.0424 810.683 34.6888 810.165 33.5368C809.646 32.3272 808.638 31.6072 807.141 31.3768C806.622 31.2616 806.363 30.8584 806.363 30.1672C806.363 29.6488 806.593 29.3032 807.054 29.1304C807.861 28.8424 808.811 28.5256 809.905 28.18C811.057 27.8344 812.238 27.46 813.448 27.0568C814.657 26.596 815.723 26.164 816.645 25.7608C816.875 25.6456 817.048 25.588 817.163 25.588C817.336 25.588 817.48 25.6456 817.595 25.7608C817.71 25.876 817.768 26.02 817.768 26.1928C817.768 26.5384 817.681 27.028 817.509 27.6616C817.393 28.2952 817.278 29.3896 817.163 30.9448C817.048 32.5 816.99 34.8328 816.99 37.9432V52.9768C816.99 53.8984 817.019 54.5608 817.077 54.964C817.192 55.3672 817.365 55.7704 817.595 56.1736C818.517 55.4824 819.64 54.7336 820.965 53.9272C822.347 53.0632 823.873 52.3144 825.544 51.6808C827.214 51.0472 828.942 50.7304 830.728 50.7304C833.55 50.7304 835.883 51.8536 837.726 54.1C839.627 56.2888 840.577 59.0824 840.577 62.4808V80.6248C840.577 81.7768 840.952 82.6408 841.701 83.2168C842.449 83.7352 843.256 84.1384 844.12 84.4264C844.753 84.5992 845.243 84.8008 845.589 85.0312C845.934 85.204 846.107 85.4632 846.107 85.8088C846.107 86.4424 845.531 86.7592 844.379 86.7592C843.227 86.7592 842.334 86.7016 841.701 86.5864C841.125 86.5288 840.549 86.4712 839.973 86.4136C839.454 86.356 838.677 86.3272 837.64 86.3272C836.661 86.3272 835.883 86.356 835.307 86.4136C834.731 86.4712 834.126 86.5288 833.493 86.5864C832.917 86.7016 832.053 86.7592 830.901 86.7592C829.749 86.7592 829.173 86.4424 829.173 85.8088C829.173 85.4056 829.345 85.1464 829.691 85.0312C830.037 84.8584 830.526 84.6568 831.16 84.4264C832.024 84.1384 832.801 83.7352 833.493 83.2168C834.184 82.6408 834.529 81.7768 834.529 80.6248V62.9992C834.529 61.5592 834.097 60.2632 833.233 59.1112C832.427 57.9016 831.419 56.9512 830.209 56.26C829 55.5688 827.761 55.2232 826.494 55.2232C825.4 55.2232 824.133 55.396 822.693 55.7416C821.253 56.0296 820.129 56.4904 819.323 57.124C818.401 57.8728 817.768 58.6504 817.422 59.4568C817.134 60.2632 816.99 61.5592 816.99 63.3448V80.884C817.048 82.036 817.393 82.8424 818.027 83.3032C818.718 83.764 819.496 84.1384 820.36 84.4264C820.993 84.5992 821.454 84.8008 821.742 85.0312C822.088 85.204 822.261 85.4632 822.261 85.8088C822.261 86.4424 821.685 86.7592 820.533 86.7592C819.381 86.7592 818.517 86.7016 817.941 86.5864C817.365 86.5288 816.817 86.4712 816.299 86.4136C815.781 86.356 815.003 86.3272 813.966 86.3272C812.987 86.3272 812.181 86.356 811.547 86.4136C810.971 86.4712 810.337 86.5288 809.646 86.5864C809.013 86.7016 808.12 86.7592 806.968 86.7592ZM860.522 86.7592C859.946 86.7592 859.514 86.6728 859.226 86.5C858.938 86.3848 858.794 86.1544 858.794 85.8088C858.794 85.348 858.967 85.0312 859.313 84.8584C859.716 84.6856 860.205 84.5416 860.781 84.4264C862.106 84.1384 863.057 83.7352 863.633 83.2168C864.209 82.6408 864.497 81.7768 864.497 80.6248V56.26C863.921 56.26 863.258 56.26 862.509 56.26C861.761 56.2024 860.925 56.1448 860.004 56.0872C859.831 56.0296 859.572 55.828 859.226 55.4824C858.938 55.1368 858.794 54.82 858.794 54.532C858.794 54.4168 858.881 54.3304 859.053 54.2728C859.226 54.1576 859.341 54.0712 859.399 54.0136C860.436 53.4952 861.329 53.0344 862.077 52.6312C862.826 52.228 863.633 51.8248 864.497 51.4216C864.497 46.4104 865.101 42.2344 866.311 38.8936C867.578 35.5528 869.191 32.9032 871.149 30.9448C873.108 28.9864 875.181 27.604 877.37 26.7976C879.559 25.9336 881.604 25.5016 883.505 25.5016C886.73 25.5016 889.121 25.9912 890.676 26.9704C892.231 27.9496 893.009 29.188 893.009 30.6856C893.009 31.8376 892.721 32.7016 892.145 33.2776C891.569 33.8536 890.877 34.1416 890.071 34.1416C889.553 34.1416 889.063 33.94 888.602 33.5368C888.199 33.1336 887.709 32.6728 887.133 32.1544C886.385 31.4056 885.463 30.7144 884.369 30.0808C883.274 29.3896 881.777 29.044 879.876 29.044C877.169 29.044 874.922 30.2248 873.137 32.5864C871.409 34.948 870.545 38.5768 870.545 43.4728V51.076C870.545 51.4216 870.631 51.652 870.804 51.7672C871.034 51.8824 871.265 51.94 871.495 51.94H882.295C882.583 51.94 882.842 52.0264 883.073 52.1992C883.303 52.372 883.418 52.6024 883.418 52.8904C883.418 53.2936 883.361 53.7256 883.245 54.1864C883.188 54.6472 883.073 55.0504 882.9 55.396C882.727 55.8568 882.468 56.0872 882.122 56.0872H872.186C871.495 56.0872 871.034 56.2024 870.804 56.4328C870.631 56.6056 870.545 56.8648 870.545 57.2104V80.6248C870.545 81.7768 870.919 82.6408 871.668 83.2168C872.417 83.7352 873.943 84.1384 876.247 84.4264C877.572 84.5992 878.234 85.06 878.234 85.8088C878.234 86.1544 878.09 86.3848 877.802 86.5C877.514 86.6728 877.082 86.7592 876.506 86.7592C874.778 86.7592 873.252 86.6728 871.927 86.5C870.602 86.3848 869.191 86.3272 867.693 86.3272C866.714 86.3272 865.908 86.356 865.274 86.4136C864.641 86.4712 863.978 86.5288 863.287 86.5864C862.596 86.7016 861.674 86.7592 860.522 86.7592ZM884.141 86.7592C883.565 86.7592 883.133 86.6728 882.845 86.5C882.557 86.3848 882.413 86.1544 882.413 85.8088C882.413 85.348 882.585 85.06 882.931 84.9448C883.277 84.772 883.766 84.5992 884.4 84.4264C885.494 84.1384 886.301 83.7352 886.819 83.2168C887.395 82.6408 887.683 81.9496 887.683 81.1432V62.5672C887.683 61.012 887.453 59.6584 886.992 58.5064C886.531 57.3544 885.581 56.6344 884.141 56.3464C883.91 56.2888 883.709 56.1448 883.536 55.9144C883.363 55.684 883.277 55.4536 883.277 55.2232C883.277 54.6472 883.536 54.3016 884.054 54.1864C885.552 53.7256 887.107 53.0632 888.72 52.1992C890.39 51.2776 891.686 50.5288 892.608 49.9528C892.953 49.7224 893.213 49.5784 893.385 49.5208C893.616 49.4056 893.789 49.348 893.904 49.348C894.192 49.348 894.336 49.5496 894.336 49.9528C894.336 50.1256 894.307 50.5576 894.249 51.2488C894.249 51.94 894.221 52.7464 894.163 53.668C894.163 54.5896 894.134 55.5112 894.077 56.4328C894.077 56.548 894.134 56.6056 894.249 56.6056C895.171 55.4536 896.179 54.4456 897.273 53.5816C898.425 52.7176 899.577 52.0264 900.729 51.508C901.939 50.9896 903.091 50.7304 904.185 50.7304C905.395 50.7304 906.374 50.9896 907.123 51.508C907.929 52.0264 908.333 52.6888 908.333 53.4952C908.333 54.0712 908.16 54.7048 907.814 55.396C907.526 56.0872 907.123 56.692 906.605 57.2104C906.086 57.7288 905.539 57.988 904.963 57.988C904.617 57.988 904.243 57.9304 903.84 57.8152C903.437 57.6424 903.005 57.4408 902.544 57.2104C902.083 57.0376 901.622 56.8648 901.161 56.692C900.701 56.5192 900.24 56.4328 899.779 56.4328C898.397 56.4328 897.043 56.9224 895.718 57.9016C894.451 58.8808 893.817 60.8104 893.817 63.6904V81.1432C893.817 81.892 894.221 82.5256 895.027 83.044C895.833 83.5048 896.957 83.9656 898.397 84.4264C899.03 84.5992 899.52 84.772 899.865 84.9448C900.211 85.1176 900.384 85.4056 900.384 85.8088C900.384 86.4424 899.808 86.7592 898.656 86.7592C896.928 86.7592 895.603 86.6728 894.681 86.5C893.817 86.3848 892.637 86.3272 891.139 86.3272C890.16 86.3272 889.353 86.356 888.72 86.4136C888.144 86.4712 887.51 86.5288 886.819 86.5864C886.185 86.7016 885.293 86.7592 884.141 86.7592ZM908.245 86.7592C907.726 86.7592 907.294 86.6728 906.949 86.5C906.661 86.3848 906.517 86.1544 906.517 85.8088C906.517 85.348 906.718 85.0312 907.122 84.8584C907.582 84.6856 908.043 84.5416 908.504 84.4264C909.714 84.1384 910.635 83.7928 911.269 83.3896C911.902 82.9288 912.219 82.18 912.219 81.1432V62.3944C912.219 60.8392 911.931 59.4568 911.355 58.2472C910.837 57.0376 909.829 56.3176 908.331 56.0872C908.043 56.0296 907.813 55.9144 907.64 55.7416C907.525 55.5688 907.467 55.3096 907.467 54.964C907.467 54.3304 907.726 53.9848 908.245 53.9272C910.549 53.4088 912.45 52.7176 913.947 51.8536C915.445 50.932 916.568 50.1832 917.317 49.6072C917.835 49.204 918.238 49.0024 918.526 49.0024C918.872 49.0024 919.045 49.1464 919.045 49.4344C919.045 49.8952 918.958 50.8168 918.786 52.1992C918.67 53.524 918.555 55.0216 918.44 56.692C918.325 58.3048 918.267 59.7736 918.267 61.0984V81.1432C918.267 82.1224 918.584 82.8424 919.218 83.3032C919.909 83.764 920.83 84.1384 921.982 84.4264C922.443 84.5416 922.875 84.6856 923.278 84.8584C923.739 85.0312 923.97 85.348 923.97 85.8088C923.97 86.4424 923.394 86.7592 922.242 86.7592C921.147 86.7592 920.254 86.7016 919.563 86.5864C918.93 86.5288 918.296 86.4712 917.662 86.4136C917.086 86.356 916.28 86.3272 915.243 86.3272C914.264 86.3272 913.458 86.356 912.824 86.4136C912.19 86.4712 911.557 86.5288 910.923 86.5864C910.29 86.7016 909.397 86.7592 908.245 86.7592ZM915.157 41.9176C913.947 41.9176 912.91 41.5144 912.046 40.708C911.24 39.844 910.837 38.8072 910.837 37.5976C910.837 36.3304 911.24 35.2936 912.046 34.4872C912.91 33.6232 913.947 33.1912 915.157 33.1912C916.424 33.1912 917.461 33.6232 918.267 34.4872C919.131 35.2936 919.563 36.3304 919.563 37.5976C919.563 38.8072 919.131 39.844 918.267 40.708C917.461 41.5144 916.424 41.9176 915.157 41.9176ZM939.704 87.796C936.536 87.796 933.772 87.0184 931.41 85.4632C929.048 83.908 927.205 81.7192 925.88 78.8968C924.556 76.0168 923.893 72.7048 923.893 68.9608C923.893 65.62 924.642 62.596 926.14 59.8888C927.695 57.124 929.74 54.9064 932.274 53.236C934.808 51.5656 937.573 50.7304 940.568 50.7304C942.872 50.7304 944.917 51.1912 946.703 52.1128C948.488 53.0344 949.871 54.3304 950.85 56.0008C951.887 57.6136 952.405 59.4856 952.405 61.6168C952.405 63.4024 951.541 64.2952 949.813 64.2952H931.583C930.776 64.2952 930.2 64.5256 929.855 64.9864C929.567 65.3896 929.423 66.2248 929.423 67.492C929.423 70.2568 930.028 72.7912 931.237 75.0952C932.447 77.3416 934.06 79.156 936.076 80.5384C938.092 81.8632 940.309 82.5256 942.728 82.5256C944.456 82.5256 946.012 82.2088 947.394 81.5752C948.834 80.884 950.101 79.9048 951.196 78.6376C951.426 78.3496 951.599 78.1768 951.714 78.1192C951.829 78.004 951.973 77.9464 952.146 77.9464C952.607 77.9464 952.837 78.2344 952.837 78.8104C952.837 79.9048 952.319 81.1144 951.282 82.4392C950.418 83.5336 949.381 84.484 948.172 85.2904C946.962 86.0968 945.637 86.7016 944.197 87.1048C942.757 87.5656 941.26 87.796 939.704 87.796ZM931.756 61.6168H939.618C941 61.6168 942.181 61.588 943.16 61.5304C944.14 61.4728 945.09 61.3576 946.012 61.1848C946.3 61.1272 946.472 60.9544 946.53 60.6664C946.645 60.3208 946.703 59.86 946.703 59.284C946.703 57.6136 945.954 56.2024 944.456 55.0504C943.016 53.8408 941.288 53.236 939.272 53.236C937.948 53.236 936.623 53.6392 935.298 54.4456C933.973 55.1944 932.879 56.1448 932.015 57.2968C931.151 58.4488 930.719 59.6008 930.719 60.7528C930.719 61.3288 931.064 61.6168 931.756 61.6168ZM954.449 86.7592C953.93 86.7592 953.498 86.6728 953.153 86.5C952.865 86.3848 952.721 86.1544 952.721 85.8088C952.721 85.348 952.893 85.06 953.239 84.9448C953.585 84.772 954.074 84.5992 954.708 84.4264C955.572 84.196 956.407 83.8792 957.213 83.476C958.02 83.0728 958.423 82.2952 958.423 81.1432V62.5672C958.423 61.012 958.25 59.6872 957.905 58.5928C957.617 57.4984 956.724 56.7496 955.226 56.3464C954.996 56.2312 954.794 56.116 954.621 56.0008C954.449 55.828 954.362 55.5688 954.362 55.2232C954.362 54.5896 954.621 54.244 955.14 54.1864C957.156 53.668 958.797 53.0344 960.065 52.2856C961.332 51.5368 962.57 50.7016 963.78 49.78C963.953 49.6648 964.097 49.5784 964.212 49.5208C964.385 49.4056 964.557 49.348 964.73 49.348C964.845 49.348 964.932 49.4056 964.989 49.5208C965.105 49.636 965.162 49.78 965.162 49.9528C965.162 50.356 965.076 51.1912 964.903 52.4584C964.788 53.668 964.73 54.676 964.73 55.4824C964.73 55.7128 964.73 55.9432 964.73 56.1736C964.788 56.3464 964.845 56.4616 964.903 56.5192C966.919 54.6184 969.05 53.1784 971.297 52.1992C973.601 51.22 976.106 50.7304 978.813 50.7304C981.636 50.7304 983.969 51.8824 985.812 54.1864C987.655 56.4904 988.577 59.3416 988.577 62.74V81.1432C988.577 82.2952 988.98 83.0728 989.786 83.476C990.593 83.8216 991.428 84.1384 992.292 84.4264C992.753 84.5992 993.185 84.8008 993.588 85.0312C994.049 85.204 994.279 85.5208 994.279 85.9816C994.279 86.3272 994.077 86.5288 993.674 86.5864C993.271 86.7016 992.897 86.7592 992.551 86.7592C991.399 86.7592 990.506 86.7016 989.873 86.5864C989.239 86.5288 988.634 86.4712 988.058 86.4136C987.482 86.356 986.676 86.3272 985.639 86.3272C984.66 86.3272 983.853 86.356 983.22 86.4136C982.586 86.4712 981.924 86.5288 981.233 86.5864C980.599 86.7016 979.706 86.7592 978.554 86.7592C978.266 86.7592 977.892 86.7016 977.431 86.5864C977.028 86.5288 976.826 86.3272 976.826 85.9816C976.826 85.5208 977.028 85.204 977.431 85.0312C977.892 84.8008 978.353 84.5992 978.813 84.4264C979.677 84.1384 980.513 83.8216 981.319 83.476C982.125 83.0728 982.529 82.2952 982.529 81.1432V62.9992C982.529 60.4648 981.809 58.5064 980.369 57.124C978.986 55.684 977.114 54.9352 974.753 54.8776C972.679 54.8776 970.865 55.2232 969.309 55.9144C967.754 56.548 966.372 57.3544 965.162 58.3336C964.932 58.564 964.759 58.8808 964.644 59.284C964.529 59.6296 964.471 59.9752 964.471 60.3208V81.1432C964.471 82.2952 964.874 83.0728 965.681 83.476C966.487 83.8792 967.322 84.196 968.186 84.4264C969.511 84.772 970.173 85.2328 970.173 85.8088C970.173 86.1544 970.029 86.3848 969.741 86.5C969.453 86.6728 969.021 86.7592 968.445 86.7592C967.293 86.7592 966.372 86.7016 965.681 86.5864C965.047 86.5288 964.442 86.4712 963.866 86.4136C963.29 86.356 962.484 86.3272 961.447 86.3272C960.468 86.3272 959.661 86.356 959.028 86.4136C958.452 86.4712 957.818 86.5288 957.127 86.5864C956.493 86.7016 955.601 86.7592 954.449 86.7592ZM1022.82 88.1416C1022.7 88.1416 1022.5 88.0264 1022.21 87.796C1021.98 87.5656 1021.87 87.3928 1021.87 87.2776C1021.87 86.7016 1021.93 85.8952 1022.04 84.8584C1022.21 83.764 1022.3 82.8424 1022.3 82.0936V81.5752C1021.44 82.9 1020.05 84.2536 1018.15 85.636C1016.25 87.0184 1013.86 87.7096 1010.98 87.7096C1007.7 87.7096 1004.85 86.8456 1002.43 85.1176C1000.07 83.3896 998.223 81.172 996.899 78.4648C995.631 75.7576 994.998 72.964 994.998 70.084C994.998 66.7432 995.775 63.604 997.331 60.6664C998.886 57.7288 1001.1 55.3384 1003.98 53.4952C1006.92 51.652 1010.41 50.7304 1014.44 50.7304C1015.59 50.7304 1016.74 50.8456 1017.89 51.076C1019.1 51.2488 1020.02 51.4504 1020.66 51.6808C1021.18 51.8536 1021.55 51.94 1021.78 51.94C1022.18 51.94 1022.39 51.2488 1022.39 49.8664V37.5976C1022.39 35.236 1022.01 33.652 1021.26 32.8456C1020.51 32.0392 1019.45 31.5208 1018.07 31.2904C1017.55 31.1752 1017.29 30.8008 1017.29 30.1672C1017.29 29.6488 1017.52 29.3032 1017.98 29.1304C1020.51 28.4968 1022.5 27.892 1023.94 27.316C1025.38 26.74 1026.5 26.2792 1027.31 25.9336C1027.54 25.8184 1027.74 25.7608 1027.92 25.7608C1028.15 25.7032 1028.32 25.6744 1028.43 25.6744C1028.78 25.6744 1028.98 25.8472 1029.04 26.1928C1029.04 26.5384 1028.98 27.1432 1028.87 28.0072C1028.81 28.8136 1028.72 30.0232 1028.61 31.636C1028.49 33.2488 1028.43 35.3512 1028.43 37.9432V76.996C1028.43 78.9544 1028.58 80.3944 1028.87 81.316C1029.15 82.18 1029.62 82.612 1030.25 82.612C1030.54 82.612 1031.03 82.5832 1031.72 82.5256C1032.47 82.468 1033.22 82.4104 1033.96 82.3528C1035 82.2952 1035.52 82.5544 1035.52 83.1304C1035.52 83.5336 1035.38 83.908 1035.09 84.2536C1034.86 84.5416 1034.6 84.6856 1034.31 84.6856C1032.7 84.916 1031.11 85.2616 1029.56 85.7224C1028 86.1256 1026.22 86.7592 1024.2 87.6232C1023.74 87.8536 1023.42 87.9976 1023.25 88.0552C1023.14 88.1128 1022.99 88.1416 1022.82 88.1416ZM1014.09 83.2168C1015.59 83.2168 1017.06 82.8424 1018.5 82.0936C1019.94 81.2872 1021.21 80.2504 1022.3 78.9832L1022.39 63.4312C1022.39 61.876 1021.93 60.3496 1021 58.852C1020.14 57.3544 1018.9 56.1448 1017.29 55.2232C1015.73 54.244 1013.89 53.7544 1011.76 53.7544C1010.43 53.7544 1008.94 54.1576 1007.27 54.964C1005.6 55.7704 1004.16 57.2104 1002.95 59.284C1001.74 61.3 1001.13 64.2376 1001.13 68.0968C1001.13 71.38 1001.62 74.0296 1002.6 76.0456C1003.58 78.004 1004.76 79.5016 1006.14 80.5384C1007.58 81.5752 1009.02 82.2952 1010.46 82.6984C1011.96 83.044 1013.17 83.2168 1014.09 83.2168ZM1036.89 111.124C1035.8 111.124 1034.79 110.836 1033.87 110.26C1032.94 109.742 1032.48 108.849 1032.48 107.582C1032.48 106.545 1032.71 105.623 1033.17 104.817C1033.69 104.068 1034.41 103.694 1035.33 103.694C1035.97 103.694 1036.57 103.78 1037.15 103.953C1037.78 104.126 1038.33 104.212 1038.79 104.212C1039.14 104.212 1039.42 104.126 1039.65 103.953C1039.94 103.838 1040.2 103.607 1040.43 103.262C1041.07 102.225 1041.79 100.929 1042.59 99.3736C1043.46 97.8184 1044.32 96.0616 1045.18 94.1032C1046.11 92.1448 1046.97 90.0712 1047.78 87.8824C1047.95 87.364 1048.04 86.7016 1048.04 85.8952C1048.04 85.4344 1048.01 85.0024 1047.95 84.5992C1047.89 84.1384 1047.8 83.7352 1047.69 83.3896L1037.67 58.0744C1037.26 57.0376 1036.72 56.1448 1036.03 55.396C1035.39 54.5896 1034.64 54.0712 1033.78 53.8408C1033.32 53.668 1032.86 53.4664 1032.4 53.236C1031.99 53.0056 1031.79 52.6888 1031.79 52.2856C1031.79 51.94 1031.99 51.7384 1032.4 51.6808C1032.86 51.5656 1033.23 51.508 1033.52 51.508C1034.67 51.508 1035.51 51.5368 1036.03 51.5944C1036.6 51.652 1037.12 51.7384 1037.58 51.8536C1038.1 51.9112 1038.85 51.94 1039.83 51.94C1040.86 51.94 1041.64 51.9112 1042.16 51.8536C1042.68 51.7384 1043.23 51.652 1043.8 51.5944C1044.38 51.5368 1045.24 51.508 1046.39 51.508C1046.74 51.508 1047.11 51.5944 1047.52 51.7672C1047.92 51.8824 1048.12 52.1128 1048.12 52.4584C1048.12 52.8616 1047.8 53.2648 1047.17 53.668C1046.6 54.0136 1046.08 54.244 1045.62 54.3592C1045.04 54.532 1044.61 54.8488 1044.32 55.3096C1044.03 55.7128 1043.89 56.3176 1043.89 57.124C1043.89 57.4696 1043.97 57.9016 1044.15 58.42C1044.32 58.8808 1044.46 59.2552 1044.58 59.5432L1051.58 76.8232C1051.69 77.1688 1051.87 77.3416 1052.1 77.3416C1052.27 77.3416 1052.41 77.1688 1052.53 76.8232L1058.49 61.012C1058.66 60.6088 1058.81 60.0904 1058.92 59.4568C1059.09 58.7656 1059.18 58.2184 1059.18 57.8152C1059.18 56.7208 1059.01 55.972 1058.66 55.5688C1058.37 55.108 1057.97 54.7624 1057.45 54.532C1056.99 54.3016 1056.44 54.0136 1055.81 53.668C1055.24 53.2648 1054.95 52.8616 1054.95 52.4584C1054.95 52.1128 1055.15 51.8824 1055.55 51.7672C1056.01 51.5944 1056.39 51.508 1056.68 51.508C1057.48 51.508 1058.29 51.5944 1059.09 51.7672C1059.96 51.8824 1061.2 51.94 1062.81 51.94C1063.9 51.94 1064.68 51.9112 1065.14 51.8536C1065.66 51.7384 1066.09 51.652 1066.44 51.5944C1066.78 51.5368 1067.27 51.508 1067.91 51.508C1068.2 51.508 1068.54 51.5656 1068.94 51.6808C1069.4 51.7384 1069.64 51.94 1069.64 52.2856C1069.64 52.6888 1069.4 53.0056 1068.94 53.236C1068.54 53.4664 1068.11 53.668 1067.65 53.8408C1066.78 54.0712 1065.86 54.7624 1064.88 55.9144C1063.9 57.0088 1063.13 58.2472 1062.55 59.6296L1050.8 87.6232C1050.74 87.796 1050.43 88.5448 1049.85 89.8696C1049.33 91.1944 1048.67 92.836 1047.86 94.7944C1047.06 96.7528 1046.16 98.8552 1045.18 101.102C1044.26 103.348 1043.37 105.508 1042.51 107.582C1041.99 108.734 1041.24 109.598 1040.26 110.174C1039.28 110.807 1038.16 111.124 1036.89 111.124Z" fill="#AB5A26"/>
</g>
<defs>
<filter id="filter0_i_78_2465" x="70.0736" y="25.502" width="999.562" height="86.0547" filterUnits="userSpaceOnUse" color-interpolation-filters="sRGB">
<feFlood flood-opacity="0" result="BackgroundImageFix"/>
<feBlend mode="normal" in="SourceGraphic" in2="BackgroundImageFix" result="shape"/>
<feColorMatrix in="SourceAlpha" type="matrix" values="0 0 0 0 0 0 0 0 0 0 0 0 0 0 0 0 0 0 127 0" result="hardAlpha"/>
<feOffset/>
<feGaussianBlur stdDeviation="1.44"/>
<feComposite in2="hardAlpha" operator="arithmetic" k2="-1" k3="1"/>
<feColorMatrix type="matrix" values="0 0 0 0 0.378737 0 0 0 0 0.199468 0 0 0 0 0 0 0 0 1 0"/>
<feBlend mode="normal" in2="shape" result="effect1_innerShadow_78_2465"/>
</filter>
</defs>
</svg>
