<svg width="1497" height="125" viewBox="0 0 1497 125" fill="none" xmlns="http://www.w3.org/2000/svg">
<g filter="url(#filter0_i_70_2451)" style="mix-blend-mode:color-burn">
<path d="M59.0976 123.034C57.9456 123.034 55.3536 122.919 51.3216 122.688C47.4048 122.458 42.8544 122.227 37.6704 121.997C32.6016 121.882 27.7632 121.824 23.1552 121.824C20.8512 121.824 18.8928 121.882 17.28 121.997C15.7824 122.112 14.112 122.227 12.2688 122.343C10.5408 122.573 8.12157 122.688 5.01117 122.688C3.51357 122.688 2.30397 122.515 1.38237 122.17C0.46077 121.824 -3.02026e-05 121.248 -3.02026e-05 120.442C-3.02026e-05 119.52 0.46077 118.944 1.38237 118.714C2.30397 118.368 3.74397 118.023 5.70237 117.677C10.08 116.871 13.0752 115.546 14.688 113.703C16.416 111.859 17.28 108.864 17.28 104.717V26.957C17.28 22.8098 16.416 19.8722 14.688 18.1442C13.0752 16.4162 10.08 15.149 5.70237 14.3426C3.74397 13.997 2.30397 13.6514 1.38237 13.3058C0.46077 12.845 -3.02026e-05 12.1538 -3.02026e-05 11.2322C-3.02026e-05 10.4258 0.46077 9.84981 1.38237 9.50421C2.30397 9.15861 3.51357 8.98581 5.01117 8.98581C8.00637 8.98581 10.368 9.04341 12.096 9.15862C13.9392 9.15862 15.7248 9.21621 17.4528 9.33141C19.1808 9.33141 21.4272 9.33141 24.192 9.33141C26.0352 9.33141 28.3392 9.27381 31.104 9.15862C33.984 9.04341 36.9216 8.87061 39.9168 8.64021C43.0272 8.40981 45.792 8.23701 48.2112 8.12181C50.7456 8.00661 52.5888 7.94901 53.7408 7.94901C65.4912 7.94901 75.5136 9.38901 83.808 12.269C92.1024 15.0338 98.8416 18.9506 104.026 24.0194C109.21 28.973 113.011 34.7906 115.43 41.4722C117.965 48.0386 119.232 55.1234 119.232 62.7266C119.232 71.021 117.677 78.797 114.566 86.0546C111.456 93.3122 107.136 99.7634 101.606 105.408C96.0768 110.938 89.6832 115.258 82.4256 118.368C75.168 121.479 67.392 123.034 59.0976 123.034ZM57.024 116.986C66.0096 116.986 73.9584 114.797 80.8704 110.419C87.7824 106.042 93.1392 99.9938 96.9408 92.2754C100.858 84.557 102.816 75.6866 102.816 65.6642C102.816 57.3698 101.434 49.997 98.6688 43.5458C95.904 36.9794 92.2176 31.5074 87.6096 27.1298C83.0016 22.637 77.8176 19.2386 72.0576 16.9346C66.2976 14.5154 60.48 13.3058 54.6048 13.3058C49.6512 13.3058 45.3888 13.4786 41.8176 13.8242C38.3616 14.0546 35.712 14.9186 33.8688 16.4162C32.0256 17.9138 31.104 20.3906 31.104 23.8466V100.915C31.104 105.523 32.3712 108.979 34.9056 111.283C37.44 113.587 40.6656 115.143 44.5824 115.949C48.6144 116.64 52.7616 116.986 57.024 116.986ZM157.059 124.243C150.608 124.243 144.79 122.746 139.606 119.751C134.422 116.755 130.275 112.666 127.165 107.482C124.169 102.183 122.672 96.1922 122.672 89.5106C122.672 84.6722 123.593 79.949 125.437 75.341C127.395 70.733 130.102 66.5282 133.558 62.7266C137.014 58.925 141.046 55.9298 145.654 53.741C150.262 51.437 155.216 50.285 160.515 50.285C167.197 50.285 173.187 51.8978 178.486 55.1234C183.901 58.349 188.163 62.6114 191.273 67.9106C194.499 73.0946 196.112 78.797 196.112 85.0178C196.112 91.6994 194.614 98.0354 191.619 104.026C188.739 110.016 184.419 114.912 178.659 118.714C172.899 122.4 165.699 124.243 157.059 124.243ZM160.688 119.059C164.605 119.059 168.118 118.311 171.229 116.813C174.339 115.315 176.758 112.896 178.486 109.555C179.869 106.906 180.79 103.68 181.251 99.8786C181.712 96.077 181.942 92.5058 181.942 89.165C181.942 83.6354 180.905 78.3362 178.832 73.2674C176.873 68.0834 174.051 63.8786 170.365 60.653C166.793 57.3122 162.531 55.6418 157.577 55.6418C154.467 55.6418 151.645 56.1602 149.11 57.197C146.691 58.1186 144.445 59.9042 142.371 62.5538C140.067 65.4338 138.569 68.9474 137.878 73.0946C137.187 77.2418 136.841 81.389 136.841 85.5362C136.841 91.181 137.878 96.5954 139.952 101.779C142.025 106.848 144.848 110.995 148.419 114.221C151.99 117.447 156.08 119.059 160.688 119.059ZM201.143 122.343C200.106 122.343 199.242 122.17 198.551 121.824C197.975 121.594 197.687 121.133 197.687 120.442C197.687 119.52 198.033 118.944 198.724 118.714C199.415 118.368 200.394 118.023 201.662 117.677C203.39 117.216 205.06 116.583 206.673 115.776C208.286 114.97 209.092 113.415 209.092 111.111V73.9586C209.092 70.8482 208.746 68.1986 208.055 66.0098C207.479 63.821 205.694 62.3234 202.698 61.517C202.238 61.2866 201.834 61.0562 201.489 60.8258C201.143 60.4802 200.97 59.9618 200.97 59.2706C200.97 58.0034 201.489 57.3122 202.526 57.197C206.558 56.1602 209.841 54.893 212.375 53.3954C214.91 51.8978 217.386 50.2274 219.806 48.3842C220.151 48.1538 220.439 47.981 220.67 47.8658C221.015 47.6354 221.361 47.5202 221.706 47.5202C221.937 47.5202 222.11 47.6354 222.225 47.8658C222.455 48.0962 222.57 48.3842 222.57 48.7298C222.57 49.5362 222.398 51.2066 222.052 53.741C221.822 56.1602 221.706 58.1762 221.706 59.789C221.706 60.2498 221.706 60.7106 221.706 61.1714C221.822 61.517 221.937 61.7474 222.052 61.8626C226.084 58.061 230.346 55.181 234.839 53.2226C239.447 51.2642 244.458 50.285 249.873 50.285C255.518 50.285 260.183 52.589 263.87 57.197C267.556 61.805 269.399 67.5074 269.399 74.3042V111.111C269.399 113.415 270.206 114.97 271.818 115.776C273.431 116.467 275.102 117.101 276.83 117.677C277.751 118.023 278.615 118.426 279.422 118.887C280.343 119.232 280.804 119.866 280.804 120.787C280.804 121.479 280.401 121.882 279.594 121.997C278.788 122.227 278.039 122.343 277.348 122.343C275.044 122.343 273.258 122.227 271.991 121.997C270.724 121.882 269.514 121.767 268.362 121.651C267.21 121.536 265.598 121.479 263.524 121.479C261.566 121.479 259.953 121.536 258.686 121.651C257.418 121.767 256.094 121.882 254.711 121.997C253.444 122.227 251.658 122.343 249.354 122.343C248.778 122.343 248.03 122.227 247.108 121.997C246.302 121.882 245.898 121.479 245.898 120.787C245.898 119.866 246.302 119.232 247.108 118.887C248.03 118.426 248.951 118.023 249.873 117.677C251.601 117.101 253.271 116.467 254.884 115.776C256.497 114.97 257.303 113.415 257.303 111.111V74.8226C257.303 69.7538 255.863 65.837 252.983 63.0722C250.218 60.1922 246.474 58.6946 241.751 58.5794C237.604 58.5794 233.975 59.2706 230.865 60.653C227.754 61.9202 224.99 63.533 222.57 65.4914C222.11 65.9522 221.764 66.5858 221.534 67.3922C221.303 68.0834 221.188 68.7746 221.188 69.4658V111.111C221.188 113.415 221.994 114.97 223.607 115.776C225.22 116.583 226.89 117.216 228.618 117.677C231.268 118.368 232.593 119.29 232.593 120.442C232.593 121.133 232.305 121.594 231.729 121.824C231.153 122.17 230.289 122.343 229.137 122.343C226.833 122.343 224.99 122.227 223.607 121.997C222.34 121.882 221.13 121.767 219.978 121.651C218.826 121.536 217.214 121.479 215.14 121.479C213.182 121.479 211.569 121.536 210.302 121.651C209.15 121.767 207.882 121.882 206.5 121.997C205.233 122.227 203.447 122.343 201.143 122.343ZM286.389 48.2114C284.315 48.2114 283.279 47.5778 283.279 46.3106C283.279 45.8498 283.451 45.4466 283.797 45.101C284.258 44.6402 284.891 44.3522 285.698 44.237C288.232 43.661 290.767 42.6818 293.301 41.2994C295.835 39.917 297.967 37.9586 299.695 35.4242C301.423 32.7746 302.287 29.4338 302.287 25.4018C302.287 24.0194 301.653 22.4642 300.386 20.7362C299.119 18.893 297.506 17.9138 295.547 17.7986C293.013 17.5682 290.997 16.7618 289.499 15.3794C288.117 13.997 287.426 12.3842 287.426 10.541C287.426 8.23701 288.347 6.33621 290.191 4.83861C292.149 3.34101 294.395 2.59221 296.93 2.59221C301.077 2.59221 304.475 4.20501 307.125 7.43061C309.89 10.541 311.272 14.5154 311.272 19.3538C311.272 23.7314 310.408 27.7058 308.68 31.277C306.952 34.733 304.763 37.7282 302.114 40.2626C299.464 42.797 296.699 44.7554 293.819 46.1378C291.055 47.5202 288.578 48.2114 286.389 48.2114ZM342.063 124.243C336.418 124.243 331.983 122.515 328.757 119.059C325.647 115.603 324.092 110.477 324.092 103.68V63.5906C324.092 62.669 323.746 62.0354 323.055 61.6898C322.364 61.229 320.866 60.9986 318.562 60.9986H317.525C316.949 60.9986 316.431 60.653 315.97 59.9618C315.625 59.1554 315.452 58.349 315.452 57.5426C315.452 57.3122 315.625 56.9666 315.97 56.5058C316.316 56.045 316.546 55.757 316.661 55.6418C318.965 54.029 321.039 52.4162 322.882 50.8034C324.841 49.1906 326.569 47.6354 328.066 46.1378C329.679 44.525 331.004 43.085 332.041 41.8178C332.617 41.2418 333.077 40.781 333.423 40.4354C333.884 39.9746 334.402 39.7442 334.978 39.7442C335.554 39.7442 336.073 39.8594 336.533 40.0898C337.109 40.3202 337.34 40.8386 337.225 41.645L336.361 49.421C336.245 50.6882 336.533 51.5522 337.225 52.013C337.916 52.4738 339.01 52.7042 340.508 52.7042H360.207C360.668 52.7042 361.071 53.1074 361.417 53.9138C361.762 54.605 361.935 55.469 361.935 56.5058C361.935 57.5426 361.762 58.5794 361.417 59.6162C361.071 60.5378 360.668 60.9986 360.207 60.9986H343.1C340.22 60.9986 338.319 61.229 337.397 61.6898C336.591 62.1506 336.188 63.533 336.188 65.837V99.8786C336.188 104.487 337.167 108.115 339.125 110.765C341.084 113.415 343.906 114.739 347.593 114.739C350.933 114.739 353.525 114.509 355.369 114.048C357.212 113.472 358.882 112.666 360.38 111.629C360.61 111.399 360.841 111.283 361.071 111.283C361.532 111.283 361.82 111.571 361.935 112.147C362.165 112.608 362.281 113.127 362.281 113.703C362.281 114.279 361.301 115.431 359.343 117.159C357.5 118.887 355.023 120.499 351.913 121.997C348.917 123.495 345.634 124.243 342.063 124.243ZM387.794 122.343C387.218 122.343 386.469 122.227 385.548 121.997C384.741 121.882 384.338 121.479 384.338 120.787C384.338 119.866 384.741 119.232 385.548 118.887C386.469 118.426 387.391 118.023 388.313 117.677C390.041 117.101 391.711 116.467 393.324 115.776C394.937 114.97 395.743 113.415 395.743 111.111V24.0194C395.743 20.6786 395.109 17.9138 393.842 15.725C392.69 13.421 390.674 11.981 387.794 11.405C386.873 11.1746 386.412 10.4258 386.412 9.15862C386.412 8.00661 386.815 7.31541 387.621 7.08501C390.617 6.39381 393.209 5.70261 395.397 5.01141C397.586 4.20501 399.602 3.39861 401.445 2.59221C403.404 1.78581 405.305 1.03701 407.148 0.345815C407.609 0.115411 407.954 0.000209183 408.185 0.000209183C408.415 0.000209183 408.588 0.17301 408.703 0.518613C408.933 0.74901 409.049 0.97941 409.049 1.20981C409.049 2.24661 408.818 4.49301 408.357 7.94901C408.012 11.2898 407.839 16.877 407.839 24.7106V111.111C407.839 113.415 408.645 114.97 410.258 115.776C411.871 116.467 413.541 117.101 415.269 117.677C416.191 118.023 417.055 118.426 417.861 118.887C418.783 119.232 419.244 119.866 419.244 120.787C419.244 121.479 418.783 121.882 417.861 121.997C417.055 122.227 416.364 122.343 415.788 122.343C413.599 122.343 411.813 122.227 410.431 121.997C409.164 121.882 407.897 121.767 406.629 121.651C405.477 121.536 403.865 121.479 401.791 121.479C399.833 121.479 398.22 121.536 396.953 121.651C395.685 121.767 394.418 121.882 393.151 121.997C391.884 122.227 390.098 122.343 387.794 122.343ZM454.363 124.243C447.912 124.243 442.094 122.746 436.91 119.751C431.726 116.755 427.579 112.666 424.468 107.482C421.473 102.183 419.976 96.1922 419.976 89.5106C419.976 84.6722 420.897 79.949 422.74 75.341C424.699 70.733 427.406 66.5282 430.862 62.7266C434.318 58.925 438.35 55.9298 442.958 53.741C447.566 51.437 452.52 50.285 457.819 50.285C464.5 50.285 470.491 51.8978 475.79 55.1234C481.204 58.349 485.467 62.6114 488.577 67.9106C491.803 73.0946 493.416 78.797 493.416 85.0178C493.416 91.6994 491.918 98.0354 488.923 104.026C486.043 110.016 481.723 114.912 475.963 118.714C470.203 122.4 463.003 124.243 454.363 124.243ZM457.992 119.059C461.908 119.059 465.422 118.311 468.532 116.813C471.643 115.315 474.062 112.896 475.79 109.555C477.172 106.906 478.094 103.68 478.555 99.8786C479.016 96.077 479.246 92.5058 479.246 89.165C479.246 83.6354 478.209 78.3362 476.136 73.2674C474.177 68.0834 471.355 63.8786 467.668 60.653C464.097 57.3122 459.835 55.6418 454.881 55.6418C451.771 55.6418 448.948 56.1602 446.414 57.197C443.995 58.1186 441.748 59.9042 439.675 62.5538C437.371 65.4338 435.873 68.9474 435.182 73.0946C434.491 77.2418 434.145 81.389 434.145 85.5362C434.145 91.181 435.182 96.5954 437.256 101.779C439.329 106.848 442.152 110.995 445.723 114.221C449.294 117.447 453.384 119.059 457.992 119.059ZM515.727 124.243C512.156 124.243 508.815 123.667 505.705 122.515C502.594 121.479 499.945 119.981 497.756 118.023C497.18 116.755 496.719 114.624 496.373 111.629C496.143 108.634 495.97 106.157 495.855 104.199C495.855 103.162 496.604 102.643 498.101 102.643C498.562 102.643 498.965 102.759 499.311 102.989C499.772 103.104 500.06 103.392 500.175 103.853C501.673 109.498 504.034 113.53 507.26 115.949C510.601 118.368 513.941 119.578 517.282 119.578C520.623 119.578 523.445 118.483 525.749 116.295C528.169 113.991 529.378 111.168 529.378 107.827C529.378 104.717 528.341 102.067 526.268 99.8786C524.194 97.5746 520.565 94.8098 515.381 91.5842C511.465 89.165 508.297 86.861 505.877 84.6722C503.458 82.4834 501.673 80.237 500.521 77.933C499.484 75.629 498.965 73.037 498.965 70.157C498.965 66.4706 499.829 63.1298 501.557 60.1346C503.285 57.1394 505.877 54.7778 509.333 53.0498C512.789 51.2066 517.109 50.285 522.293 50.285C525.749 50.285 528.629 50.6306 530.933 51.3218C533.237 52.013 534.965 52.7618 536.117 53.5682C537.039 54.8354 537.788 56.8514 538.364 59.6162C539.055 62.2658 539.401 64.8002 539.401 67.2194C539.401 68.0258 538.825 68.429 537.673 68.429C536.981 68.429 536.29 68.3138 535.599 68.0834C535.023 67.7378 534.62 67.3346 534.389 66.8738C532.892 63.0722 530.991 60.1922 528.687 58.2338C526.498 56.1602 523.733 55.1234 520.393 55.1234C517.513 55.1234 514.921 55.9874 512.617 57.7154C510.428 59.4434 509.333 61.9778 509.333 65.3186C509.333 67.9682 510.14 70.3298 511.753 72.4034C513.481 74.477 516.649 76.8386 521.257 79.4882C527.938 83.2898 532.892 86.861 536.117 90.2018C539.458 93.4274 541.129 97.7474 541.129 103.162C541.129 109.383 538.767 114.451 534.044 118.368C529.321 122.285 523.215 124.243 515.727 124.243ZM574.866 124.416C568.53 124.416 563.001 122.861 558.278 119.751C553.554 116.64 549.868 112.263 547.218 106.618C544.569 100.858 543.244 94.2338 543.244 86.7458C543.244 80.0642 544.742 74.0162 547.737 68.6018C550.847 63.0722 554.937 58.637 560.006 55.2962C565.074 51.9554 570.604 50.285 576.594 50.285C581.202 50.285 585.292 51.2066 588.863 53.0498C592.434 54.893 595.199 57.485 597.158 60.8258C599.231 64.0514 600.268 67.7954 600.268 72.0578C600.268 75.629 598.54 77.4146 595.084 77.4146H558.623C557.01 77.4146 555.858 77.8754 555.167 78.797C554.591 79.6034 554.303 81.2738 554.303 83.8082C554.303 89.3378 555.513 94.4066 557.932 99.0146C560.351 103.507 563.577 107.136 567.609 109.901C571.641 112.551 576.076 113.875 580.914 113.875C584.37 113.875 587.481 113.242 590.246 111.975C593.126 110.592 595.66 108.634 597.849 106.099C598.31 105.523 598.655 105.178 598.886 105.063C599.116 104.832 599.404 104.717 599.75 104.717C600.671 104.717 601.132 105.293 601.132 106.445C601.132 108.634 600.095 111.053 598.022 113.703C596.294 115.891 594.22 117.792 591.801 119.405C589.382 121.018 586.732 122.227 583.852 123.034C580.972 123.955 577.977 124.416 574.866 124.416ZM558.969 72.0578H574.694C577.458 72.0578 579.82 72.0002 581.778 71.885C583.737 71.7698 585.638 71.5394 587.481 71.1938C588.057 71.0786 588.402 70.733 588.518 70.157C588.748 69.4658 588.863 68.5442 588.863 67.3922C588.863 64.0514 587.366 61.229 584.37 58.925C581.49 56.5058 578.034 55.2962 574.002 55.2962C571.353 55.2962 568.703 56.1026 566.054 57.7154C563.404 59.213 561.215 61.1138 559.487 63.4178C557.759 65.7218 556.895 68.0258 556.895 70.3298C556.895 71.4818 557.586 72.0578 558.969 72.0578ZM655.364 124.243C649.719 124.243 645.284 122.515 642.059 119.059C638.948 115.603 637.393 110.477 637.393 103.68V63.5906C637.393 62.669 637.047 62.0354 636.356 61.6898C635.665 61.229 634.167 60.9986 631.863 60.9986H630.827C630.251 60.9986 629.732 60.653 629.271 59.9618C628.926 59.1554 628.753 58.349 628.753 57.5426C628.753 57.3122 628.926 56.9666 629.271 56.5058C629.617 56.045 629.847 55.757 629.963 55.6418C632.267 54.029 634.34 52.4162 636.183 50.8034C638.142 49.1906 639.87 47.6354 641.367 46.1378C642.98 44.525 644.305 43.085 645.342 41.8178C645.918 41.2418 646.379 40.781 646.724 40.4354C647.185 39.9746 647.703 39.7442 648.279 39.7442C648.855 39.7442 649.374 39.8594 649.835 40.0898C650.411 40.3202 650.641 40.8386 650.526 41.645L649.662 49.421C649.547 50.6882 649.835 51.5522 650.526 52.013C651.217 52.4738 652.311 52.7042 653.809 52.7042H673.508C673.969 52.7042 674.372 53.1074 674.718 53.9138C675.063 54.605 675.236 55.469 675.236 56.5058C675.236 57.5426 675.063 58.5794 674.718 59.6162C674.372 60.5378 673.969 60.9986 673.508 60.9986H656.401C653.521 60.9986 651.62 61.229 650.699 61.6898C649.892 62.1506 649.489 63.533 649.489 65.837V99.8786C649.489 104.487 650.468 108.115 652.427 110.765C654.385 113.415 657.207 114.739 660.894 114.739C664.235 114.739 666.827 114.509 668.67 114.048C670.513 113.472 672.183 112.666 673.681 111.629C673.911 111.399 674.142 111.283 674.372 111.283C674.833 111.283 675.121 111.571 675.236 112.147C675.467 112.608 675.582 113.127 675.582 113.703C675.582 114.279 674.603 115.431 672.644 117.159C670.801 118.887 668.324 120.499 665.214 121.997C662.219 123.495 658.935 124.243 655.364 124.243ZM675.142 122.343C672.838 122.343 671.686 121.709 671.686 120.442C671.686 119.405 673.011 118.483 675.66 117.677C677.388 117.101 679.001 116.352 680.499 115.431C682.111 114.509 682.975 112.896 683.091 110.592V24.0194C683.091 20.909 682.572 18.2018 681.535 15.8978C680.499 13.4786 678.483 12.0386 675.487 11.5778C674.451 11.3474 673.932 10.541 673.932 9.15862C673.932 8.12181 674.393 7.43061 675.315 7.08501C676.927 6.50901 678.828 5.87541 681.017 5.18421C683.321 4.49301 685.683 3.74421 688.102 2.93781C690.521 2.01621 692.652 1.15221 694.495 0.345815C694.956 0.115411 695.302 0.000209183 695.532 0.000209183C695.878 0.000209183 696.166 0.115411 696.396 0.345815C696.627 0.576212 696.742 0.864212 696.742 1.20981C696.742 1.90101 696.569 2.88021 696.223 4.14741C695.993 5.41461 695.763 7.60341 695.532 10.7138C695.302 13.8242 695.187 18.4898 695.187 24.7106V54.7778C695.187 56.621 695.244 57.9458 695.359 58.7522C695.59 59.5586 695.935 60.365 696.396 61.1714C698.239 59.789 700.486 58.2914 703.135 56.6786C705.9 54.9506 708.953 53.453 712.294 52.1858C715.635 50.9186 719.091 50.285 722.662 50.285C728.307 50.285 732.972 52.5314 736.659 57.0242C740.46 61.4018 742.361 66.989 742.361 73.7858V110.074C742.361 112.378 743.11 114.106 744.607 115.258C746.105 116.295 747.718 117.101 749.446 117.677C750.713 118.023 751.692 118.426 752.383 118.887C753.075 119.232 753.42 119.751 753.42 120.442C753.42 121.709 752.268 122.343 749.964 122.343C747.66 122.343 745.875 122.227 744.607 121.997C743.455 121.882 742.303 121.767 741.151 121.651C740.115 121.536 738.559 121.479 736.486 121.479C734.527 121.479 732.972 121.536 731.82 121.651C730.668 121.767 729.459 121.882 728.191 121.997C727.039 122.227 725.311 122.343 723.007 122.343C720.703 122.343 719.551 121.709 719.551 120.442C719.551 119.635 719.897 119.117 720.588 118.887C721.279 118.541 722.259 118.138 723.526 117.677C725.254 117.101 726.809 116.295 728.191 115.258C729.574 114.106 730.265 112.378 730.265 110.074V74.8226C730.265 71.9426 729.401 69.3506 727.673 67.0466C726.06 64.6274 724.044 62.7266 721.625 61.3442C719.206 59.9618 716.729 59.2706 714.195 59.2706C712.006 59.2706 709.471 59.6162 706.591 60.3074C703.711 60.8834 701.465 61.805 699.852 63.0722C698.009 64.5698 696.742 66.125 696.051 67.7378C695.475 69.3506 695.187 71.9426 695.187 75.5138V110.592C695.302 112.896 695.993 114.509 697.26 115.431C698.643 116.352 700.198 117.101 701.926 117.677C703.193 118.023 704.115 118.426 704.691 118.887C705.382 119.232 705.727 119.751 705.727 120.442C705.727 121.709 704.575 122.343 702.271 122.343C699.967 122.343 698.239 122.227 697.087 121.997C695.935 121.882 694.841 121.767 693.804 121.651C692.767 121.536 691.212 121.479 689.139 121.479C687.18 121.479 685.567 121.536 684.3 121.651C683.148 121.767 681.881 121.882 680.499 121.997C679.231 122.227 677.446 122.343 675.142 122.343ZM785.5 124.416C779.164 124.416 773.635 122.861 768.911 119.751C764.188 116.64 760.502 112.263 757.852 106.618C755.203 100.858 753.878 94.2338 753.878 86.7458C753.878 80.0642 755.375 74.0162 758.371 68.6018C761.481 63.0722 765.571 58.637 770.639 55.2962C775.708 51.9554 781.238 50.285 787.228 50.285C791.836 50.285 795.926 51.2066 799.497 53.0498C803.068 54.893 805.833 57.485 807.791 60.8258C809.865 64.0514 810.902 67.7954 810.902 72.0578C810.902 75.629 809.174 77.4146 805.718 77.4146H769.257C767.644 77.4146 766.492 77.8754 765.801 78.797C765.225 79.6034 764.937 81.2738 764.937 83.8082C764.937 89.3378 766.147 94.4066 768.566 99.0146C770.985 103.507 774.211 107.136 778.243 109.901C782.275 112.551 786.71 113.875 791.548 113.875C795.004 113.875 798.115 113.242 800.879 111.975C803.759 110.592 806.294 108.634 808.483 106.099C808.943 105.523 809.289 105.178 809.519 105.063C809.75 104.832 810.038 104.717 810.383 104.717C811.305 104.717 811.766 105.293 811.766 106.445C811.766 108.634 810.729 111.053 808.655 113.703C806.927 115.891 804.854 117.792 802.435 119.405C800.015 121.018 797.366 122.227 794.486 123.034C791.606 123.955 788.611 124.416 785.5 124.416ZM769.603 72.0578H785.327C788.092 72.0578 790.454 72.0002 792.412 71.885C794.371 71.7698 796.271 71.5394 798.115 71.1938C798.691 71.0786 799.036 70.733 799.151 70.157C799.382 69.4658 799.497 68.5442 799.497 67.3922C799.497 64.0514 797.999 61.229 795.004 58.925C792.124 56.5058 788.668 55.2962 784.636 55.2962C781.987 55.2962 779.337 56.1026 776.687 57.7154C774.038 59.213 771.849 61.1138 770.121 63.4178C768.393 65.7218 767.529 68.0258 767.529 70.3298C767.529 71.4818 768.22 72.0578 769.603 72.0578ZM870.145 124.416C864.385 124.416 859.144 122.976 854.42 120.096C849.812 117.101 846.126 113.069 843.361 108C840.712 102.816 839.387 97.0562 839.387 90.7202C839.387 83.2322 841 76.4354 844.225 70.3298C847.566 64.2242 852.001 59.3858 857.531 55.8146C863.06 52.1282 869.166 50.285 875.848 50.285C883.336 50.285 889.902 52.301 895.547 56.333C896.929 57.3698 897.62 58.4642 897.62 59.6162C897.62 60.5378 897.217 61.5746 896.411 62.7266C895.604 63.8786 894.625 64.8578 893.473 65.6642C892.321 66.3554 891.227 66.701 890.19 66.701C889.614 66.701 889.038 66.5282 888.462 66.1826C887.886 65.7218 887.252 65.261 886.561 64.8002C884.027 62.8418 881.204 60.9986 878.094 59.2706C874.984 57.5426 872.392 56.6786 870.318 56.6786C864.673 56.6786 860.065 59.3282 856.494 64.6274C853.038 69.8114 851.31 76.6658 851.31 85.1906C851.31 90.605 852.462 95.501 854.766 99.8786C857.185 104.256 860.353 107.712 864.27 110.247C868.302 112.781 872.737 114.048 877.576 114.048C880.916 114.048 883.796 113.53 886.216 112.493C888.635 111.341 891.227 109.383 893.992 106.618C894.222 106.387 894.51 106.215 894.856 106.099C895.201 105.869 895.489 105.754 895.72 105.754C896.987 105.754 897.62 106.56 897.62 108.173C897.62 108.864 897.39 109.671 896.929 110.592C896.584 111.399 895.95 112.378 895.028 113.53C893.185 115.834 890.996 117.85 888.462 119.578C885.928 121.191 883.105 122.4 879.995 123.207C877 124.013 873.716 124.416 870.145 124.416ZM932.128 124.243C925.677 124.243 919.859 122.746 914.675 119.751C909.491 116.755 905.344 112.666 902.233 107.482C899.238 102.183 897.741 96.1922 897.741 89.5106C897.741 84.6722 898.662 79.949 900.505 75.341C902.464 70.733 905.171 66.5282 908.627 62.7266C912.083 58.925 916.115 55.9298 920.723 53.741C925.331 51.437 930.285 50.285 935.584 50.285C942.265 50.285 948.256 51.8978 953.555 55.1234C958.969 58.349 963.232 62.6114 966.342 67.9106C969.568 73.0946 971.181 78.797 971.181 85.0178C971.181 91.6994 969.683 98.0354 966.688 104.026C963.808 110.016 959.488 114.912 953.728 118.714C947.968 122.4 940.768 124.243 932.128 124.243ZM935.757 119.059C939.673 119.059 943.187 118.311 946.297 116.813C949.408 115.315 951.827 112.896 953.555 109.555C954.937 106.906 955.859 103.68 956.32 99.8786C956.781 96.077 957.011 92.5058 957.011 89.165C957.011 83.6354 955.974 78.3362 953.901 73.2674C951.942 68.0834 949.12 63.8786 945.433 60.653C941.862 57.3122 937.6 55.6418 932.646 55.6418C929.536 55.6418 926.713 56.1602 924.179 57.197C921.76 58.1186 919.513 59.9042 917.44 62.5538C915.136 65.4338 913.638 68.9474 912.947 73.0946C912.256 77.2418 911.91 81.389 911.91 85.5362C911.91 91.181 912.947 96.5954 915.021 101.779C917.094 106.848 919.917 110.995 923.488 114.221C927.059 117.447 931.149 119.059 935.757 119.059ZM976.212 122.343C975.175 122.343 974.311 122.17 973.62 121.824C973.044 121.594 972.756 121.133 972.756 120.442C972.756 119.52 973.102 118.944 973.793 118.714C974.484 118.368 975.463 118.023 976.73 117.677C978.458 117.216 980.129 116.583 981.742 115.776C983.354 114.97 984.161 113.415 984.161 111.111V73.9586C984.161 70.8482 983.815 68.1986 983.124 66.0098C982.548 63.821 980.762 62.3234 977.767 61.517C977.306 61.2866 976.903 61.0562 976.558 60.8258C976.212 60.4802 976.039 59.9618 976.039 59.2706C976.039 58.0034 976.558 57.3122 977.594 57.197C981.626 56.1602 984.91 54.893 987.444 53.3954C989.978 51.8978 992.455 50.2274 994.874 48.3842C995.22 48.1538 995.508 47.981 995.738 47.8658C996.084 47.6354 996.43 47.5202 996.775 47.5202C997.006 47.5202 997.178 47.6354 997.294 47.8658C997.524 48.0962 997.639 48.3842 997.639 48.7298C997.639 49.5362 997.466 51.2066 997.121 53.741C996.89 56.1602 996.775 58.1762 996.775 59.789C996.775 60.2498 996.775 60.7106 996.775 61.1714C996.89 61.517 997.006 61.7474 997.121 61.8626C1001.15 58.061 1005.42 55.181 1009.91 53.2226C1014.52 51.2642 1019.53 50.285 1024.94 50.285C1030.59 50.285 1035.25 52.589 1038.94 57.197C1042.62 61.805 1044.47 67.5074 1044.47 74.3042V111.111C1044.47 113.415 1045.27 114.97 1046.89 115.776C1048.5 116.467 1050.17 117.101 1051.9 117.677C1052.82 118.023 1053.68 118.426 1054.49 118.887C1055.41 119.232 1055.87 119.866 1055.87 120.787C1055.87 121.479 1055.47 121.882 1054.66 121.997C1053.86 122.227 1053.11 122.343 1052.42 122.343C1050.11 122.343 1048.33 122.227 1047.06 121.997C1045.79 121.882 1044.58 121.767 1043.43 121.651C1042.28 121.536 1040.67 121.479 1038.59 121.479C1036.63 121.479 1035.02 121.536 1033.75 121.651C1032.49 121.767 1031.16 121.882 1029.78 121.997C1028.51 122.227 1026.73 122.343 1024.42 122.343C1023.85 122.343 1023.1 122.227 1022.18 121.997C1021.37 121.882 1020.97 121.479 1020.97 120.787C1020.97 119.866 1021.37 119.232 1022.18 118.887C1023.1 118.426 1024.02 118.023 1024.94 117.677C1026.67 117.101 1028.34 116.467 1029.95 115.776C1031.57 114.97 1032.37 113.415 1032.37 111.111V74.8226C1032.37 69.7538 1030.93 65.837 1028.05 63.0722C1025.29 60.1922 1021.54 58.6946 1016.82 58.5794C1012.67 58.5794 1009.04 59.2706 1005.93 60.653C1002.82 61.9202 1000.06 63.533 997.639 65.4914C997.178 65.9522 996.833 66.5858 996.602 67.3922C996.372 68.0834 996.257 68.7746 996.257 69.4658V111.111C996.257 113.415 997.063 114.97 998.676 115.776C1000.29 116.583 1001.96 117.216 1003.69 117.677C1006.34 118.368 1007.66 119.29 1007.66 120.442C1007.66 121.133 1007.37 121.594 1006.8 121.824C1006.22 122.17 1005.36 122.343 1004.21 122.343C1001.9 122.343 1000.06 122.227 998.676 121.997C997.409 121.882 996.199 121.767 995.047 121.651C993.895 121.536 992.282 121.479 990.209 121.479C988.25 121.479 986.638 121.536 985.37 121.651C984.218 121.767 982.951 121.882 981.569 121.997C980.302 122.227 978.516 122.343 976.212 122.343ZM1058.87 122.343C1057.83 122.343 1056.96 122.17 1056.27 121.824C1055.7 121.594 1055.41 121.133 1055.41 120.442C1055.41 119.52 1055.76 118.944 1056.45 118.714C1057.14 118.368 1058.12 118.023 1059.38 117.677C1061.11 117.216 1062.78 116.583 1064.4 115.776C1066.01 114.97 1066.81 113.415 1066.81 111.111V73.9586C1066.81 70.8482 1066.47 68.1986 1065.78 66.0098C1065.2 63.821 1063.42 62.3234 1060.42 61.517C1059.96 61.2866 1059.56 61.0562 1059.21 60.8258C1058.87 60.4802 1058.69 59.9618 1058.69 59.2706C1058.69 58.0034 1059.21 57.3122 1060.25 57.197C1064.28 56.1602 1067.56 54.893 1070.1 53.3954C1072.63 51.8978 1075.11 50.2274 1077.53 48.3842C1077.87 48.1538 1078.16 47.981 1078.39 47.8658C1078.74 47.6354 1079.08 47.5202 1079.43 47.5202C1079.66 47.5202 1079.83 47.6354 1079.95 47.8658C1080.18 48.0962 1080.29 48.3842 1080.29 48.7298C1080.29 49.5362 1080.12 51.2066 1079.77 53.741C1079.54 56.1602 1079.43 58.1762 1079.43 59.789C1079.43 60.2498 1079.43 60.7106 1079.43 61.1714C1079.54 61.517 1079.66 61.7474 1079.77 61.8626C1083.81 58.061 1088.07 55.181 1092.56 53.2226C1097.17 51.2642 1102.18 50.285 1107.6 50.285C1113.24 50.285 1117.91 52.589 1121.59 57.197C1125.28 61.805 1127.12 67.5074 1127.12 74.3042V111.111C1127.12 113.415 1127.93 114.97 1129.54 115.776C1131.15 116.467 1132.82 117.101 1134.55 117.677C1135.47 118.023 1136.34 118.426 1137.14 118.887C1138.07 119.232 1138.53 119.866 1138.53 120.787C1138.53 121.479 1138.12 121.882 1137.32 121.997C1136.51 122.227 1135.76 122.343 1135.07 122.343C1132.77 122.343 1130.98 122.227 1129.71 121.997C1128.45 121.882 1127.24 121.767 1126.08 121.651C1124.93 121.536 1123.32 121.479 1121.25 121.479C1119.29 121.479 1117.68 121.536 1116.41 121.651C1115.14 121.767 1113.82 121.882 1112.43 121.997C1111.17 122.227 1109.38 122.343 1107.08 122.343C1106.5 122.343 1105.75 122.227 1104.83 121.997C1104.02 121.882 1103.62 121.479 1103.62 120.787C1103.62 119.866 1104.02 119.232 1104.83 118.887C1105.75 118.426 1106.67 118.023 1107.6 117.677C1109.32 117.101 1110.99 116.467 1112.61 115.776C1114.22 114.97 1115.03 113.415 1115.03 111.111V74.8226C1115.03 69.7538 1113.59 65.837 1110.71 63.0722C1107.94 60.1922 1104.2 58.6946 1099.47 58.5794C1095.33 58.5794 1091.7 59.2706 1088.59 60.653C1085.48 61.9202 1082.71 63.533 1080.29 65.4914C1079.83 65.9522 1079.49 66.5858 1079.26 67.3922C1079.03 68.0834 1078.91 68.7746 1078.91 69.4658V111.111C1078.91 113.415 1079.72 114.97 1081.33 115.776C1082.94 116.583 1084.61 117.216 1086.34 117.677C1088.99 118.368 1090.32 119.29 1090.32 120.442C1090.32 121.133 1090.03 121.594 1089.45 121.824C1088.88 122.17 1088.01 122.343 1086.86 122.343C1084.56 122.343 1082.71 122.227 1081.33 121.997C1080.06 121.882 1078.85 121.767 1077.7 121.651C1076.55 121.536 1074.94 121.479 1072.86 121.479C1070.9 121.479 1069.29 121.536 1068.02 121.651C1066.87 121.767 1065.6 121.882 1064.22 121.997C1062.96 122.227 1061.17 122.343 1058.87 122.343ZM1170.72 124.416C1164.39 124.416 1158.86 122.861 1154.13 119.751C1149.41 116.64 1145.72 112.263 1143.07 106.618C1140.43 100.858 1139.1 94.2338 1139.1 86.7458C1139.1 80.0642 1140.6 74.0162 1143.59 68.6018C1146.7 63.0722 1150.79 58.637 1155.86 55.2962C1160.93 51.9554 1166.46 50.285 1172.45 50.285C1177.06 50.285 1181.15 51.2066 1184.72 53.0498C1188.29 54.893 1191.06 57.485 1193.01 60.8258C1195.09 64.0514 1196.12 67.7954 1196.12 72.0578C1196.12 75.629 1194.4 77.4146 1190.94 77.4146H1154.48C1152.87 77.4146 1151.71 77.8754 1151.02 78.797C1150.45 79.6034 1150.16 81.2738 1150.16 83.8082C1150.16 89.3378 1151.37 94.4066 1153.79 99.0146C1156.21 103.507 1159.43 107.136 1163.47 109.901C1167.5 112.551 1171.93 113.875 1176.77 113.875C1180.23 113.875 1183.34 113.242 1186.1 111.975C1188.98 110.592 1191.52 108.634 1193.71 106.099C1194.17 105.523 1194.51 105.178 1194.74 105.063C1194.97 104.832 1195.26 104.717 1195.61 104.717C1196.53 104.717 1196.99 105.293 1196.99 106.445C1196.99 108.634 1195.95 111.053 1193.88 113.703C1192.15 115.891 1190.08 117.792 1187.66 119.405C1185.24 121.018 1182.59 122.227 1179.71 123.034C1176.83 123.955 1173.83 124.416 1170.72 124.416ZM1154.83 72.0578H1170.55C1173.31 72.0578 1175.68 72.0002 1177.63 71.885C1179.59 71.7698 1181.49 71.5394 1183.34 71.1938C1183.91 71.0786 1184.26 70.733 1184.37 70.157C1184.6 69.4658 1184.72 68.5442 1184.72 67.3922C1184.72 64.0514 1183.22 61.229 1180.23 58.925C1177.35 56.5058 1173.89 55.2962 1169.86 55.2962C1167.21 55.2962 1164.56 56.1026 1161.91 57.7154C1159.26 59.213 1157.07 61.1138 1155.34 63.4178C1153.62 65.7218 1152.75 68.0258 1152.75 70.3298C1152.75 71.4818 1153.44 72.0578 1154.83 72.0578ZM1227.73 124.416C1221.97 124.416 1216.72 122.976 1212 120.096C1207.39 117.101 1203.71 113.069 1200.94 108C1198.29 102.816 1196.97 97.0562 1196.97 90.7202C1196.97 83.2322 1198.58 76.4354 1201.81 70.3298C1205.15 64.2242 1209.58 59.3858 1215.11 55.8146C1220.64 52.1282 1226.75 50.285 1233.43 50.285C1240.92 50.285 1247.48 52.301 1253.13 56.333C1254.51 57.3698 1255.2 58.4642 1255.2 59.6162C1255.2 60.5378 1254.8 61.5746 1253.99 62.7266C1253.19 63.8786 1252.21 64.8578 1251.05 65.6642C1249.9 66.3554 1248.81 66.701 1247.77 66.701C1247.2 66.701 1246.62 66.5282 1246.04 66.1826C1245.47 65.7218 1244.83 65.261 1244.14 64.8002C1241.61 62.8418 1238.79 60.9986 1235.68 59.2706C1232.56 57.5426 1229.97 56.6786 1227.9 56.6786C1222.25 56.6786 1217.65 59.3282 1214.08 64.6274C1210.62 69.8114 1208.89 76.6658 1208.89 85.1906C1208.89 90.605 1210.04 95.501 1212.35 99.8786C1214.77 104.256 1217.93 107.712 1221.85 110.247C1225.88 112.781 1230.32 114.048 1235.16 114.048C1238.5 114.048 1241.38 113.53 1243.8 112.493C1246.22 111.341 1248.81 109.383 1251.57 106.618C1251.8 106.387 1252.09 106.215 1252.44 106.099C1252.78 105.869 1253.07 105.754 1253.3 105.754C1254.57 105.754 1255.2 106.56 1255.2 108.173C1255.2 108.864 1254.97 109.671 1254.51 110.592C1254.16 111.399 1253.53 112.378 1252.61 113.53C1250.77 115.834 1248.58 117.85 1246.04 119.578C1243.51 121.191 1240.69 122.4 1237.58 123.207C1234.58 124.013 1231.3 124.416 1227.73 124.416ZM1285.31 124.243C1279.66 124.243 1275.23 122.515 1272 119.059C1268.89 115.603 1267.34 110.477 1267.34 103.68V63.5906C1267.34 62.669 1266.99 62.0354 1266.3 61.6898C1265.61 61.229 1264.11 60.9986 1261.81 60.9986H1260.77C1260.19 60.9986 1259.68 60.653 1259.22 59.9618C1258.87 59.1554 1258.7 58.349 1258.7 57.5426C1258.7 57.3122 1258.87 56.9666 1259.22 56.5058C1259.56 56.045 1259.79 55.757 1259.91 55.6418C1262.21 54.029 1264.28 52.4162 1266.13 50.8034C1268.09 49.1906 1269.81 47.6354 1271.31 46.1378C1272.92 44.525 1274.25 43.085 1275.29 41.8178C1275.86 41.2418 1276.32 40.781 1276.67 40.4354C1277.13 39.9746 1277.65 39.7442 1278.22 39.7442C1278.8 39.7442 1279.32 39.8594 1279.78 40.0898C1280.35 40.3202 1280.58 40.8386 1280.47 41.645L1279.61 49.421C1279.49 50.6882 1279.78 51.5522 1280.47 52.013C1281.16 52.4738 1282.26 52.7042 1283.75 52.7042H1303.45C1303.91 52.7042 1304.32 53.1074 1304.66 53.9138C1305.01 54.605 1305.18 55.469 1305.18 56.5058C1305.18 57.5426 1305.01 58.5794 1304.66 59.6162C1304.32 60.5378 1303.91 60.9986 1303.45 60.9986H1286.34C1283.46 60.9986 1281.56 61.229 1280.64 61.6898C1279.84 62.1506 1279.43 63.533 1279.43 65.837V99.8786C1279.43 104.487 1280.41 108.115 1282.37 110.765C1284.33 113.415 1287.15 114.739 1290.84 114.739C1294.18 114.739 1296.77 114.509 1298.61 114.048C1300.46 113.472 1302.13 112.666 1303.62 111.629C1303.86 111.399 1304.09 111.283 1304.32 111.283C1304.78 111.283 1305.06 111.571 1305.18 112.147C1305.41 112.608 1305.53 113.127 1305.53 113.703C1305.53 114.279 1304.55 115.431 1302.59 117.159C1300.74 118.887 1298.27 120.499 1295.16 121.997C1292.16 123.495 1288.88 124.243 1285.31 124.243ZM1305.95 122.343C1304.91 122.343 1304.05 122.17 1303.36 121.824C1302.78 121.594 1302.49 121.133 1302.49 120.442C1302.49 119.52 1302.9 118.887 1303.7 118.541C1304.62 118.195 1305.55 117.907 1306.47 117.677C1308.89 117.101 1310.73 116.41 1312 115.603C1313.26 114.682 1313.9 113.184 1313.9 111.111V73.613C1313.9 70.5026 1313.32 67.7378 1312.17 65.3186C1311.13 62.8994 1309.12 61.4594 1306.12 60.9986C1305.55 60.8834 1305.09 60.653 1304.74 60.3074C1304.51 59.9618 1304.39 59.4434 1304.39 58.7522C1304.39 57.485 1304.91 56.7938 1305.95 56.6786C1310.56 55.6418 1314.36 54.2594 1317.35 52.5314C1320.35 50.6882 1322.6 49.1906 1324.09 48.0386C1325.13 47.2322 1325.94 46.829 1326.51 46.829C1327.2 46.829 1327.55 47.117 1327.55 47.693C1327.55 48.6146 1327.38 50.4578 1327.03 53.2226C1326.8 55.8722 1326.57 58.8674 1326.34 62.2082C1326.11 65.4338 1325.99 68.3714 1325.99 71.021V111.111C1325.99 113.069 1326.63 114.509 1327.9 115.431C1329.28 116.352 1331.12 117.101 1333.42 117.677C1334.35 117.907 1335.21 118.195 1336.02 118.541C1336.94 118.887 1337.4 119.52 1337.4 120.442C1337.4 121.709 1336.25 122.343 1333.94 122.343C1331.75 122.343 1329.97 122.227 1328.59 121.997C1327.32 121.882 1326.05 121.767 1324.78 121.651C1323.63 121.536 1322.02 121.479 1319.95 121.479C1317.99 121.479 1316.38 121.536 1315.11 121.651C1313.84 121.767 1312.57 121.882 1311.31 121.997C1310.04 122.227 1308.25 122.343 1305.95 122.343ZM1319.77 32.6594C1317.35 32.6594 1315.28 31.853 1313.55 30.2402C1311.94 28.5122 1311.13 26.4386 1311.13 24.0194C1311.13 21.485 1311.94 19.4114 1313.55 17.7986C1315.28 16.0706 1317.35 15.2066 1319.77 15.2066C1322.31 15.2066 1324.38 16.0706 1325.99 17.7986C1327.72 19.4114 1328.59 21.485 1328.59 24.0194C1328.59 26.4386 1327.72 28.5122 1325.99 30.2402C1324.38 31.853 1322.31 32.6594 1319.77 32.6594ZM1372.5 124.243C1366.05 124.243 1360.23 122.746 1355.05 119.751C1349.86 116.755 1345.71 112.666 1342.6 107.482C1339.61 102.183 1338.11 96.1922 1338.11 89.5106C1338.11 84.6722 1339.03 79.949 1340.88 75.341C1342.83 70.733 1345.54 66.5282 1349 62.7266C1352.45 58.925 1356.49 55.9298 1361.09 53.741C1365.7 51.437 1370.65 50.285 1375.95 50.285C1382.64 50.285 1388.63 51.8978 1393.93 55.1234C1399.34 58.349 1403.6 62.6114 1406.71 67.9106C1409.94 73.0946 1411.55 78.797 1411.55 85.0178C1411.55 91.6994 1410.05 98.0354 1407.06 104.026C1404.18 110.016 1399.86 114.912 1394.1 118.714C1388.34 122.4 1381.14 124.243 1372.5 124.243ZM1376.13 119.059C1380.04 119.059 1383.56 118.311 1386.67 116.813C1389.78 115.315 1392.2 112.896 1393.93 109.555C1395.31 106.906 1396.23 103.68 1396.69 99.8786C1397.15 96.077 1397.38 92.5058 1397.38 89.165C1397.38 83.6354 1396.34 78.3362 1394.27 73.2674C1392.31 68.0834 1389.49 63.8786 1385.8 60.653C1382.23 57.3122 1377.97 55.6418 1373.02 55.6418C1369.91 55.6418 1367.08 56.1602 1364.55 57.197C1362.13 58.1186 1359.88 59.9042 1357.81 62.5538C1355.51 65.4338 1354.01 68.9474 1353.32 73.0946C1352.63 77.2418 1352.28 81.389 1352.28 85.5362C1352.28 91.181 1353.32 96.5954 1355.39 101.779C1357.46 106.848 1360.29 110.995 1363.86 114.221C1367.43 117.447 1371.52 119.059 1376.13 119.059ZM1416.58 122.343C1415.55 122.343 1414.68 122.17 1413.99 121.824C1413.41 121.594 1413.13 121.133 1413.13 120.442C1413.13 119.52 1413.47 118.944 1414.16 118.714C1414.85 118.368 1415.83 118.023 1417.1 117.677C1418.83 117.216 1420.5 116.583 1422.11 115.776C1423.72 114.97 1424.53 113.415 1424.53 111.111V73.9586C1424.53 70.8482 1424.19 68.1986 1423.49 66.0098C1422.92 63.821 1421.13 62.3234 1418.14 61.517C1417.68 61.2866 1417.27 61.0562 1416.93 60.8258C1416.58 60.4802 1416.41 59.9618 1416.41 59.2706C1416.41 58.0034 1416.93 57.3122 1417.96 57.197C1422 56.1602 1425.28 54.893 1427.81 53.3954C1430.35 51.8978 1432.83 50.2274 1435.24 48.3842C1435.59 48.1538 1435.88 47.981 1436.11 47.8658C1436.45 47.6354 1436.8 47.5202 1437.15 47.5202C1437.38 47.5202 1437.55 47.6354 1437.66 47.8658C1437.89 48.0962 1438.01 48.3842 1438.01 48.7298C1438.01 49.5362 1437.84 51.2066 1437.49 53.741C1437.26 56.1602 1437.15 58.1762 1437.15 59.789C1437.15 60.2498 1437.15 60.7106 1437.15 61.1714C1437.26 61.517 1437.38 61.7474 1437.49 61.8626C1441.52 58.061 1445.79 55.181 1450.28 53.2226C1454.89 51.2642 1459.9 50.285 1465.31 50.285C1470.96 50.285 1475.62 52.589 1479.31 57.197C1482.99 61.805 1484.84 67.5074 1484.84 74.3042V111.111C1484.84 113.415 1485.64 114.97 1487.26 115.776C1488.87 116.467 1490.54 117.101 1492.27 117.677C1493.19 118.023 1494.05 118.426 1494.86 118.887C1495.78 119.232 1496.24 119.866 1496.24 120.787C1496.24 121.479 1495.84 121.882 1495.03 121.997C1494.23 122.227 1493.48 122.343 1492.79 122.343C1490.48 122.343 1488.7 122.227 1487.43 121.997C1486.16 121.882 1484.95 121.767 1483.8 121.651C1482.65 121.536 1481.04 121.479 1478.96 121.479C1477 121.479 1475.39 121.536 1474.12 121.651C1472.86 121.767 1471.53 121.882 1470.15 121.997C1468.88 122.227 1467.1 122.343 1464.79 122.343C1464.22 122.343 1463.47 122.227 1462.55 121.997C1461.74 121.882 1461.34 121.479 1461.34 120.787C1461.34 119.866 1461.74 119.232 1462.55 118.887C1463.47 118.426 1464.39 118.023 1465.31 117.677C1467.04 117.101 1468.71 116.467 1470.32 115.776C1471.94 114.97 1472.74 113.415 1472.74 111.111V74.8226C1472.74 69.7538 1471.3 65.837 1468.42 63.0722C1465.66 60.1922 1461.91 58.6946 1457.19 58.5794C1453.04 58.5794 1449.41 59.2706 1446.3 60.653C1443.19 61.9202 1440.43 63.533 1438.01 65.4914C1437.55 65.9522 1437.2 66.5858 1436.97 67.3922C1436.74 68.0834 1436.63 68.7746 1436.63 69.4658V111.111C1436.63 113.415 1437.43 114.97 1439.05 115.776C1440.66 116.583 1442.33 117.216 1444.06 117.677C1446.71 118.368 1448.03 119.29 1448.03 120.442C1448.03 121.133 1447.74 121.594 1447.17 121.824C1446.59 122.17 1445.73 122.343 1444.58 122.343C1442.27 122.343 1440.43 122.227 1439.05 121.997C1437.78 121.882 1436.57 121.767 1435.42 121.651C1434.27 121.536 1432.65 121.479 1430.58 121.479C1428.62 121.479 1427.01 121.536 1425.74 121.651C1424.59 121.767 1423.32 121.882 1421.94 121.997C1420.67 122.227 1418.89 122.343 1416.58 122.343Z" fill="black"/>
</g>
<defs>
<filter id="filter0_i_70_2451" x="0" y="0" width="1496.24" height="124.416" filterUnits="userSpaceOnUse" color-interpolation-filters="sRGB">
<feFlood flood-opacity="0" result="BackgroundImageFix"/>
<feBlend mode="normal" in="SourceGraphic" in2="BackgroundImageFix" result="shape"/>
<feColorMatrix in="SourceAlpha" type="matrix" values="0 0 0 0 0 0 0 0 0 0 0 0 0 0 0 0 0 0 127 0" result="hardAlpha"/>
<feOffset/>
<feGaussianBlur stdDeviation="2.88"/>
<feComposite in2="hardAlpha" operator="arithmetic" k2="-1" k3="1"/>
<feColorMatrix type="matrix" values="0 0 0 0 0.616361 0 0 0 0 0.570158 0 0 0 0 0.523956 0 0 0 1 0"/>
<feBlend mode="normal" in2="shape" result="effect1_innerShadow_70_2451"/>
</filter>
</defs>
</svg>
