<svg width="1759" height="172" viewBox="0 0 1759 172" fill="none" xmlns="http://www.w3.org/2000/svg">
<g filter="url(#filter0_i_70_2452)" style="mix-blend-mode:color-burn">
<path d="M13.824 124.243C11.7504 124.243 9.61925 123.437 7.43045 121.824C5.35685 120.211 3.57125 118.253 2.07365 115.949C0.691246 113.645 4.55078e-05 111.456 4.55078e-05 109.383C4.55078e-05 105.696 0.979246 102.816 2.93765 100.743C4.89605 98.669 8.00645 96.7682 12.2688 95.0402L29.8944 87.7826C32.1984 86.861 33.5232 86.0546 33.8688 85.3634C34.3296 84.6722 34.6176 83.1746 34.7328 80.8706L35.0784 69.8114C35.1936 66.8162 34.3296 64.2242 32.4864 62.0354C30.7584 59.8466 28.224 58.7522 24.8832 58.7522C23.1552 58.7522 21.4272 59.0402 19.6992 59.6162C17.9712 60.1922 16.5312 60.941 15.3792 61.8626C14.688 62.3234 14.2272 63.0146 13.9968 63.9362C13.7664 64.8578 13.6512 65.837 13.6512 66.8738C13.6512 67.3346 13.6512 67.853 13.6512 68.429C13.7664 69.005 13.824 69.5234 13.824 69.9842C13.824 70.5602 13.0752 71.3666 11.5776 72.4034C10.1952 73.325 8.58245 74.189 6.73925 74.9954C5.01125 75.6866 3.57125 76.0322 2.41925 76.0322C1.84325 76.0322 1.38245 75.917 1.03685 75.6866C0.691246 75.341 0.518446 74.9378 0.518446 74.477C0.518446 72.6338 1.09445 70.6754 2.24645 68.6018C3.51365 66.413 5.24165 64.397 7.43045 62.5538C10.08 60.1346 12.96 58.0034 16.0704 56.1602C19.1808 54.317 22.2336 52.877 25.2288 51.8402C28.224 50.8034 30.8736 50.285 33.1776 50.285C37.3248 50.285 40.7232 51.7826 43.3728 54.7778C46.1376 57.6578 47.4624 61.2866 47.3472 65.6642L46.4833 107.136C46.368 109.555 46.8864 111.514 48.0385 113.011C49.3056 114.509 50.8608 115.258 52.704 115.258C55.584 115.258 57.7152 114.624 59.0976 113.357C59.6736 112.781 60.1344 112.493 60.4801 112.493C61.0561 112.493 61.5168 112.666 61.8624 113.011C62.2081 113.357 62.3809 113.818 62.3809 114.394C62.3809 115.661 61.7473 116.928 60.4801 118.195C58.6369 120.039 56.6209 121.479 54.4321 122.515C52.3585 123.667 50.4 124.243 48.5568 124.243C43.2576 124.243 39.0528 121.248 35.9424 115.258H35.424C31.6224 118.368 27.9936 120.615 24.5376 121.997C21.0816 123.495 17.5104 124.243 13.824 124.243ZM21.9456 115.949C24.2496 115.949 26.208 115.603 27.8208 114.912C29.4336 114.106 30.8736 113.069 32.1408 111.802C32.7168 111.226 33.1776 110.477 33.5232 109.555C33.984 108.519 34.272 106.906 34.3872 104.717L34.7328 96.2498C34.848 94.9826 34.7904 94.061 34.56 93.485C34.3296 92.909 33.8688 92.621 33.1776 92.621C32.9472 92.621 32.544 92.6786 31.968 92.7938C31.392 92.909 30.6432 93.1394 29.7216 93.485C23.616 95.6738 19.3536 97.9778 16.9344 100.397C14.6304 102.701 13.4784 104.832 13.4784 106.791C13.4784 109.786 14.3424 112.09 16.0704 113.703C17.9136 115.2 19.872 115.949 21.9456 115.949ZM60.7244 122.343C60.1484 122.343 59.3996 122.227 58.478 121.997C57.6716 121.882 57.2684 121.479 57.2684 120.787C57.2684 119.866 57.6716 119.232 58.478 118.887C59.3996 118.426 60.3212 118.023 61.2428 117.677C62.9708 117.101 64.6412 116.467 66.254 115.776C67.8668 114.97 68.6732 113.415 68.6732 111.111V24.0194C68.6732 20.6786 68.0396 17.9138 66.7724 15.725C65.6204 13.421 63.6044 11.981 60.7244 11.405C59.8028 11.1746 59.342 10.4258 59.342 9.15862C59.342 8.00661 59.7452 7.31541 60.5516 7.08501C63.5468 6.39381 66.1388 5.70261 68.3276 5.01141C70.5164 4.20501 72.5324 3.39861 74.3756 2.59221C76.334 1.78581 78.2348 1.03701 80.078 0.345815C80.5388 0.115411 80.8844 0.000209183 81.1148 0.000209183C81.3452 0.000209183 81.518 0.17301 81.6332 0.518613C81.8636 0.74901 81.9788 0.97941 81.9788 1.20981C81.9788 2.24661 81.7484 4.49301 81.2876 7.94901C80.942 11.2898 80.7692 16.877 80.7692 24.7106V111.111C80.7692 113.415 81.5756 114.97 83.1884 115.776C84.8012 116.467 86.4716 117.101 88.1996 117.677C89.1212 118.023 89.9852 118.426 90.7916 118.887C91.7132 119.232 92.174 119.866 92.174 120.787C92.174 121.479 91.7132 121.882 90.7916 121.997C89.9852 122.227 89.294 122.343 88.718 122.343C86.5292 122.343 84.7436 122.227 83.3612 121.997C82.094 121.882 80.8268 121.767 79.5596 121.651C78.4076 121.536 76.7948 121.479 74.7212 121.479C72.7628 121.479 71.15 121.536 69.8828 121.651C68.6156 121.767 67.3484 121.882 66.0812 121.997C64.814 122.227 63.0284 122.343 60.7244 122.343ZM125.91 125.799C125.68 125.799 125.45 125.683 125.219 125.453C124.989 125.223 124.816 124.935 124.701 124.589L100.682 64.973C99.8753 62.669 98.6081 60.8258 96.8801 59.4434C95.1521 57.9458 93.4241 56.9666 91.6961 56.5058C90.7745 56.1602 89.8529 55.757 88.9313 55.2962C88.1249 54.8354 87.7217 54.2018 87.7217 53.3954C87.7217 52.7042 88.1249 52.301 88.9313 52.1858C89.8529 51.9554 90.6017 51.8402 91.1777 51.8402C92.6753 51.8402 94.0577 51.8978 95.3249 52.013C96.7073 52.1282 98.0897 52.301 99.4721 52.5314C100.854 52.6466 102.294 52.7042 103.792 52.7042C105.405 52.7042 107.018 52.6466 108.63 52.5314C110.243 52.301 111.798 52.1282 113.296 52.013C114.909 51.8978 116.522 51.8402 118.134 51.8402C118.595 51.8402 119.286 51.9554 120.208 52.1858C121.13 52.301 121.59 52.7042 121.59 53.3954C121.59 54.2018 121.13 54.8354 120.208 55.2962C119.402 55.757 118.538 56.1602 117.616 56.5058C116.464 56.8514 115.542 57.7154 114.851 59.0978C114.275 60.365 113.987 61.805 113.987 63.4178C113.987 64.9154 114.275 66.413 114.851 67.9106L128.33 102.643C128.445 103.104 128.733 103.335 129.194 103.335C129.654 103.335 129.942 103.104 130.058 102.643L141.808 74.6498C142.384 73.1522 142.73 71.7122 142.845 70.3298C143.075 68.9474 143.19 67.6226 143.19 66.3554C143.19 63.821 142.211 61.7474 140.253 60.1346C138.295 58.5218 136.336 57.3122 134.378 56.5058C133.456 56.1602 132.534 55.757 131.613 55.2962C130.806 54.8354 130.403 54.2018 130.403 53.3954C130.403 52.7042 130.806 52.301 131.613 52.1858C132.419 51.9554 133.168 51.8402 133.859 51.8402C135.472 51.8402 137.2 52.013 139.043 52.3586C141.002 52.589 143.594 52.7042 146.819 52.7042C150.045 52.7042 152.81 52.589 155.114 52.3586C157.418 52.013 159.491 51.8402 161.335 51.8402C161.911 51.8402 162.602 51.9554 163.408 52.1858C164.33 52.301 164.791 52.7042 164.791 53.3954C164.791 54.2018 164.33 54.8354 163.408 55.2962C162.602 55.757 161.738 56.1602 160.816 56.5058C159.549 56.9666 158.224 57.6002 156.842 58.4066C155.575 59.213 154.941 60.653 154.941 62.7266C154.941 63.4178 154.999 64.2242 155.114 65.1458C155.344 65.9522 155.69 66.8738 156.151 67.9106L169.11 101.261C169.687 102.528 170.147 103.162 170.493 103.162C170.954 103.162 171.415 102.586 171.875 101.434L185.008 70.8482C185.469 69.9266 185.757 68.7746 185.872 67.3922C186.103 66.0098 186.218 64.9154 186.218 64.109C186.218 62.0354 185.527 60.365 184.144 59.0978C182.762 57.8306 181.437 56.9666 180.17 56.5058C179.248 56.1602 178.327 55.757 177.405 55.2962C176.599 54.8354 176.195 54.2018 176.195 53.3954C176.195 52.7042 176.599 52.301 177.405 52.1858C178.327 51.9554 179.075 51.8402 179.651 51.8402C182.186 51.8402 184.202 52.013 185.699 52.3586C187.197 52.589 189.501 52.7042 192.611 52.7042C194.8 52.7042 196.355 52.6466 197.277 52.5314C198.199 52.301 199.005 52.1282 199.696 52.013C200.387 51.8978 201.367 51.8402 202.634 51.8402C203.325 51.8402 204.074 51.9554 204.88 52.1858C205.687 52.301 206.09 52.7042 206.09 53.3954C206.09 54.2018 205.629 54.8354 204.707 55.2962C203.901 55.757 203.037 56.1602 202.115 56.5058C200.387 56.9666 198.717 58.349 197.104 60.653C195.491 62.8418 194.109 65.261 192.957 67.9106L169.283 124.589C168.938 125.395 168.419 125.799 167.728 125.799C167.267 125.799 166.807 125.395 166.346 124.589L148.374 80.0066C148.029 79.085 147.683 78.5666 147.338 78.4514C146.992 78.4514 146.589 79.0274 146.128 80.1794L127.293 124.589C126.947 125.395 126.486 125.799 125.91 125.799ZM214.198 124.243C212.124 124.243 209.993 123.437 207.804 121.824C205.731 120.211 203.945 118.253 202.447 115.949C201.065 113.645 200.374 111.456 200.374 109.383C200.374 105.696 201.353 102.816 203.311 100.743C205.27 98.669 208.38 96.7682 212.643 95.0402L230.268 87.7826C232.572 86.861 233.897 86.0546 234.243 85.3634C234.703 84.6722 234.991 83.1746 235.107 80.8706L235.452 69.8114C235.567 66.8162 234.703 64.2242 232.86 62.0354C231.132 59.8466 228.598 58.7522 225.257 58.7522C223.529 58.7522 221.801 59.0402 220.073 59.6162C218.345 60.1922 216.905 60.941 215.753 61.8626C215.062 62.3234 214.601 63.0146 214.371 63.9362C214.14 64.8578 214.025 65.837 214.025 66.8738C214.025 67.3346 214.025 67.853 214.025 68.429C214.14 69.005 214.198 69.5234 214.198 69.9842C214.198 70.5602 213.449 71.3666 211.951 72.4034C210.569 73.325 208.956 74.189 207.113 74.9954C205.385 75.6866 203.945 76.0322 202.793 76.0322C202.217 76.0322 201.756 75.917 201.411 75.6866C201.065 75.341 200.892 74.9378 200.892 74.477C200.892 72.6338 201.468 70.6754 202.62 68.6018C203.887 66.413 205.615 64.397 207.804 62.5538C210.454 60.1346 213.334 58.0034 216.444 56.1602C219.555 54.317 222.607 52.877 225.603 51.8402C228.598 50.8034 231.247 50.285 233.551 50.285C237.699 50.285 241.097 51.7826 243.747 54.7778C246.511 57.6578 247.836 61.2866 247.721 65.6642L246.857 107.136C246.742 109.555 247.26 111.514 248.412 113.011C249.679 114.509 251.235 115.258 253.078 115.258C255.958 115.258 258.089 114.624 259.471 113.357C260.047 112.781 260.508 112.493 260.854 112.493C261.43 112.493 261.891 112.666 262.236 113.011C262.582 113.357 262.755 113.818 262.755 114.394C262.755 115.661 262.121 116.928 260.854 118.195C259.011 120.039 256.995 121.479 254.806 122.515C252.732 123.667 250.774 124.243 248.931 124.243C243.631 124.243 239.427 121.248 236.316 115.258H235.798C231.996 118.368 228.367 120.615 224.911 121.997C221.455 123.495 217.884 124.243 214.198 124.243ZM222.319 115.949C224.623 115.949 226.582 115.603 228.195 114.912C229.807 114.106 231.247 113.069 232.515 111.802C233.091 111.226 233.551 110.477 233.897 109.555C234.358 108.519 234.646 106.906 234.761 104.717L235.107 96.2498C235.222 94.9826 235.164 94.061 234.934 93.485C234.703 92.909 234.243 92.621 233.551 92.621C233.321 92.621 232.918 92.6786 232.342 92.7938C231.766 92.909 231.017 93.1394 230.095 93.485C223.99 95.6738 219.727 97.9778 217.308 100.397C215.004 102.701 213.852 104.832 213.852 106.791C213.852 109.786 214.716 112.09 216.444 113.703C218.287 115.2 220.246 115.949 222.319 115.949ZM263.731 171.072C261.542 171.072 259.526 170.496 257.683 169.344C255.839 168.307 254.918 166.522 254.918 163.987C254.918 161.914 255.379 160.071 256.3 158.458C257.337 156.96 258.777 156.211 260.62 156.211C261.887 156.211 263.097 156.384 264.249 156.73C265.516 157.075 266.611 157.248 267.532 157.248C268.223 157.248 268.799 157.075 269.26 156.73C269.836 156.499 270.355 156.039 270.815 155.347C272.083 153.274 273.523 150.682 275.135 147.571C276.863 144.461 278.591 140.947 280.319 137.031C282.163 133.114 283.891 128.967 285.503 124.589C285.849 123.552 286.022 122.227 286.022 120.615C286.022 119.693 285.964 118.829 285.849 118.023C285.734 117.101 285.561 116.295 285.331 115.603L265.286 64.973C264.479 62.8994 263.385 61.1138 262.003 59.6162C260.735 58.0034 259.238 56.9666 257.51 56.5058C256.588 56.1602 255.667 55.757 254.745 55.2962C253.939 54.8354 253.535 54.2018 253.535 53.3954C253.535 52.7042 253.939 52.301 254.745 52.1858C255.667 51.9554 256.415 51.8402 256.991 51.8402C259.295 51.8402 260.966 51.8978 262.003 52.013C263.155 52.1282 264.191 52.301 265.113 52.5314C266.15 52.6466 267.647 52.7042 269.606 52.7042C271.679 52.7042 273.235 52.6466 274.271 52.5314C275.308 52.301 276.403 52.1282 277.555 52.013C278.707 51.8978 280.435 51.8402 282.739 51.8402C283.43 51.8402 284.179 52.013 284.985 52.3586C285.791 52.589 286.195 53.0498 286.195 53.741C286.195 54.5474 285.561 55.3538 284.294 56.1602C283.142 56.8514 282.105 57.3122 281.183 57.5426C280.031 57.8882 279.167 58.5218 278.591 59.4434C278.015 60.2498 277.727 61.4594 277.727 63.0722C277.727 63.7634 277.9 64.6274 278.246 65.6642C278.591 66.5858 278.879 67.3346 279.11 67.9106L293.107 102.471C293.337 103.162 293.683 103.507 294.143 103.507C294.489 103.507 294.777 103.162 295.007 102.471L306.931 70.8482C307.276 70.0418 307.564 69.005 307.795 67.7378C308.14 66.3554 308.313 65.261 308.313 64.4546C308.313 62.2658 307.967 60.7682 307.276 59.9618C306.7 59.0402 305.894 58.349 304.857 57.8882C303.935 57.4274 302.841 56.8514 301.574 56.1602C300.422 55.3538 299.846 54.5474 299.846 53.741C299.846 53.0498 300.249 52.589 301.055 52.3586C301.977 52.013 302.726 51.8402 303.302 51.8402C304.915 51.8402 306.527 52.013 308.14 52.3586C309.868 52.589 312.345 52.7042 315.571 52.7042C317.759 52.7042 319.315 52.6466 320.236 52.5314C321.273 52.301 322.137 52.1282 322.828 52.013C323.519 51.8978 324.499 51.8402 325.766 51.8402C326.342 51.8402 327.033 51.9554 327.839 52.1858C328.761 52.301 329.222 52.7042 329.222 53.3954C329.222 54.2018 328.761 54.8354 327.839 55.2962C327.033 55.757 326.169 56.1602 325.247 56.5058C323.519 56.9666 321.676 58.349 319.718 60.653C317.759 62.8418 316.204 65.3186 315.052 68.0834L291.551 124.071C291.436 124.416 290.803 125.914 289.651 128.563C288.614 131.213 287.289 134.496 285.676 138.413C284.063 142.33 282.278 146.535 280.319 151.027C278.476 155.52 276.691 159.84 274.963 163.987C273.926 166.291 272.428 168.019 270.47 169.171C268.511 170.439 266.265 171.072 263.731 171.072ZM344.683 124.243C341.112 124.243 337.771 123.667 334.661 122.515C331.551 121.479 328.901 119.981 326.712 118.023C326.136 116.755 325.675 114.624 325.33 111.629C325.099 108.634 324.927 106.157 324.811 104.199C324.811 103.162 325.56 102.643 327.058 102.643C327.519 102.643 327.922 102.759 328.267 102.989C328.728 103.104 329.016 103.392 329.131 103.853C330.629 109.498 332.991 113.53 336.216 115.949C339.557 118.368 342.898 119.578 346.239 119.578C349.579 119.578 352.402 118.483 354.706 116.295C357.125 113.991 358.335 111.168 358.335 107.827C358.335 104.717 357.298 102.067 355.224 99.8786C353.151 97.5746 349.522 94.8098 344.338 91.5842C340.421 89.165 337.253 86.861 334.834 84.6722C332.415 82.4834 330.629 80.237 329.477 77.933C328.44 75.629 327.922 73.037 327.922 70.157C327.922 66.4706 328.786 63.1298 330.514 60.1346C332.242 57.1394 334.834 54.7778 338.29 53.0498C341.746 51.2066 346.066 50.285 351.25 50.285C354.706 50.285 357.586 50.6306 359.89 51.3218C362.194 52.013 363.922 52.7618 365.074 53.5682C365.995 54.8354 366.744 56.8514 367.32 59.6162C368.011 62.2658 368.357 64.8002 368.357 67.2194C368.357 68.0258 367.781 68.429 366.629 68.429C365.938 68.429 365.247 68.3138 364.555 68.0834C363.979 67.7378 363.576 67.3346 363.346 66.8738C361.848 63.0722 359.947 60.1922 357.643 58.2338C355.455 56.1602 352.69 55.1234 349.349 55.1234C346.469 55.1234 343.877 55.9874 341.573 57.7154C339.384 59.4434 338.29 61.9778 338.29 65.3186C338.29 67.9682 339.096 70.3298 340.709 72.4034C342.437 74.477 345.605 76.8386 350.213 79.4882C356.895 83.2898 361.848 86.861 365.074 90.2018C368.415 93.4274 370.085 97.7474 370.085 103.162C370.085 109.383 367.723 114.451 363 118.368C358.277 122.285 352.171 124.243 344.683 124.243ZM401.437 122.343C400.285 122.343 399.421 122.17 398.845 121.824C398.269 121.594 397.981 121.133 397.981 120.442C397.981 119.52 398.327 118.944 399.018 118.714C399.709 118.368 400.689 118.023 401.956 117.677C404.145 117.101 405.757 116.295 406.794 115.258C407.946 114.106 408.522 112.723 408.522 111.111V73.9586C408.522 70.8482 408.061 68.141 407.14 65.837C406.218 63.533 404.317 62.093 401.437 61.517C400.977 61.4018 400.573 61.1138 400.228 60.653C399.882 60.1922 399.709 59.7314 399.709 59.2706C399.709 58.1186 400.228 57.4274 401.265 57.197C404.26 56.2754 407.37 54.9506 410.596 53.2226C413.937 51.3794 416.529 49.8818 418.372 48.7298C419.063 48.269 419.581 47.981 419.927 47.8658C420.388 47.6354 420.733 47.5202 420.964 47.5202C421.54 47.5202 421.828 47.9234 421.828 48.7298C421.828 49.0754 421.77 49.9394 421.655 51.3218C421.655 52.7042 421.597 54.317 421.482 56.1602C421.482 58.0034 421.425 59.8466 421.309 61.6898C421.309 61.9202 421.425 62.0354 421.655 62.0354C423.498 59.7314 425.514 57.7154 427.703 55.9874C430.007 54.2594 432.311 52.877 434.615 51.8402C437.034 50.8034 439.338 50.285 441.527 50.285C443.946 50.285 445.905 50.8034 447.402 51.8402C449.015 52.877 449.821 54.2018 449.821 55.8146C449.821 56.9666 449.476 58.2338 448.785 59.6162C448.209 60.9986 447.402 62.2082 446.365 63.245C445.329 64.2818 444.234 64.8002 443.082 64.8002C442.391 64.8002 441.642 64.685 440.836 64.4546C440.029 64.109 439.165 63.7058 438.244 63.245C437.322 62.8994 436.401 62.5538 435.479 62.2082C434.557 61.8626 433.636 61.6898 432.714 61.6898C429.949 61.6898 427.242 62.669 424.593 64.6274C422.058 66.5858 420.791 70.445 420.791 76.205V111.111C420.791 112.608 421.597 113.875 423.21 114.912C424.823 115.834 427.069 116.755 429.949 117.677C431.217 118.023 432.196 118.368 432.887 118.714C433.578 119.059 433.924 119.635 433.924 120.442C433.924 121.709 432.772 122.343 430.468 122.343C427.012 122.343 424.362 122.17 422.519 121.824C420.791 121.594 418.429 121.479 415.434 121.479C413.476 121.479 411.863 121.536 410.596 121.651C409.444 121.767 408.177 121.882 406.794 121.997C405.527 122.227 403.741 122.343 401.437 122.343ZM478.849 124.416C472.513 124.416 466.984 122.861 462.26 119.751C457.537 116.64 453.851 112.263 451.201 106.618C448.552 100.858 447.227 94.2338 447.227 86.7458C447.227 80.0642 448.724 74.0162 451.72 68.6018C454.83 63.0722 458.92 58.637 463.988 55.2962C469.057 51.9554 474.587 50.285 480.577 50.285C485.185 50.285 489.275 51.2066 492.846 53.0498C496.417 54.893 499.182 57.485 501.14 60.8258C503.214 64.0514 504.251 67.7954 504.251 72.0578C504.251 75.629 502.523 77.4146 499.067 77.4146H462.606C460.993 77.4146 459.841 77.8754 459.15 78.797C458.574 79.6034 458.286 81.2738 458.286 83.8082C458.286 89.3378 459.496 94.4066 461.915 99.0146C464.334 103.507 467.56 107.136 471.592 109.901C475.624 112.551 480.059 113.875 484.897 113.875C488.353 113.875 491.464 113.242 494.228 111.975C497.108 110.592 499.643 108.634 501.832 106.099C502.292 105.523 502.638 105.178 502.868 105.063C503.099 104.832 503.387 104.717 503.732 104.717C504.654 104.717 505.115 105.293 505.115 106.445C505.115 108.634 504.078 111.053 502.004 113.703C500.276 115.891 498.203 117.792 495.784 119.405C493.364 121.018 490.715 122.227 487.835 123.034C484.955 123.955 481.96 124.416 478.849 124.416ZM462.952 72.0578H478.676C481.441 72.0578 483.803 72.0002 485.761 71.885C487.72 71.7698 489.62 71.5394 491.464 71.1938C492.04 71.0786 492.385 70.733 492.5 70.157C492.731 69.4658 492.846 68.5442 492.846 67.3922C492.846 64.0514 491.348 61.229 488.353 58.925C485.473 56.5058 482.017 55.2962 477.985 55.2962C475.336 55.2962 472.686 56.1026 470.036 57.7154C467.387 59.213 465.198 61.1138 463.47 63.4178C461.742 65.7218 460.878 68.0258 460.878 70.3298C460.878 71.4818 461.569 72.0578 462.952 72.0578ZM508.337 122.343C507.416 122.343 506.609 122.227 505.918 121.997C505.227 121.767 504.881 121.248 504.881 120.442C504.881 119.635 505.227 119.059 505.918 118.714C506.724 118.368 507.704 118.023 508.856 117.677C510.468 117.101 512.081 116.467 513.694 115.776C515.422 114.97 516.286 113.415 516.286 111.111V73.9586C516.286 70.8482 515.94 68.141 515.249 65.837C514.558 63.4178 512.715 61.9778 509.72 61.517C509.259 61.4018 508.856 61.1714 508.51 60.8258C508.28 60.4802 508.164 59.9618 508.164 59.2706C508.164 58.1186 508.625 57.4274 509.547 57.197C512.657 56.3906 515.134 55.5842 516.977 54.7778C518.82 53.8562 520.433 52.877 521.816 51.8402C523.313 50.6882 525.099 49.4786 527.172 48.2114C527.403 48.0962 527.633 47.981 527.864 47.8658C528.094 47.6354 528.382 47.5202 528.728 47.5202C529.419 47.5202 529.764 47.9234 529.764 48.7298C529.764 49.5362 529.592 51.2066 529.246 53.741C529.016 56.1602 528.9 58.1762 528.9 59.789C528.9 60.941 529.016 61.6322 529.246 61.8626H529.592C532.241 59.3282 535.697 56.7938 539.96 54.2594C544.337 51.6098 549.867 50.285 556.548 50.285C560.696 50.285 564.152 51.2066 566.916 53.0498C569.681 54.7778 571.985 57.8306 573.828 62.2082H574.347C578.033 58.8674 582.238 56.045 586.961 53.741C591.684 51.437 596.868 50.285 602.513 50.285C606.315 50.285 609.483 51.437 612.017 53.741C614.552 56.045 616.452 59.0402 617.72 62.7266C619.102 66.413 619.793 70.2722 619.793 74.3042V111.111C619.793 113.415 620.6 114.97 622.212 115.776C623.825 116.467 625.496 117.101 627.224 117.677C628.376 118.023 629.297 118.368 629.988 118.714C630.795 119.059 631.198 119.635 631.198 120.442C631.198 121.133 630.91 121.594 630.334 121.824C629.873 122.17 629.009 122.343 627.742 122.343C625.438 122.343 623.652 122.227 622.385 121.997C621.118 121.882 619.908 121.767 618.756 121.651C617.72 121.536 616.164 121.479 614.091 121.479C612.132 121.479 610.52 121.536 609.252 121.651C607.985 121.767 606.66 121.882 605.278 121.997C603.896 122.227 602.052 122.343 599.748 122.343C598.712 122.343 597.848 122.17 597.156 121.824C596.58 121.594 596.292 121.133 596.292 120.442C596.292 119.52 596.638 118.887 597.329 118.541C598.136 118.195 599.115 117.907 600.267 117.677C602.11 117.216 603.78 116.583 605.278 115.776C606.891 114.97 607.697 113.415 607.697 111.111V74.8226C607.697 72.0578 607.064 69.4658 605.796 67.0466C604.529 64.5122 602.859 62.4386 600.785 60.8258C598.712 59.213 596.408 58.4066 593.873 58.4066C590.993 58.4066 588.286 58.7522 585.752 59.4434C583.332 60.1346 581.028 61.3442 578.84 63.0722C575.614 65.6066 574.001 69.7538 574.001 75.5138V111.111C574.001 113.415 574.865 114.97 576.593 115.776C578.321 116.583 580.049 117.216 581.777 117.677C582.929 117.907 583.851 118.253 584.542 118.714C585.348 119.059 585.752 119.635 585.752 120.442C585.752 121.133 585.464 121.594 584.888 121.824C584.312 122.17 583.448 122.343 582.296 122.343C579.992 122.343 578.148 122.227 576.766 121.997C575.499 121.882 574.232 121.767 572.964 121.651C571.812 121.536 570.2 121.479 568.126 121.479C566.168 121.479 564.555 121.536 563.288 121.651C562.02 121.767 560.696 121.882 559.313 121.997C557.931 122.227 556.088 122.343 553.784 122.343C552.862 122.343 552.056 122.17 551.364 121.824C550.673 121.594 550.328 121.133 550.328 120.442C550.328 119.52 550.731 118.944 551.537 118.714C552.459 118.368 553.38 118.023 554.302 117.677C556.03 117.101 557.7 116.467 559.313 115.776C561.041 114.97 561.905 113.415 561.905 111.111V74.8226C561.905 72.0578 561.272 69.4658 560.004 67.0466C558.737 64.5122 557.067 62.4386 554.993 60.8258C552.92 59.213 550.616 58.4066 548.081 58.4066C545.201 58.4066 542.494 58.7522 539.96 59.4434C537.54 60.1346 535.236 61.3442 533.048 63.0722C529.937 65.3762 528.382 69.5234 528.382 75.5138V111.111C528.382 113.415 529.188 114.97 530.801 115.776C532.414 116.467 534.084 117.101 535.812 117.677C536.734 118.023 537.598 118.368 538.404 118.714C539.326 118.944 539.787 119.52 539.787 120.442C539.787 121.133 539.441 121.594 538.75 121.824C538.174 122.17 537.368 122.343 536.331 122.343C534.027 122.343 532.184 122.227 530.801 121.997C529.534 121.882 528.324 121.767 527.172 121.651C526.02 121.536 524.408 121.479 522.334 121.479C520.376 121.479 518.763 121.536 517.496 121.651C516.344 121.767 515.076 121.882 513.694 121.997C512.427 122.227 510.641 122.343 508.337 122.343ZM663.394 124.416C657.058 124.416 651.529 122.861 646.805 119.751C642.082 116.64 638.396 112.263 635.746 106.618C633.097 100.858 631.772 94.2338 631.772 86.7458C631.772 80.0642 633.269 74.0162 636.265 68.6018C639.375 63.0722 643.465 58.637 648.533 55.2962C653.602 51.9554 659.132 50.285 665.122 50.285C669.73 50.285 673.82 51.2066 677.391 53.0498C680.962 54.893 683.727 57.485 685.685 60.8258C687.759 64.0514 688.796 67.7954 688.796 72.0578C688.796 75.629 687.068 77.4146 683.612 77.4146H647.151C645.538 77.4146 644.386 77.8754 643.695 78.797C643.119 79.6034 642.831 81.2738 642.831 83.8082C642.831 89.3378 644.041 94.4066 646.46 99.0146C648.879 103.507 652.105 107.136 656.137 109.901C660.169 112.551 664.604 113.875 669.442 113.875C672.898 113.875 676.009 113.242 678.773 111.975C681.653 110.592 684.188 108.634 686.377 106.099C686.837 105.523 687.183 105.178 687.413 105.063C687.644 104.832 687.932 104.717 688.277 104.717C689.199 104.717 689.66 105.293 689.66 106.445C689.66 108.634 688.623 111.053 686.549 113.703C684.821 115.891 682.748 117.792 680.329 119.405C677.909 121.018 675.26 122.227 672.38 123.034C669.5 123.955 666.505 124.416 663.394 124.416ZM647.497 72.0578H663.221C665.986 72.0578 668.348 72.0002 670.306 71.885C672.265 71.7698 674.165 71.5394 676.009 71.1938C676.585 71.0786 676.93 70.733 677.045 70.157C677.276 69.4658 677.391 68.5442 677.391 67.3922C677.391 64.0514 675.893 61.229 672.898 58.925C670.018 56.5058 666.562 55.2962 662.53 55.2962C659.881 55.2962 657.231 56.1026 654.581 57.7154C651.932 59.213 649.743 61.1138 648.015 63.4178C646.287 65.7218 645.423 68.0258 645.423 70.3298C645.423 71.4818 646.114 72.0578 647.497 72.0578ZM692.882 122.343C691.961 122.343 691.154 122.227 690.463 121.997C689.772 121.767 689.426 121.248 689.426 120.442C689.426 119.635 689.772 119.059 690.463 118.714C691.269 118.368 692.249 118.023 693.401 117.677C695.013 117.101 696.626 116.467 698.239 115.776C699.967 114.97 700.831 113.415 700.831 111.111V73.9586C700.831 70.8482 700.485 68.141 699.794 65.837C699.103 63.4178 697.26 61.9778 694.265 61.517C693.804 61.4018 693.401 61.1714 693.055 60.8258C692.825 60.4802 692.709 59.9618 692.709 59.2706C692.709 58.1186 693.17 57.4274 694.092 57.197C697.202 56.3906 699.679 55.5842 701.522 54.7778C703.365 53.8562 704.978 52.877 706.361 51.8402C707.858 50.6882 709.644 49.4786 711.717 48.2114C711.948 48.0962 712.178 47.981 712.409 47.8658C712.639 47.6354 712.927 47.5202 713.273 47.5202C713.964 47.5202 714.309 47.9234 714.309 48.7298C714.309 49.5362 714.137 51.2066 713.791 53.741C713.561 56.1602 713.445 58.1762 713.445 59.789C713.445 60.941 713.561 61.6322 713.791 61.8626H714.137C716.786 59.3282 720.242 56.7938 724.505 54.2594C728.882 51.6098 734.412 50.285 741.093 50.285C745.241 50.285 748.697 51.2066 751.461 53.0498C754.226 54.7778 756.53 57.8306 758.373 62.2082H758.892C762.578 58.8674 766.783 56.045 771.506 53.741C776.229 51.437 781.413 50.285 787.058 50.285C790.86 50.285 794.028 51.437 796.562 53.741C799.097 56.045 800.997 59.0402 802.265 62.7266C803.647 66.413 804.338 70.2722 804.338 74.3042V111.111C804.338 113.415 805.145 114.97 806.757 115.776C808.37 116.467 810.041 117.101 811.769 117.677C812.921 118.023 813.842 118.368 814.533 118.714C815.34 119.059 815.743 119.635 815.743 120.442C815.743 121.133 815.455 121.594 814.879 121.824C814.418 122.17 813.554 122.343 812.287 122.343C809.983 122.343 808.197 122.227 806.93 121.997C805.663 121.882 804.453 121.767 803.301 121.651C802.265 121.536 800.709 121.479 798.636 121.479C796.677 121.479 795.065 121.536 793.797 121.651C792.53 121.767 791.205 121.882 789.823 121.997C788.441 122.227 786.597 122.343 784.293 122.343C783.257 122.343 782.393 122.17 781.701 121.824C781.125 121.594 780.837 121.133 780.837 120.442C780.837 119.52 781.183 118.887 781.874 118.541C782.681 118.195 783.66 117.907 784.812 117.677C786.655 117.216 788.325 116.583 789.823 115.776C791.436 114.97 792.242 113.415 792.242 111.111V74.8226C792.242 72.0578 791.609 69.4658 790.341 67.0466C789.074 64.5122 787.404 62.4386 785.33 60.8258C783.257 59.213 780.953 58.4066 778.418 58.4066C775.538 58.4066 772.831 58.7522 770.297 59.4434C767.877 60.1346 765.573 61.3442 763.385 63.0722C760.159 65.6066 758.546 69.7538 758.546 75.5138V111.111C758.546 113.415 759.41 114.97 761.138 115.776C762.866 116.583 764.594 117.216 766.322 117.677C767.474 117.907 768.396 118.253 769.087 118.714C769.893 119.059 770.297 119.635 770.297 120.442C770.297 121.133 770.009 121.594 769.433 121.824C768.857 122.17 767.993 122.343 766.841 122.343C764.537 122.343 762.693 122.227 761.311 121.997C760.044 121.882 758.777 121.767 757.509 121.651C756.357 121.536 754.745 121.479 752.671 121.479C750.713 121.479 749.1 121.536 747.833 121.651C746.565 121.767 745.241 121.882 743.858 121.997C742.476 122.227 740.633 122.343 738.329 122.343C737.407 122.343 736.601 122.17 735.909 121.824C735.218 121.594 734.873 121.133 734.873 120.442C734.873 119.52 735.276 118.944 736.082 118.714C737.004 118.368 737.925 118.023 738.847 117.677C740.575 117.101 742.245 116.467 743.858 115.776C745.586 114.97 746.45 113.415 746.45 111.111V74.8226C746.45 72.0578 745.817 69.4658 744.549 67.0466C743.282 64.5122 741.612 62.4386 739.538 60.8258C737.465 59.213 735.161 58.4066 732.626 58.4066C729.746 58.4066 727.039 58.7522 724.505 59.4434C722.085 60.1346 719.781 61.3442 717.593 63.0722C714.482 65.3762 712.927 69.5234 712.927 75.5138V111.111C712.927 113.415 713.733 114.97 715.346 115.776C716.959 116.467 718.629 117.101 720.357 117.677C721.279 118.023 722.143 118.368 722.949 118.714C723.871 118.944 724.332 119.52 724.332 120.442C724.332 121.133 723.986 121.594 723.295 121.824C722.719 122.17 721.913 122.343 720.876 122.343C718.572 122.343 716.729 122.227 715.346 121.997C714.079 121.882 712.869 121.767 711.717 121.651C710.565 121.536 708.953 121.479 706.879 121.479C704.921 121.479 703.308 121.536 702.041 121.651C700.889 121.767 699.621 121.882 698.239 121.997C696.972 122.227 695.186 122.343 692.882 122.343ZM855.888 124.243C853.354 124.243 850.819 124.013 848.285 123.552C845.75 123.091 843.331 122.573 841.027 121.997C838.493 121.306 836.246 120.672 834.288 120.096C832.445 119.52 831.235 119.232 830.659 119.232C829.968 119.232 829.277 119.463 828.586 119.923C828.01 120.384 827.434 120.903 826.858 121.479C826.282 122.055 825.763 122.343 825.302 122.343C824.842 122.343 824.323 122.17 823.747 121.824C823.171 121.363 822.883 120.845 822.883 120.269C822.883 119.232 823.056 117.447 823.402 114.912C823.862 112.378 824.093 110.016 824.093 107.827V24.0194C824.093 21.0242 823.344 18.4322 821.846 16.2434C820.349 14.0546 818.448 12.4418 816.144 11.405C815.683 11.1746 815.165 10.8866 814.589 10.541C814.128 10.0802 813.898 9.50421 813.898 8.81301C813.898 8.23701 814.128 7.83381 814.589 7.60341C815.05 7.37301 815.51 7.20021 815.971 7.08501C817.469 6.73941 819.485 6.10581 822.019 5.18421C824.669 4.26261 827.146 3.34101 829.45 2.41941C831.754 1.49781 833.309 0.864208 834.115 0.518613C834.806 0.17301 835.325 0.000209183 835.67 0.000209183C835.901 0.000209183 836.131 0.115411 836.362 0.345815C836.592 0.576212 836.707 0.864212 836.707 1.20981C836.707 1.67062 836.592 3.62901 836.362 7.08501C836.246 10.4258 836.189 14.5154 836.189 19.3538V54.7778C836.189 56.9666 836.304 58.4642 836.534 59.2706C836.765 59.9618 837.168 60.365 837.744 60.4802C841.315 57.485 845.462 55.0658 850.186 53.2226C854.909 51.2642 859.171 50.285 862.973 50.285C868.848 50.285 874.09 51.7826 878.698 54.7778C883.421 57.773 887.165 61.8626 889.93 67.0466C892.694 72.1154 894.077 77.8754 894.077 84.3266C894.077 92.1602 892.464 99.1298 889.238 105.235C886.013 111.226 881.52 115.891 875.76 119.232C870.115 122.573 863.491 124.243 855.888 124.243ZM859.862 118.887C864.24 118.887 867.984 117.562 871.094 114.912C874.32 112.147 876.797 108.461 878.525 103.853C880.253 99.1298 881.117 93.8882 881.117 88.1282C881.117 83.6354 880.253 79.0274 878.525 74.3042C876.912 69.581 874.32 65.6066 870.749 62.381C867.293 59.1554 862.8 57.5426 857.27 57.5426C852.662 57.5426 848.63 58.2914 845.174 59.789C841.718 61.2866 838.723 63.1874 836.189 65.4914V99.0146C836.189 103.047 837.283 106.56 839.472 109.555C841.776 112.551 844.714 114.855 848.285 116.467C851.971 118.08 855.83 118.887 859.862 118.887ZM928.23 124.416C921.894 124.416 916.365 122.861 911.642 119.751C906.918 116.64 903.232 112.263 900.582 106.618C897.933 100.858 896.608 94.2338 896.608 86.7458C896.608 80.0642 898.106 74.0162 901.101 68.6018C904.211 63.0722 908.301 58.637 913.37 55.2962C918.438 51.9554 923.968 50.285 929.958 50.285C934.566 50.285 938.656 51.2066 942.227 53.0498C945.798 54.893 948.563 57.485 950.522 60.8258C952.595 64.0514 953.632 67.7954 953.632 72.0578C953.632 75.629 951.904 77.4146 948.448 77.4146H911.987C910.374 77.4146 909.222 77.8754 908.531 78.797C907.955 79.6034 907.667 81.2738 907.667 83.8082C907.667 89.3378 908.877 94.4066 911.296 99.0146C913.715 103.507 916.941 107.136 920.973 109.901C925.005 112.551 929.44 113.875 934.278 113.875C937.734 113.875 940.845 113.242 943.61 111.975C946.49 110.592 949.024 108.634 951.213 106.099C951.674 105.523 952.019 105.178 952.25 105.063C952.48 104.832 952.768 104.717 953.114 104.717C954.035 104.717 954.496 105.293 954.496 106.445C954.496 108.634 953.459 111.053 951.386 113.703C949.658 115.891 947.584 117.792 945.165 119.405C942.746 121.018 940.096 122.227 937.216 123.034C934.336 123.955 931.341 124.416 928.23 124.416ZM912.333 72.0578H928.058C930.822 72.0578 933.184 72.0002 935.142 71.885C937.101 71.7698 939.002 71.5394 940.845 71.1938C941.421 71.0786 941.766 70.733 941.882 70.157C942.112 69.4658 942.227 68.5442 942.227 67.3922C942.227 64.0514 940.73 61.229 937.734 58.925C934.854 56.5058 931.398 55.2962 927.366 55.2962C924.717 55.2962 922.067 56.1026 919.418 57.7154C916.768 59.213 914.579 61.1138 912.851 63.4178C911.123 65.7218 910.259 68.0258 910.259 70.3298C910.259 71.4818 910.95 72.0578 912.333 72.0578ZM958.582 122.343C957.43 122.343 956.566 122.17 955.99 121.824C955.414 121.594 955.126 121.133 955.126 120.442C955.126 119.52 955.472 118.944 956.163 118.714C956.854 118.368 957.834 118.023 959.101 117.677C961.29 117.101 962.902 116.295 963.939 115.258C965.091 114.106 965.667 112.723 965.667 111.111V73.9586C965.667 70.8482 965.206 68.141 964.285 65.837C963.363 63.533 961.462 62.093 958.582 61.517C958.122 61.4018 957.718 61.1138 957.373 60.653C957.027 60.1922 956.854 59.7314 956.854 59.2706C956.854 58.1186 957.373 57.4274 958.41 57.197C961.405 56.2754 964.515 54.9506 967.741 53.2226C971.082 51.3794 973.674 49.8818 975.517 48.7298C976.208 48.269 976.726 47.981 977.072 47.8658C977.533 47.6354 977.878 47.5202 978.109 47.5202C978.685 47.5202 978.973 47.9234 978.973 48.7298C978.973 49.0754 978.915 49.9394 978.8 51.3218C978.8 52.7042 978.742 54.317 978.627 56.1602C978.627 58.0034 978.57 59.8466 978.454 61.6898C978.454 61.9202 978.57 62.0354 978.8 62.0354C980.643 59.7314 982.659 57.7154 984.848 55.9874C987.152 54.2594 989.456 52.877 991.76 51.8402C994.179 50.8034 996.483 50.285 998.672 50.285C1001.09 50.285 1003.05 50.8034 1004.55 51.8402C1006.16 52.877 1006.97 54.2018 1006.97 55.8146C1006.97 56.9666 1006.62 58.2338 1005.93 59.6162C1005.35 60.9986 1004.55 62.2082 1003.51 63.245C1002.47 64.2818 1001.38 64.8002 1000.23 64.8002C999.536 64.8002 998.787 64.685 997.981 64.4546C997.174 64.109 996.31 63.7058 995.389 63.245C994.467 62.8994 993.546 62.5538 992.624 62.2082C991.702 61.8626 990.781 61.6898 989.859 61.6898C987.094 61.6898 984.387 62.669 981.738 64.6274C979.203 66.5858 977.936 70.445 977.936 76.205V111.111C977.936 112.608 978.742 113.875 980.355 114.912C981.968 115.834 984.214 116.755 987.094 117.677C988.362 118.023 989.341 118.368 990.032 118.714C990.723 119.059 991.069 119.635 991.069 120.442C991.069 121.709 989.917 122.343 987.613 122.343C984.157 122.343 981.507 122.17 979.664 121.824C977.936 121.594 975.574 121.479 972.579 121.479C970.621 121.479 969.008 121.536 967.741 121.651C966.589 121.767 965.322 121.882 963.939 121.997C962.672 122.227 960.886 122.343 958.582 122.343ZM1057.8 124.243C1052.16 124.243 1047.72 122.515 1044.5 119.059C1041.38 115.603 1039.83 110.477 1039.83 103.68V63.5906C1039.83 62.669 1039.48 62.0354 1038.79 61.6898C1038.1 61.229 1036.6 60.9986 1034.3 60.9986H1033.26C1032.69 60.9986 1032.17 60.653 1031.71 59.9618C1031.36 59.1554 1031.19 58.349 1031.19 57.5426C1031.19 57.3122 1031.36 56.9666 1031.71 56.5058C1032.05 56.045 1032.28 55.757 1032.4 55.6418C1034.7 54.029 1036.78 52.4162 1038.62 50.8034C1040.58 49.1906 1042.31 47.6354 1043.8 46.1378C1045.42 44.525 1046.74 43.085 1047.78 41.8178C1048.35 41.2418 1048.82 40.781 1049.16 40.4354C1049.62 39.9746 1050.14 39.7442 1050.72 39.7442C1051.29 39.7442 1051.81 39.8594 1052.27 40.0898C1052.85 40.3202 1053.08 40.8386 1052.96 41.645L1052.1 49.421C1051.98 50.6882 1052.27 51.5522 1052.96 52.013C1053.65 52.4738 1054.75 52.7042 1056.25 52.7042H1075.94C1076.41 52.7042 1076.81 53.1074 1077.15 53.9138C1077.5 54.605 1077.67 55.469 1077.67 56.5058C1077.67 57.5426 1077.5 58.5794 1077.15 59.6162C1076.81 60.5378 1076.41 60.9986 1075.94 60.9986H1058.84C1055.96 60.9986 1054.06 61.229 1053.14 61.6898C1052.33 62.1506 1051.93 63.533 1051.93 65.837V99.8786C1051.93 104.487 1052.9 108.115 1054.86 110.765C1056.82 113.415 1059.64 114.739 1063.33 114.739C1066.67 114.739 1069.26 114.509 1071.11 114.048C1072.95 113.472 1074.62 112.666 1076.12 111.629C1076.35 111.399 1076.58 111.283 1076.81 111.283C1077.27 111.283 1077.56 111.571 1077.67 112.147C1077.9 112.608 1078.02 113.127 1078.02 113.703C1078.02 114.279 1077.04 115.431 1075.08 117.159C1073.24 118.887 1070.76 120.499 1067.65 121.997C1064.66 123.495 1061.37 124.243 1057.8 124.243ZM1077.58 122.343C1075.27 122.343 1074.12 121.709 1074.12 120.442C1074.12 119.405 1075.45 118.483 1078.1 117.677C1079.82 117.101 1081.44 116.352 1082.93 115.431C1084.55 114.509 1085.41 112.896 1085.53 110.592V24.0194C1085.53 20.909 1085.01 18.2018 1083.97 15.8978C1082.93 13.4786 1080.92 12.0386 1077.92 11.5778C1076.89 11.3474 1076.37 10.541 1076.37 9.15862C1076.37 8.12181 1076.83 7.43061 1077.75 7.08501C1079.36 6.50901 1081.26 5.87541 1083.45 5.18421C1085.76 4.49301 1088.12 3.74421 1090.54 2.93781C1092.96 2.01621 1095.09 1.15221 1096.93 0.345815C1097.39 0.115411 1097.74 0.000209183 1097.97 0.000209183C1098.31 0.000209183 1098.6 0.115411 1098.83 0.345815C1099.06 0.576212 1099.18 0.864212 1099.18 1.20981C1099.18 1.90101 1099.01 2.88021 1098.66 4.14741C1098.43 5.41461 1098.2 7.60341 1097.97 10.7138C1097.74 13.8242 1097.62 18.4898 1097.62 24.7106V54.7778C1097.62 56.621 1097.68 57.9458 1097.8 58.7522C1098.03 59.5586 1098.37 60.365 1098.83 61.1714C1100.68 59.789 1102.92 58.2914 1105.57 56.6786C1108.34 54.9506 1111.39 53.453 1114.73 52.1858C1118.07 50.9186 1121.53 50.285 1125.1 50.285C1130.74 50.285 1135.41 52.5314 1139.09 57.0242C1142.9 61.4018 1144.8 66.989 1144.8 73.7858V110.074C1144.8 112.378 1145.55 114.106 1147.04 115.258C1148.54 116.295 1150.15 117.101 1151.88 117.677C1153.15 118.023 1154.13 118.426 1154.82 118.887C1155.51 119.232 1155.86 119.751 1155.86 120.442C1155.86 121.709 1154.7 122.343 1152.4 122.343C1150.1 122.343 1148.31 122.227 1147.04 121.997C1145.89 121.882 1144.74 121.767 1143.59 121.651C1142.55 121.536 1141 121.479 1138.92 121.479C1136.96 121.479 1135.41 121.536 1134.26 121.651C1133.1 121.767 1131.89 121.882 1130.63 121.997C1129.48 122.227 1127.75 122.343 1125.44 122.343C1123.14 122.343 1121.99 121.709 1121.99 120.442C1121.99 119.635 1122.33 119.117 1123.02 118.887C1123.72 118.541 1124.69 118.138 1125.96 117.677C1127.69 117.101 1129.25 116.295 1130.63 115.258C1132.01 114.106 1132.7 112.378 1132.7 110.074V74.8226C1132.7 71.9426 1131.84 69.3506 1130.11 67.0466C1128.5 64.6274 1126.48 62.7266 1124.06 61.3442C1121.64 59.9618 1119.17 59.2706 1116.63 59.2706C1114.44 59.2706 1111.91 59.6162 1109.03 60.3074C1106.15 60.8834 1103.9 61.805 1102.29 63.0722C1100.45 64.5698 1099.18 66.125 1098.49 67.7378C1097.91 69.3506 1097.62 71.9426 1097.62 75.5138V110.592C1097.74 112.896 1098.43 114.509 1099.7 115.431C1101.08 116.352 1102.63 117.101 1104.36 117.677C1105.63 118.023 1106.55 118.426 1107.13 118.887C1107.82 119.232 1108.16 119.751 1108.16 120.442C1108.16 121.709 1107.01 122.343 1104.71 122.343C1102.4 122.343 1100.68 122.227 1099.52 121.997C1098.37 121.882 1097.28 121.767 1096.24 121.651C1095.2 121.536 1093.65 121.479 1091.57 121.479C1089.62 121.479 1088 121.536 1086.74 121.651C1085.58 121.767 1084.32 121.882 1082.93 121.997C1081.67 122.227 1079.88 122.343 1077.58 122.343ZM1187.94 124.416C1181.6 124.416 1176.07 122.861 1171.35 119.751C1166.62 116.64 1162.94 112.263 1160.29 106.618C1157.64 100.858 1156.31 94.2338 1156.31 86.7458C1156.31 80.0642 1157.81 74.0162 1160.81 68.6018C1163.92 63.0722 1168.01 58.637 1173.08 55.2962C1178.14 51.9554 1183.67 50.285 1189.66 50.285C1194.27 50.285 1198.36 51.2066 1201.93 53.0498C1205.5 54.893 1208.27 57.485 1210.23 60.8258C1212.3 64.0514 1213.34 67.7954 1213.34 72.0578C1213.34 75.629 1211.61 77.4146 1208.15 77.4146H1171.69C1170.08 77.4146 1168.93 77.8754 1168.24 78.797C1167.66 79.6034 1167.37 81.2738 1167.37 83.8082C1167.37 89.3378 1168.58 94.4066 1171 99.0146C1173.42 103.507 1176.65 107.136 1180.68 109.901C1184.71 112.551 1189.15 113.875 1193.98 113.875C1197.44 113.875 1200.55 113.242 1203.32 111.975C1206.2 110.592 1208.73 108.634 1210.92 106.099C1211.38 105.523 1211.73 105.178 1211.96 105.063C1212.19 104.832 1212.47 104.717 1212.82 104.717C1213.74 104.717 1214.2 105.293 1214.2 106.445C1214.2 108.634 1213.17 111.053 1211.09 113.703C1209.36 115.891 1207.29 117.792 1204.87 119.405C1202.45 121.018 1199.8 122.227 1196.92 123.034C1194.04 123.955 1191.05 124.416 1187.94 124.416ZM1172.04 72.0578H1187.76C1190.53 72.0578 1192.89 72.0002 1194.85 71.885C1196.81 71.7698 1198.71 71.5394 1200.55 71.1938C1201.13 71.0786 1201.47 70.733 1201.59 70.157C1201.82 69.4658 1201.93 68.5442 1201.93 67.3922C1201.93 64.0514 1200.44 61.229 1197.44 58.925C1194.56 56.5058 1191.1 55.2962 1187.07 55.2962C1184.42 55.2962 1181.77 56.1026 1179.12 57.7154C1176.47 59.213 1174.29 61.1138 1172.56 63.4178C1170.83 65.7218 1169.97 68.0258 1169.97 70.3298C1169.97 71.4818 1170.66 72.0578 1172.04 72.0578ZM1243.38 122.343C1242.46 122.343 1241.65 122.227 1240.96 121.997C1240.27 121.767 1239.92 121.248 1239.92 120.442C1239.92 119.635 1240.27 119.059 1240.96 118.714C1241.77 118.368 1242.74 118.023 1243.9 117.677C1245.51 117.101 1247.12 116.467 1248.74 115.776C1250.46 114.97 1251.33 113.415 1251.33 111.111V73.9586C1251.33 70.8482 1250.98 68.141 1250.29 65.837C1249.6 63.4178 1247.76 61.9778 1244.76 61.517C1244.3 61.4018 1243.9 61.1714 1243.55 60.8258C1243.32 60.4802 1243.21 59.9618 1243.21 59.2706C1243.21 58.1186 1243.67 57.4274 1244.59 57.197C1247.7 56.3906 1250.18 55.5842 1252.02 54.7778C1253.86 53.8562 1255.47 52.877 1256.86 51.8402C1258.35 50.6882 1260.14 49.4786 1262.21 48.2114C1262.44 48.0962 1262.67 47.981 1262.9 47.8658C1263.14 47.6354 1263.42 47.5202 1263.77 47.5202C1264.46 47.5202 1264.81 47.9234 1264.81 48.7298C1264.81 49.5362 1264.63 51.2066 1264.29 53.741C1264.06 56.1602 1263.94 58.1762 1263.94 59.789C1263.94 60.941 1264.06 61.6322 1264.29 61.8626H1264.63C1267.28 59.3282 1270.74 56.7938 1275 54.2594C1279.38 51.6098 1284.91 50.285 1291.59 50.285C1295.74 50.285 1299.19 51.2066 1301.96 53.0498C1304.72 54.7778 1307.03 57.8306 1308.87 62.2082H1309.39C1313.07 58.8674 1317.28 56.045 1322 53.741C1326.73 51.437 1331.91 50.285 1337.55 50.285C1341.36 50.285 1344.52 51.437 1347.06 53.741C1349.59 56.045 1351.49 59.0402 1352.76 62.7266C1354.14 66.413 1354.83 70.2722 1354.83 74.3042V111.111C1354.83 113.415 1355.64 114.97 1357.25 115.776C1358.87 116.467 1360.54 117.101 1362.26 117.677C1363.42 118.023 1364.34 118.368 1365.03 118.714C1365.84 119.059 1366.24 119.635 1366.24 120.442C1366.24 121.133 1365.95 121.594 1365.38 121.824C1364.91 122.17 1364.05 122.343 1362.78 122.343C1360.48 122.343 1358.69 122.227 1357.43 121.997C1356.16 121.882 1354.95 121.767 1353.8 121.651C1352.76 121.536 1351.21 121.479 1349.13 121.479C1347.17 121.479 1345.56 121.536 1344.29 121.651C1343.03 121.767 1341.7 121.882 1340.32 121.997C1338.94 122.227 1337.09 122.343 1334.79 122.343C1333.75 122.343 1332.89 122.17 1332.2 121.824C1331.62 121.594 1331.33 121.133 1331.33 120.442C1331.33 119.52 1331.68 118.887 1332.37 118.541C1333.18 118.195 1334.16 117.907 1335.31 117.677C1337.15 117.216 1338.82 116.583 1340.32 115.776C1341.93 114.97 1342.74 113.415 1342.74 111.111V74.8226C1342.74 72.0578 1342.1 69.4658 1340.84 67.0466C1339.57 64.5122 1337.9 62.4386 1335.83 60.8258C1333.75 59.213 1331.45 58.4066 1328.91 58.4066C1326.03 58.4066 1323.33 58.7522 1320.79 59.4434C1318.37 60.1346 1316.07 61.3442 1313.88 63.0722C1310.66 65.6066 1309.04 69.7538 1309.04 75.5138V111.111C1309.04 113.415 1309.91 114.97 1311.63 115.776C1313.36 116.583 1315.09 117.216 1316.82 117.677C1317.97 117.907 1318.89 118.253 1319.58 118.714C1320.39 119.059 1320.79 119.635 1320.79 120.442C1320.79 121.133 1320.5 121.594 1319.93 121.824C1319.35 122.17 1318.49 122.343 1317.34 122.343C1315.03 122.343 1313.19 122.227 1311.81 121.997C1310.54 121.882 1309.27 121.767 1308.01 121.651C1306.85 121.536 1305.24 121.479 1303.17 121.479C1301.21 121.479 1299.6 121.536 1298.33 121.651C1297.06 121.767 1295.74 121.882 1294.35 121.997C1292.97 122.227 1291.13 122.343 1288.82 122.343C1287.9 122.343 1287.1 122.17 1286.41 121.824C1285.71 121.594 1285.37 121.133 1285.37 120.442C1285.37 119.52 1285.77 118.944 1286.58 118.714C1287.5 118.368 1288.42 118.023 1289.34 117.677C1291.07 117.101 1292.74 116.467 1294.35 115.776C1296.08 114.97 1296.95 113.415 1296.95 111.111V74.8226C1296.95 72.0578 1296.31 69.4658 1295.05 67.0466C1293.78 64.5122 1292.11 62.4386 1290.03 60.8258C1287.96 59.213 1285.66 58.4066 1283.12 58.4066C1280.24 58.4066 1277.54 58.7522 1275 59.4434C1272.58 60.1346 1270.28 61.3442 1268.09 63.0722C1264.98 65.3762 1263.42 69.5234 1263.42 75.5138V111.111C1263.42 113.415 1264.23 114.97 1265.84 115.776C1267.46 116.467 1269.13 117.101 1270.85 117.677C1271.78 118.023 1272.64 118.368 1273.45 118.714C1274.37 118.944 1274.83 119.52 1274.83 120.442C1274.83 121.133 1274.48 121.594 1273.79 121.824C1273.22 122.17 1272.41 122.343 1271.37 122.343C1269.07 122.343 1267.22 122.227 1265.84 121.997C1264.58 121.882 1263.37 121.767 1262.21 121.651C1261.06 121.536 1259.45 121.479 1257.38 121.479C1255.42 121.479 1253.8 121.536 1252.54 121.651C1251.38 121.767 1250.12 121.882 1248.74 121.997C1247.47 122.227 1245.68 122.343 1243.38 122.343ZM1402.06 124.243C1395.61 124.243 1389.8 122.746 1384.61 119.751C1379.43 116.755 1375.28 112.666 1372.17 107.482C1369.17 102.183 1367.68 96.1922 1367.68 89.5106C1367.68 84.6722 1368.6 79.949 1370.44 75.341C1372.4 70.733 1375.11 66.5282 1378.56 62.7266C1382.02 58.925 1386.05 55.9298 1390.66 53.741C1395.27 51.437 1400.22 50.285 1405.52 50.285C1412.2 50.285 1418.19 51.8978 1423.49 55.1234C1428.91 58.349 1433.17 62.6114 1436.28 67.9106C1439.5 73.0946 1441.12 78.797 1441.12 85.0178C1441.12 91.6994 1439.62 98.0354 1436.62 104.026C1433.74 110.016 1429.42 114.912 1423.66 118.714C1417.9 122.4 1410.7 124.243 1402.06 124.243ZM1405.69 119.059C1409.61 119.059 1413.12 118.311 1416.23 116.813C1419.34 115.315 1421.76 112.896 1423.49 109.555C1424.87 106.906 1425.8 103.68 1426.26 99.8786C1426.72 96.077 1426.95 92.5058 1426.95 89.165C1426.95 83.6354 1425.91 78.3362 1423.84 73.2674C1421.88 68.0834 1419.06 63.8786 1415.37 60.653C1411.8 57.3122 1407.54 55.6418 1402.58 55.6418C1399.47 55.6418 1396.65 56.1602 1394.12 57.197C1391.7 58.1186 1389.45 59.9042 1387.38 62.5538C1385.07 65.4338 1383.57 68.9474 1382.88 73.0946C1382.19 77.2418 1381.85 81.389 1381.85 85.5362C1381.85 91.181 1382.88 96.5954 1384.96 101.779C1387.03 106.848 1389.85 110.995 1393.42 114.221C1397 117.447 1401.09 119.059 1405.69 119.059ZM1446.15 122.343C1445.23 122.343 1444.42 122.227 1443.73 121.997C1443.04 121.767 1442.69 121.248 1442.69 120.442C1442.69 119.635 1443.04 119.059 1443.73 118.714C1444.54 118.368 1445.51 118.023 1446.67 117.677C1448.28 117.101 1449.89 116.467 1451.51 115.776C1453.23 114.97 1454.1 113.415 1454.1 111.111V73.9586C1454.1 70.8482 1453.75 68.141 1453.06 65.837C1452.37 63.4178 1450.53 61.9778 1447.53 61.517C1447.07 61.4018 1446.67 61.1714 1446.32 60.8258C1446.09 60.4802 1445.98 59.9618 1445.98 59.2706C1445.98 58.1186 1446.44 57.4274 1447.36 57.197C1450.47 56.3906 1452.95 55.5842 1454.79 54.7778C1456.63 53.8562 1458.24 52.877 1459.63 51.8402C1461.12 50.6882 1462.91 49.4786 1464.98 48.2114C1465.21 48.0962 1465.44 47.981 1465.67 47.8658C1465.91 47.6354 1466.19 47.5202 1466.54 47.5202C1467.23 47.5202 1467.58 47.9234 1467.58 48.7298C1467.58 49.5362 1467.4 51.2066 1467.06 53.741C1466.83 56.1602 1466.71 58.1762 1466.71 59.789C1466.71 60.941 1466.83 61.6322 1467.06 61.8626H1467.4C1470.05 59.3282 1473.51 56.7938 1477.77 54.2594C1482.15 51.6098 1487.68 50.285 1494.36 50.285C1498.51 50.285 1501.96 51.2066 1504.73 53.0498C1507.49 54.7778 1509.8 57.8306 1511.64 62.2082H1512.16C1515.84 58.8674 1520.05 56.045 1524.77 53.741C1529.5 51.437 1534.68 50.285 1540.32 50.285C1544.13 50.285 1547.29 51.437 1549.83 53.741C1552.36 56.045 1554.26 59.0402 1555.53 62.7266C1556.91 66.413 1557.6 70.2722 1557.6 74.3042V111.111C1557.6 113.415 1558.41 114.97 1560.02 115.776C1561.64 116.467 1563.31 117.101 1565.03 117.677C1566.19 118.023 1567.11 118.368 1567.8 118.714C1568.61 119.059 1569.01 119.635 1569.01 120.442C1569.01 121.133 1568.72 121.594 1568.15 121.824C1567.68 122.17 1566.82 122.343 1565.55 122.343C1563.25 122.343 1561.46 122.227 1560.2 121.997C1558.93 121.882 1557.72 121.767 1556.57 121.651C1555.53 121.536 1553.98 121.479 1551.9 121.479C1549.94 121.479 1548.33 121.536 1547.06 121.651C1545.8 121.767 1544.47 121.882 1543.09 121.997C1541.71 122.227 1539.86 122.343 1537.56 122.343C1536.52 122.343 1535.66 122.17 1534.97 121.824C1534.39 121.594 1534.1 121.133 1534.1 120.442C1534.1 119.52 1534.45 118.887 1535.14 118.541C1535.95 118.195 1536.93 117.907 1538.08 117.677C1539.92 117.216 1541.59 116.583 1543.09 115.776C1544.7 114.97 1545.51 113.415 1545.51 111.111V74.8226C1545.51 72.0578 1544.87 69.4658 1543.61 67.0466C1542.34 64.5122 1540.67 62.4386 1538.6 60.8258C1536.52 59.213 1534.22 58.4066 1531.68 58.4066C1528.8 58.4066 1526.1 58.7522 1523.56 59.4434C1521.14 60.1346 1518.84 61.3442 1516.65 63.0722C1513.43 65.6066 1511.81 69.7538 1511.81 75.5138V111.111C1511.81 113.415 1512.68 114.97 1514.4 115.776C1516.13 116.583 1517.86 117.216 1519.59 117.677C1520.74 117.907 1521.66 118.253 1522.35 118.714C1523.16 119.059 1523.56 119.635 1523.56 120.442C1523.56 121.133 1523.27 121.594 1522.7 121.824C1522.12 122.17 1521.26 122.343 1520.11 122.343C1517.8 122.343 1515.96 122.227 1514.58 121.997C1513.31 121.882 1512.04 121.767 1510.78 121.651C1509.62 121.536 1508.01 121.479 1505.94 121.479C1503.98 121.479 1502.37 121.536 1501.1 121.651C1499.83 121.767 1498.51 121.882 1497.12 121.997C1495.74 122.227 1493.9 122.343 1491.59 122.343C1490.67 122.343 1489.87 122.17 1489.18 121.824C1488.48 121.594 1488.14 121.133 1488.14 120.442C1488.14 119.52 1488.54 118.944 1489.35 118.714C1490.27 118.368 1491.19 118.023 1492.11 117.677C1493.84 117.101 1495.51 116.467 1497.12 115.776C1498.85 114.97 1499.72 113.415 1499.72 111.111V74.8226C1499.72 72.0578 1499.08 69.4658 1497.82 67.0466C1496.55 64.5122 1494.88 62.4386 1492.8 60.8258C1490.73 59.213 1488.43 58.4066 1485.89 58.4066C1483.01 58.4066 1480.31 58.7522 1477.77 59.4434C1475.35 60.1346 1473.05 61.3442 1470.86 63.0722C1467.75 65.3762 1466.19 69.5234 1466.19 75.5138V111.111C1466.19 113.415 1467 114.97 1468.61 115.776C1470.23 116.467 1471.9 117.101 1473.62 117.677C1474.55 118.023 1475.41 118.368 1476.22 118.714C1477.14 118.944 1477.6 119.52 1477.6 120.442C1477.6 121.133 1477.25 121.594 1476.56 121.824C1475.99 122.17 1475.18 122.343 1474.14 122.343C1471.84 122.343 1469.99 122.227 1468.61 121.997C1467.35 121.882 1466.14 121.767 1464.98 121.651C1463.83 121.536 1462.22 121.479 1460.15 121.479C1458.19 121.479 1456.57 121.536 1455.31 121.651C1454.15 121.767 1452.89 121.882 1451.51 121.997C1450.24 122.227 1448.45 122.343 1446.15 122.343ZM1601.21 124.416C1594.87 124.416 1589.34 122.861 1584.62 119.751C1579.89 116.64 1576.21 112.263 1573.56 106.618C1570.91 100.858 1569.58 94.2338 1569.58 86.7458C1569.58 80.0642 1571.08 74.0162 1574.08 68.6018C1577.19 63.0722 1581.28 58.637 1586.34 55.2962C1591.41 51.9554 1596.94 50.285 1602.93 50.285C1607.54 50.285 1611.63 51.2066 1615.2 53.0498C1618.77 54.893 1621.54 57.485 1623.5 60.8258C1625.57 64.0514 1626.61 67.7954 1626.61 72.0578C1626.61 75.629 1624.88 77.4146 1621.42 77.4146H1584.96C1583.35 77.4146 1582.2 77.8754 1581.51 78.797C1580.93 79.6034 1580.64 81.2738 1580.64 83.8082C1580.64 89.3378 1581.85 94.4066 1584.27 99.0146C1586.69 103.507 1589.92 107.136 1593.95 109.901C1597.98 112.551 1602.42 113.875 1607.25 113.875C1610.71 113.875 1613.82 113.242 1616.58 111.975C1619.46 110.592 1622 108.634 1624.19 106.099C1624.65 105.523 1624.99 105.178 1625.22 105.063C1625.46 104.832 1625.74 104.717 1626.09 104.717C1627.01 104.717 1627.47 105.293 1627.47 106.445C1627.47 108.634 1626.43 111.053 1624.36 113.703C1622.63 115.891 1620.56 117.792 1618.14 119.405C1615.72 121.018 1613.07 122.227 1610.19 123.034C1607.31 123.955 1604.32 124.416 1601.21 124.416ZM1585.31 72.0578H1601.03C1603.8 72.0578 1606.16 72.0002 1608.12 71.885C1610.08 71.7698 1611.98 71.5394 1613.82 71.1938C1614.4 71.0786 1614.74 70.733 1614.86 70.157C1615.09 69.4658 1615.2 68.5442 1615.2 67.3922C1615.2 64.0514 1613.7 61.229 1610.71 58.925C1607.83 56.5058 1604.37 55.2962 1600.34 55.2962C1597.69 55.2962 1595.04 56.1026 1592.39 57.7154C1589.74 59.213 1587.55 61.1138 1585.83 63.4178C1584.1 65.7218 1583.23 68.0258 1583.23 70.3298C1583.23 71.4818 1583.93 72.0578 1585.31 72.0578ZM1630.69 122.343C1629.66 122.343 1628.79 122.17 1628.1 121.824C1627.53 121.594 1627.24 121.133 1627.24 120.442C1627.24 119.52 1627.58 118.944 1628.27 118.714C1628.97 118.368 1629.94 118.023 1631.21 117.677C1632.94 117.216 1634.61 116.583 1636.22 115.776C1637.84 114.97 1638.64 113.415 1638.64 111.111V73.9586C1638.64 70.8482 1638.3 68.1986 1637.61 66.0098C1637.03 63.821 1635.24 62.3234 1632.25 61.517C1631.79 61.2866 1631.38 61.0562 1631.04 60.8258C1630.69 60.4802 1630.52 59.9618 1630.52 59.2706C1630.52 58.0034 1631.04 57.3122 1632.08 57.197C1636.11 56.1602 1639.39 54.893 1641.93 53.3954C1644.46 51.8978 1646.94 50.2274 1649.36 48.3842C1649.7 48.1538 1649.99 47.981 1650.22 47.8658C1650.57 47.6354 1650.91 47.5202 1651.26 47.5202C1651.49 47.5202 1651.66 47.6354 1651.78 47.8658C1652.01 48.0962 1652.12 48.3842 1652.12 48.7298C1652.12 49.5362 1651.95 51.2066 1651.6 53.741C1651.37 56.1602 1651.26 58.1762 1651.26 59.789C1651.26 60.2498 1651.26 60.7106 1651.26 61.1714C1651.37 61.517 1651.49 61.7474 1651.6 61.8626C1655.63 58.061 1659.9 55.181 1664.39 53.2226C1669 51.2642 1674.01 50.285 1679.42 50.285C1685.07 50.285 1689.73 52.589 1693.42 57.197C1697.11 61.805 1698.95 67.5074 1698.95 74.3042V111.111C1698.95 113.415 1699.76 114.97 1701.37 115.776C1702.98 116.467 1704.65 117.101 1706.38 117.677C1707.3 118.023 1708.17 118.426 1708.97 118.887C1709.89 119.232 1710.35 119.866 1710.35 120.787C1710.35 121.479 1709.95 121.882 1709.14 121.997C1708.34 122.227 1707.59 122.343 1706.9 122.343C1704.59 122.343 1702.81 122.227 1701.54 121.997C1700.27 121.882 1699.06 121.767 1697.91 121.651C1696.76 121.536 1695.15 121.479 1693.07 121.479C1691.12 121.479 1689.5 121.536 1688.24 121.651C1686.97 121.767 1685.64 121.882 1684.26 121.997C1682.99 122.227 1681.21 122.343 1678.9 122.343C1678.33 122.343 1677.58 122.227 1676.66 121.997C1675.85 121.882 1675.45 121.479 1675.45 120.787C1675.45 119.866 1675.85 119.232 1676.66 118.887C1677.58 118.426 1678.5 118.023 1679.42 117.677C1681.15 117.101 1682.82 116.467 1684.43 115.776C1686.05 114.97 1686.85 113.415 1686.85 111.111V74.8226C1686.85 69.7538 1685.41 65.837 1682.53 63.0722C1679.77 60.1922 1676.02 58.6946 1671.3 58.5794C1667.15 58.5794 1663.53 59.2706 1660.42 60.653C1657.3 61.9202 1654.54 63.533 1652.12 65.4914C1651.66 65.9522 1651.31 66.5858 1651.08 67.3922C1650.85 68.0834 1650.74 68.7746 1650.74 69.4658V111.111C1650.74 113.415 1651.54 114.97 1653.16 115.776C1654.77 116.583 1656.44 117.216 1658.17 117.677C1660.82 118.368 1662.14 119.29 1662.14 120.442C1662.14 121.133 1661.86 121.594 1661.28 121.824C1660.7 122.17 1659.84 122.343 1658.69 122.343C1656.38 122.343 1654.54 122.227 1653.16 121.997C1651.89 121.882 1650.68 121.767 1649.53 121.651C1648.38 121.536 1646.76 121.479 1644.69 121.479C1642.73 121.479 1641.12 121.536 1639.85 121.651C1638.7 121.767 1637.43 121.882 1636.05 121.997C1634.78 122.227 1633 122.343 1630.69 122.343ZM1738.4 124.243C1732.76 124.243 1728.32 122.515 1725.1 119.059C1721.99 115.603 1720.43 110.477 1720.43 103.68V63.5906C1720.43 62.669 1720.09 62.0354 1719.4 61.6898C1718.7 61.229 1717.21 60.9986 1714.9 60.9986H1713.87C1713.29 60.9986 1712.77 60.653 1712.31 59.9618C1711.96 59.1554 1711.79 58.349 1711.79 57.5426C1711.79 57.3122 1711.96 56.9666 1712.31 56.5058C1712.66 56.045 1712.89 55.757 1713 55.6418C1715.31 54.029 1717.38 52.4162 1719.22 50.8034C1721.18 49.1906 1722.91 47.6354 1724.41 46.1378C1726.02 44.525 1727.34 43.085 1728.38 41.8178C1728.96 41.2418 1729.42 40.781 1729.76 40.4354C1730.22 39.9746 1730.74 39.7442 1731.32 39.7442C1731.89 39.7442 1732.41 39.8594 1732.87 40.0898C1733.45 40.3202 1733.68 40.8386 1733.56 41.645L1732.7 49.421C1732.59 50.6882 1732.87 51.5522 1733.56 52.013C1734.26 52.4738 1735.35 52.7042 1736.85 52.7042H1756.55C1757.01 52.7042 1757.41 53.1074 1757.76 53.9138C1758.1 54.605 1758.28 55.469 1758.28 56.5058C1758.28 57.5426 1758.1 58.5794 1757.76 59.6162C1757.41 60.5378 1757.01 60.9986 1756.55 60.9986H1739.44C1736.56 60.9986 1734.66 61.229 1733.74 61.6898C1732.93 62.1506 1732.53 63.533 1732.53 65.837V99.8786C1732.53 104.487 1733.51 108.115 1735.47 110.765C1737.42 113.415 1740.25 114.739 1743.93 114.739C1747.27 114.739 1749.87 114.509 1751.71 114.048C1753.55 113.472 1755.22 112.666 1756.72 111.629C1756.95 111.399 1757.18 111.283 1757.41 111.283C1757.87 111.283 1758.16 111.571 1758.28 112.147C1758.51 112.608 1758.62 113.127 1758.62 113.703C1758.62 114.279 1757.64 115.431 1755.68 117.159C1753.84 118.887 1751.36 120.499 1748.25 121.997C1745.26 123.495 1741.97 124.243 1738.4 124.243Z" fill="black"/>
</g>
<defs>
<filter id="filter0_i_70_2452" x="0" y="0" width="1758.62" height="171.072" filterUnits="userSpaceOnUse" color-interpolation-filters="sRGB">
<feFlood flood-opacity="0" result="BackgroundImageFix"/>
<feBlend mode="normal" in="SourceGraphic" in2="BackgroundImageFix" result="shape"/>
<feColorMatrix in="SourceAlpha" type="matrix" values="0 0 0 0 0 0 0 0 0 0 0 0 0 0 0 0 0 0 127 0" result="hardAlpha"/>
<feOffset/>
<feGaussianBlur stdDeviation="2.88"/>
<feComposite in2="hardAlpha" operator="arithmetic" k2="-1" k3="1"/>
<feColorMatrix type="matrix" values="0 0 0 0 0.616361 0 0 0 0 0.570158 0 0 0 0 0.523956 0 0 0 1 0"/>
<feBlend mode="normal" in2="shape" result="effect1_innerShadow_70_2452"/>
</filter>
</defs>
</svg>
